<?xml version="1.0" encoding="UTF-8"?>
<svg id="Layer_1" xmlns="http://www.w3.org/2000/svg" version="1.1" viewBox="0 0 500.07 521.82">
  <!-- Generator: Adobe Illustrator 29.3.1, SVG Export Plug-In . SVG Version: 2.1.0 Build 151)  -->
  <defs>
    <style>
      .st0 {
        fill: #466d39;
      }
    </style>
  </defs>
  <path class="st0" d="M473.42,413.07c.91-116.88,4.21-231.4,6.19-349.44-.04-11.75.11-23.46-1.07-35.09-3.3-.41-2.61,3.58-4.57,5.07-.62.28-.51-2.01-1.52-3.04-1.03-1.95-2.04-3.64-3.05-5.08l-2.03-1.02c-.87.48-.9.83,0,1.02.02,1.69,0,3.39,0,5.08-.15.21-2.1-1.02-3.04-1.02-.47,0-1.57,1.06-2.03,1.02-1.31-.11-1.48-1.53-2.03-2.03-2-1-6.34-1.68-7.11,1.02-1.86-1.8-3.46-2.04-5.08,0-.29.32-3.48.31-3.07,3.05-4.32-5.17-6.14-1.23-10.61-.57-.78.12-6.74.64-7.1.62-.64-.03-.5-2-.99-1.99-4.15.08-9.44,2.27-12.47,2.76-.76.13-6.62-3.11-8.88-2.89-.59.05-.13,4.53-4.63.04-.06-4.34-1.07-5.36-3.05-3.05l-1.03,5.09c-1.14.33-2.35-.95-3.04-1.02-1.08-.51-2.5-1.03-3.05,0-1.2.41-2.56.41-4.06,0-7.68,1.42-4.03-.38-6.12-2.03-.38-.3-3,3.71-9.12,1.02-.33-1.71-.83-2.56-2.03-1.02-3.03,4.32-21.37,1.13-26.86.99-4.29-.11-8.7,1.17-12.12.99-2.33-.12-4.79-1.73-7.24-1.78-2.89-.06-9.24,2.87-10.03,2.71-1.27-.26-2.17-2.59-3.34-2.8-.39-.07-4.21,1.16-7.48.91l-2.27.39c-4.5-1.04-6.8-.49-6.87,1.65-.57,1.3-.4,7.85-3.05,0-1.81-.3-3.34-.66-5.08-1.02-2.59,0-4.62-.68-6.1-2.03-.37-.04-1.98,1.24-3.49,1.03-1.72-.24-2.61-2.03-4.12-2.08-.33-.01-.87,3.37-3.57,2.07-.12.31-.08.84.06,1.45,1.24,1,2.1,2.19,2.08,3.31-.02,1.64-1.61-1.27-2.08-3.31-3.15-2.54-8.8-3.81-9.21.58-.27.17-.65.7-1.02,1.02.91,2.59-.08,4.28-2.54,5.06-3.99-3.33.97-3.67,2.54-5.06-.07-.2-2.86-2.94-3.05-3.05-.79-1.56-1.47-1.9-2.03-1.02-.4-.11-1.77.82-2.54.6-1.52-.42-2.45-2.83-4.57-2.63-.82-.41-1.54.21-2.03,1.02-3.55.25-5.17,2.44-8.13-2.03-1.12-.07-2.69.04-3.05,0l-1.7.72c-1.87-1.6-3-.83-3.38,2.32-1.2-.73-1.89-1.13-3.05-2.03-1.35-.81-2.36-.13-3.05,2.03-4.3-3.71-8.6-4.31-12.19,0-1.85-.46-3.88-.46-6.1,0,.34-2.03-.34-2.37-2.03-1.02-.78.47-4.31,2.73-4.58,2.76-.66.06-7.23-2.19-8.11-2.24-2.27-.12-17.31-.75-18.22-.57-.67.13-.48,1.97-1.05,1.95-5.12-.16-10.65-1.05-14.79-1.89-.34-.88-.68-.88-1.02,0-5.09-1.05-5.66-.27-10.56,1.09-1.42-.3-.98-5.93-3.66-4.13-.11.07.77,1.69.53,2.02-1.43,1.97-3.14.15-4.95.35-4.09.46-5.44.03-8.21.15-3.11.12-6.79.42-9.71,1.53-.69-3.31-.62-6.91-1.03-10.16.72-1.92.36-2.48-1.02-1.02-.86,3.39-1.25,11.3-4.7,11.95-1.58.3-4.41-1.39-6.85-.81-1.2.28.03,2.5-1.65,2.06-1.16-7.39-2.72-2.47-5.76-2.22-1.7.14-2.87-1.58-4.08-1.67-.75-.06-3.01.17-5.13.08-2.65-.12-3.41,1.48-5.37-.24-.16-.93-.5-1.61-1.02-2.03-.67.04-1.36-.06-2.03,0-3,5.07-2.69,1.81-4.06,1.02.64-1.76-.53-1.78-2.03-1.02-8.43-3.37-6.64,3.07-7.66,3.08-4.24.03-3.74-2.06-4.53-3.08-1.4-5.8-4.98-5.06-9.14-2.03-1.96-1.91-3.1-1.5-2.03,1.02-.77.26.38,2.29-4.06,1.02.31-2.74-2.3-4.33-4.06-2.03-1.41.43-2.76.77-4.06,1.02-1.83.05-2.89,1.54-6.1,0-.87.44-1.55,1.11-2.03,2.03-2.8,10.12-4.47,30.14-4.91,41.11-.17,4.1,2.59,9.86,2.72,13.21.25,6.7-1.94,16.04-1.66,23.42.4,10.65.24,21.56-.05,32.47-.06,2.29,2.41,8.28,1.87,9.68-.87.84-1,1.88-1.02,3.05,1.7,10.32-.05,28.69-.08,40.15-.04,14.02.99,29.32.98,42.61,0,7.15-3.31,14.72.13,21.89l1.02-2.02c.18-.16,1.57.69,2.02,1.01-.43,1.77-.36,2.29,1.02,1.02,2.22-4.04,9.67-9.56,12.23-12.93,1.62-2.14,1-5.87,4.75-6.19,3.78-.32,4.14,2.78,1.99,4.64-.48.41-1.89.04-2.75.93-1.67,1.72-1.44,4.67-2.34,6.1-3.89,6.16-18.67,24.24-19.42,29.65-.47,3.41.6,9.3.5,12.79-.52,17.02-.17,34.01-.31,50.9-.05,6.4-2.65,17-.74,23.09.41,1.29,2.31,1.22,3.04,2.27-3.1,1.08-2.96,3.21.02,4.06-4.9.9.47,3.8-.02,4.55-.14.22-2.56-.53-2.78,3.81-.31,6.1,1.86,15.81,1.81,22.15-.03,3.49-1.82,11.46-2.11,17.19-.88,17.32-2.43,38.96-2.08,56.95.04,2.03,1.62,15.14,2.3,15.58.32.21,6.66,1.22,7.5,1.22,66.53.32,133.09,3.5,200.15,4.07,26.32.22,55.06-1.61,81.29-.08,43.06,2.5,87.11,3.1,130.99,5.16,3.81.18,24.35,1.23,25.95.47,6.48-3.09,3.29-24.61,3.43-30.65.44-19.08.44-37.89.59-56.78ZM30.97,95.59c-1.08-.93-1.85-1.54-1.52-3.04h2.02s-.5,3.04-.5,3.04ZM468.38,138.28c-2.26,4.63.74,14.03-7.11,11.16,3.55-3.45,1.33-12.03,7.11-11.16ZM465.84,157.55c-2.02,0-3.69-6.09-1.02-6.06,1.4.02,3.75,6.05,1.02,6.06ZM466.34,197.19c-2.08,1.81-2.41-2.14-2.02-4.05,2.78-.83,3.35,2.9,2.02,4.05ZM463.3,176.88v3.04h-2.02v-3.04h2.02ZM460.26,137.25h2.02v4.05h-2.02v-4.05ZM459.25,198.22h.99s.79,4.48.79,4.48l-.77.6c1.57,3.63,1.6,5.03,1.02,9.14.66-.06,1.4.1,2.03,0,1.12-.18,3.16-2.4,2.06,1.52-.21.74-2.29,1.1-3.07,1.52-.06.03.14,1.18-1.01,1.02-.25-1.04.32-3.53-.01-4.06-.06-.09-1.77.42-2.04-.67-.75-2.97-.54-7.69.01-10.5.18-.9-.13-2.07.01-3.04ZM453.35,132.95c.54.57,1.75.14,1.83.24-.04-2.39-.68-3.55,2.03-3.04-.09,1.63.66,4.25-1.01,5.08,1.65,2.71,2.45,5.12,1,8.12-1.74.26-.76-1.84-1.55-3.04-.7-1.06-2.41-.93-2.5-1.04-.47-.56,2.41-2.03,2.04-3.52-.18-.71-5.19-2.64-4.07-5.6,3.25-.8,1.39,1.91,2.23,2.8ZM447.05,273.4c-.75-1.7.92-2.65,1.01-3.04.36-1.63,0-3.76.13-3.9.41-.45,1.63.01,1.91-.16.13-.08-.09-.67,0-1.02l-2.05-4.56c2.48-2.33,1.89,1.38,2.05,1.51.14.12,2.64-1.42,3.04-1.03.3.29,2.81,7.61,0,7.13.18.29-.34,1.61.09,2.25.97,1.45,3.34,1.98.42,4.84-2.82-2.53.33-6.11-4.57-5.06,0,2.19.76,3.58-2.03,3.04ZM452.12,225.13c-7.22,7.28-3.78,1.01-4.06-3.55-.01-.17-2.28-3.1-.5-3.06,1.99.04,3.79,2.45,1.51,3.06-.67,2.19,3.19,3.14,3.04,3.55ZM450.6,253.1c2.29,1.49,2.31,5.01-.5,6.08.48-2.71-2.04-4.59.5-6.08ZM452.13,199.23h3.04s0,3.04,0,3.04c-1.95-1.06-3.69-.57-3.03-3.04ZM453.15,214.46c.47-1.74-.14-6.84,3.04-6.09-.13,1.97.26,6.79-3.04,6.09ZM453.13,50.88l-1.02,7.11c-3.6-1.3-1.62-5.94,1.02-7.11ZM448.07,210.4c-.35-.37-.64-3.8,1.5-3.03,3.14,1.12-.52,4.1-1.5,3.03ZM449.07,136.23c-1.26-.14-2.23.7-3.04-.7-2.91-4.99,4.4-6.07,3.04.7ZM448.04,127.07c-.1.13-2.25.34-3.02,1.04v-5.08c2.17-.77,4.02,2.73,3.02,4.04ZM446.02,103.72l-1.02,5.07h-.99c-.14-1.85-.32-4.43,2.01-5.07ZM445.52,158.59l.5,4.05c-3.91-.29-3.23-1.95-.5-4.05ZM445,175.86v5.07h-1v-5.07h1ZM445.45,191.7c.85.76,1.95-.06,1.59,1.42-1.86.25-2.96.06-4.04-1.51,2.69-2.99,1.47-.78,2.45.09ZM442.65,300.13c-2.26-4.84.13-3.17.33-5.4.14-1.47-2.09-4.56-.51-6.11,1.67,1.55,1.23,4.19,1.52,6.11.13.87,1.38,2.14,1.1,3.47-.12.56-2.76.52-2.45,1.93ZM438.91,340.47c1.12.51-3.81,3.4-5.07.49l5.07-.49ZM436.87,326.24v5.07s-2.02,0-2.02,0c-.41-.44.64-5.76,2.02-5.07ZM438.4,346.56c3.06,2.22,3.68,4.75-.5,5.07l.5-5.07ZM439.47,325.82c-4.98.72-2.92-1.13-2.59-2.63.12-.54-.36-1.18-1.02-1.02-.23.24-3.87,2.17-4.05,2.03-2.17-2.53,1-6.73,1-7.11.02-.87-1.02-1.87-1.02-2.03-3.34,2.56-2.84-.38-3.38-.66-.83-.43-1.6-.3-1.7-.36-1.89-1.17-1.94-1.98-3.05-3.05-.28-.27-2.05.59-2.06-.52l2.03-4.08,1.04,3.58c1.75-2.46,3.09-3.59,5.08,0-.03-.32,1.24-2.56,0-4.06h2.02c.15,2-.19,4.11,0,6.09,2.28.68,2.21,3.13,2.03,5.08-.21,1.94.2,2.17,2.03,2.03-.72-2.77,6.74-9.47,8.12-8.13,2.11,2.04.12,14.16-4.52,14.83ZM429.77,329.29l-.5,6.09c-1.95-1.44-1.6-3.92-1.52-6.09h2.02ZM426.72,319.12c-1.92,2.06-5.06-5.39-1.53-4.05,1.31.5,2.16,3.38,1.53,4.05ZM414.53,314.03c-.46-.58,1.84-2.62,3.04-2.01l1.02,3.03-4.06-1.02ZM418.59,323.19v5.07h-2.02v-5.07h2.02ZM404.38,271.37c-1.7-2.2.66-5.52,2.02-4.06.68.73-.29,4.04-2.02,4.06ZM404.36,317.09c-3.28-1.78-4.13-5.67-3.02-9.14,2.87,2.05,4.1,5.91,3.02,9.14ZM403.35,256.13c-2.14,1.83-2.51.62-2.52-1.53,0-2.35.51-5.29.99-7.61,2.16,1.98,1.36,5.3,1.53,8.12,3.6,2.68,3.09,3.51,2.53,8.04-.23,1.89-.55,2.35-2.52,2.12.89-3.37.19-5.97,0-9.14ZM402.33,272.38c-3.96-.24-4.47-3.86-.5-5.07l.5,5.07ZM402.34,194.15c.97-.96,4.05,1.79,3.03,3.04-.16.2-4.6-1.49-3.03-3.04ZM402.33,209.4v3.04h-2.02v-3.04h2.02ZM405.9,210.41l.5,5.07c-5.1-.62-1.39-2.03-.5-5.07ZM407.43,278.48c.41-.49,2.67,1.79,2.02,3.04h-3.04s1.03-3.04,1.03-3.04ZM419.6,243.93h-2.02s0-3.04,0-3.04c1.47.34,2.33,1.64,2.02,3.04ZM421.64,229.72c1.02,1.09-2.26,5.17-2.53,5.07-3.87-1.41,1.35-6.33,2.53-5.07ZM419.6,257.15c1.18,6.25-3.86,5.46-4.05,0h4.05ZM416.56,212.43c-.16.15-1.39-.05-2.02,0v-5.07s1,0,1,0c-.26,1.18,1.38,4.73,1.02,5.07ZM412.5,250.03c-.86-.68-1.16-4.64,1.5-4.05,3.14.69.34,5.51-1.5,4.05ZM417.07,302.89c3.39-.26-.51,6.22-2.53,6.08-.23-1.25,1.57-6,2.53-6.08ZM411.48,198.22c3.59-2.66,4.91,6.1,5.08,8.11-2.44,2.47-5.49-7.81-5.08-8.11ZM411.47,282.55c.73.63,1.12,3.38-.52,4.05-2.2.9-1.85-6.09.52-4.05ZM408.43,306.93c.02-1.12-2.17-4.28.49-3.04,1.88.87,1.16,3.07,1.54,4.05.49,1.29,1.24,2.51,1.48,3.9.21,1.22-.8,3.86-.46,4.23.46.51,4.19-1.2,3.03,2.03-1.24-.39-2.32-.61-3.63-.2-1.26.39-2.15,3.81-3.47,2.23-1.12-1.33,1.97-4.18,2-5.57.04-1.69-1.07-3.49-.99-7.63ZM417.95,284.56c-.49-.73-2.25-.93-2.44-1.51-1.42-4.29,2.43-1.14,2.95-1.61.44-.4-.02-1.77.14-1.94l-1.01-.52c.48-2.36,1.46-3.31,3.04-1.51,2.12,2.41,2.13,7.11-.49,9.17-2.65,2.08-1.6-1.21-2.19-2.08ZM419.62,300.84v-4.06s2.02,0,2.02,0c.26,1.9,0,3.52-2.02,4.06ZM422.65,326.24c.53.62-1.03,6.95-3.03,7.11-1.09-1.45.93-9.55,3.03-7.11ZM426.73,224.64c3.43-.81,2.07,3.05,1.01,5.08,6.64,1.35.49,7.31-1.02,0-.3-1.45.2-3.49,0-5.08ZM431.6,269.16c-.14.24-3.11,1.64-3.85,2.21-1.92-10.42,6.66-6.95,3.85-2.21ZM426.71,243.94c-.68,1.42,1.22,4.9,1.03,5.07-2.22,1.83-3.21-3.32-2.02-5.06h.99ZM426.46,283.38c.98-.7,2.69-10.18,4.32,1.2l-3.03-1.01,1.01,4.05c-2.07.23-7.3-1.71-5.07-4.05.18-.19,2.02.35,2.78-.19ZM428.75,290.69c.26.2-2.61,5.08-4.05,5.07.53-2.68.22-6.1,4.05-5.07ZM438.91,237.85c-.81,1.38-.75,2.63-1.02,4.05-.61,3.25-.11,5.09-4.05,6.1-2.23-8.87,1.9-5.89,3.04-7.11.52-.56-1.32-4.04,2.03-3.04ZM440.94,206.34c1.07,3.84,4.11,6.74-.99,9.14.77-3.05-2.91-7.52.99-9.14ZM440.94,221.58c-2.02-.54-2.28-2.17-2.01-4.06,2.02.54,2.28,2.17,2.01,4.06ZM442.97,222.6c.85,3.31-2.24,1.21-3.15,2.61-.84,1.3-.02,4.48-1.92,4.49l-1-6.04,6.06-1.07ZM439.93,249.03h3.05s-.5,4.05-.5,4.05c-3.03-1.32-1.79-1.38-2.55-4.05ZM439.93,287.62c-1.46,1.16-3.92-2.06-3.04-4.05,1.26-.02,3.24,3.9,3.04,4.05ZM436.76,298.67c.37-.23-.25-3.44,2.15-1.89v4.06s-4.05-1.02-4.05-1.02l-2.03,4.06v-7.11c.29-.39,3.37,2.25,3.93,1.9ZM441.97,267.81c-.1-.27,3.63-.96,2.04-4.56,1.92-.15,2.31,5.79,2.02,6.09-.63.64-3.61-.28-4.06-1.52ZM445,198.21v4.06c-4.35-1.38-4.35-2.68,0-4.06ZM441.96,202.28c.66,2.48-1.08,1.99-3.03,3.04v-3.04s3.03,0,3.03,0ZM439.43,195.16c-1.56-1.1-1.77-2.18-1.52-4.05h2.02l-.5,4.05ZM439.93,177.89c.25.67-.14,2.11,0,3.04-2.03.46-2.14-.79-3.04-2.03-.27-.37-1.56-.1-1.01-2.03,1.83.13,3.41-.72,4.06,1.01ZM432.82,44.79c.09-.09,2.14-.16,2.53-.01,1.12.42.24,2.12.51,3.05.37,1.26,1.41,2.43,1.01,4.06-3.55.81-1.39-2.43-2.03-4.06-.08-.2-3.39-1.77-2.03-3.04ZM433.84,195.69c-.72,5.65-6.17-5.93,0-5.6-.14,1.81.23,3.82,0,5.6ZM432.81,103.72v5.08c-3.71-.66-.53-6.25,0-5.08ZM432.32,140.3l1.51,4.06-3.03-1.02c-.33-1.5.45-2.11,1.52-3.04ZM427.74,190.08c.45-.57,2.77-2.34,3.04-2.03.51,1.46-.8,2.24-1.01,3.05-.22.88.6,2.77-.5,3.04-1.54-1.52-3.09-2.06-1.53-4.06ZM427.13,201.99c.5-1.61,1.87-2.93,1.64-4.79l4.05,4.07c.87-1.39,2.71-3.28,3.56-5.06,5.28,5.94,1.09,4.31-.6,6.47-2.03,2.62,1.15,5.82-4.99,4.68.13,2.39,1.56,2.07,0,5.08-.8,1.54-1.64,2.8-3.55,3.06-3.12.44-.79-1.75-.52-3.06.63-3.06-.77-6.67.41-10.45ZM426.72,130.15c-1.55,1.87-1.55,4.79-4.06,4.05-.46-3.07.88-4.52,4.06-4.05ZM425.7,43.78c.46,3.07-.88,4.52-4.05,4.05-.7-1.88,3.18-4.99,4.05-4.05ZM420.63,49.87h2.02s-.5,3.04-.5,3.04c-1.08-.93-1.85-1.54-1.52-3.04ZM422.15,139.29l.5,3.04h-2.02c-.33-1.5.45-2.11,1.52-3.04ZM422.65,151.48v3.04c-2.48.66-1.99-1.08-3.04-3.03h3.04ZM419.6,128.11v5.07s-2.02,0-2.02,0c-.41-.44.64-5.76,2.02-5.07ZM413.52,172.81c-1.57-1.55,2.87-3.25,3.03-3.04,1.01,1.25-2.06,4-3.03,3.04ZM415.52,37.7c1.04,1.21-1.21,4.26-2.51,5.03l-.5-6.08c.6.6,2.91.93,3.01,1.05ZM413.51,150.46c.58.58-.85,3.02-1.52,3.02-2.81,0-.02-4.56,1.52-3.02ZM407.42,195.16c-.21-.15,1.74-3.66,1.02-5.07,5.84.1,2.03,7.21-1.02,5.07ZM410.46,176.88c.55.53-1.12,5.56-3.04,4.05-.98-2.03,1.81-5.25,3.04-4.05ZM407.93,196.17c2.53,2.17.49,6.2.51,7.12.05,2.26,3.17,5.88-1.52,5.09-1.35-.21.53-4.83.5-5.09-.42-3.66-3.98-3.23.51-7.12ZM404.86,182.98c3.14,1.12-.52,4.1-1.5,3.03-.35-.37-.64-3.8,1.5-3.03ZM403.35,187.04c1.33,1.16.76,4.88-2.02,4.05-.39-1.91-.07-5.86,2.02-4.05ZM401.31,183.99c-5.06-.77-5.07-7.7-1.11-4.98.39.27,1.44,4.56,1.11,4.98ZM399.29,157.57c.5-1.1-.35-3.75,2.02-4.06.14,1.46-.59,2.73-1.01,4.06-.58,1.85-.76,4.4-3.04,5.08-.83-2.51,1.43-3.78,2.02-5.08ZM395.23,193.13l.49-5.08c2.24,1.58,2.23,4.1-.49,5.08ZM397.77,121l.49,4.06c-2.47-.93-2.71-2.49-.49-4.06ZM398.26,106.77l-1.02,6.09c-3.63-1.43-1.89-4.89,1.02-6.09ZM397.26,199.23c.53.31,1.69-.61,2.04.51.65,2.08-.02,3-2.04,2.53,1.06,2.49.62,3.45-1.52,5.06-4.4-3.19-.87-3.42.51-6.08.29-.56.98-1.6,1.02-2.03-2.15-1.26-3.49-2.27-3.04-5.08,2.42-1,3.21,2.95,3.04,5.08ZM389.13,113.89h4.06c-.54,2.02-2.16,2.28-4.06,2.02v-2.02ZM391.16,147.4h-2.02s0-3.04,0-3.04c1.47.34,2.33,1.64,2.02,3.04ZM391.16,164.68c.31-.08,1.88-.86,2.03-1.02.05-1.68.06-3.4,0-5.08-.04-1.05-1.46-2.71-.5-3.06,4.04.65,1.53,2.74,1.51,3.06-.11,2.12.66,3.31-1.02,5.08-.1,3.2-.3,6.03-1.03,9.14-1.75-.25-2.06-5.08-2.02-6.1l-2.02,1.02c-.39-5.77,2.73-2.97,3.04-3.05ZM393.19,227.67c-1.8,1.94-4.55-4.07-1.52-4.04,1.05.01,2.15,3.36,1.52,4.04ZM388.1,183.99c.51.37,1.03,6.74,2.04,8.11-1.69.83-4.79-4.28-4.93-4.75-.62-2.16,1.61-4.28,2.89-3.36ZM384.06,221.59c4.74,2.13,1.24,3.4.99,7.11-3.46-1.36-1.54-4.6-.99-7.11ZM383.04,207.36l-1.03-6.08c1.85-.24,2.97-.07,4.03,1.5l-3,4.58ZM386.09,212.44v-4.06s2.02,0,2.02,0c.26,1.9,0,3.52-2.02,4.06ZM379.98,43.77c.45-.71.81-3.9,1.03-4.06,3.88,1.6.49,2.59-.01,4.06-.45,1.31-.29,5.14-1.52,5.06-.18-.01-2.52-2.34-2.52-2.52,0-.77,2.72-2.05,3.03-2.54ZM374.9,166.72c.32.36-.19,3.92,0,5.07h-.99c-.55-1.32-1.51-7.91,1-5.07ZM372.87,41.74c.26,1.9,0,3.52-2.02,4.06v-4.06s2.02,0,2.02,0ZM372.87,122.01c-.01,2.01.69,3.53-1.51,3.03l-2.55-2.54,4.06-.5ZM368.81,134.2l3.04-7.1c-.12,2.11.55,7.73-3.04,7.1ZM369.31,158.57c-2.52,0-.27-6.08,1.52-4.04.63.72-.5,4.04-1.52,4.04ZM369.82,76.29l-2.02,6.08-1.03-6.08h3.04ZM364.73,136.24c.25.54-.72,4.75-1.02,5.07-.13.14-.67-.05-.99,0-.39-.84.66-5.63,2.01-5.07ZM362.22,177.89c-2.56-.58-.37-5.69,1.5-4.05,1.02.89,1.02,4.62-1.5,4.05ZM362.71,38.7v3.04c-1.87.24-2.98.06-4.05-1.53v-1.5s4.05,0,4.05,0ZM360.18,54.95l.5,3.04h-2.02c-.33-1.5.45-2.11,1.52-3.04ZM353.57,118.97l3.03-1.03,1.03,3.04c-1.35.27-4.96-1.26-4.06-2.01ZM357.62,169.77l-.5,5.07c-2.05-1.78-2.78-5.95.5-5.07ZM346.97,155.53c5.35,1.36,2.56,4.44,2.53,7.12-.03,2.48,2.7,6.8-2.54,6.1-1.24-.17-.8-6.08,1.52-6.1l-1.51-7.12ZM348.49,175.87h2.02s-.5,3.04-.5,3.04c-1.08-.93-1.85-1.54-1.52-3.04ZM347.47,126.08h2.02l-.5,4.05c-1.56-1.1-1.77-2.18-1.52-4.05ZM340.87,125.05l3.55,1.04c.45.99-1.01,1.87-1.02,2.02-.12,1.67.1,3.4,0,5.08h-1.51c-1.79-.32.6-4.67.5-5.08-.06-.23-3.66-1.69-1.51-3.06ZM337.31,94.56c-2.3,1.58-6.52-2.88-1.02-3.03-.47,1.07,1.31,2.84,1.02,3.03ZM339.34,127.08v5.08c-.55,1.24-2.42-4.06-3.04-5.07l3.04-.02ZM333.26,116.93c-1.45-2.24-3.45-7.86.9-4.99.87.57,1.65,4.91-.9,4.99ZM334.26,143.34c-1.61,1.84-3.29-3.86-3.04-4.05,1.6-1.23,4.19,2.73,3.04,4.05ZM334.77,53.94c.79,1.38.73,4.54.5,6.09-.24,1.64-1.33,4.81-2.55,6.09-1.07-1.31.51-3.19.51-5.08,0-1.67-2.95-4.48,1.53-7.11ZM330.2,104.74h2.02s0,5.07,0,5.07c-1.38.69-2.43-4.63-2.02-5.07ZM329.17,134.21c.04,1.14-.76,6.84-1.02,7.11-2.35,2.46-1.92-2.87-2.02-3.05-.17-.29-4.23-.83-3.04-5.08,1.62-.07,1.21,2.87,3.36,3.05.2-.01.43-.01.69,0,.45-1.33-1.08-2.51,2.03-2.03ZM325.12,131.67c2.11-2.73,3.76-3.41,4.05.5l-4.05-.5ZM327.14,93.55c-1.76,1.99-3.5-4.43-4.06-5.06,2.17-.94,4.76,4.27,4.06,5.06ZM326.57,123.07c1.39.29,2.18,3.34,1.6,4-.25.29-5.81,1.34-7.37,2.09-1.17.56-.1,2.8-2.78,1.98-.77-4.02,5.36-8.74,8.56-8.07ZM313.41,161.66c1.39.7,7.55,3.91,5.6,6.07-.43.48-2.69-1.12-3.5-1.08-.63.03-.44,2.14-1.07,2.13-5.66-.03-6.66-9.95-1.03-7.13ZM309.87,171.79c-4.4,1.3-3.23-4.08-4.05-7.11l4.05,7.11ZM312.93,128.1v-4.05h2.03c-1.55,2.6,1.58,4.66-2.03,4.05ZM315.99,109.82l-2.05-4.06c1.39-1.07,6.17,3.46,2.05,4.06ZM313.93,96.61l-.5,7.1c-1.8-1.33-3.15-8.05.5-7.1ZM311.9,37.68l-.5,4.05c-2.73-2.11-3.41-3.76.5-4.05ZM307.85,128.11c1.3-1.5,2.37,1.21,3.04,2.03.45.55,2.4,2.75,2.03,3.04-2.15.7-2.19-1.38-3.05-2.02-.19-.14-4.22-.51-2.03-3.04ZM306.83,130.15c.2.17-1.41,4.29-1.52,5.07-2.28-1.21-.46-6.74,1.52-5.07ZM301.76,171.8h1c.94,2.42-.93,5.47-1.01,7.11-.01.26,2.31,5.93-1,3.04-1.71-1.49-.17-4.28-.02-5.08.28-1.45,1.53-3.14,1.03-5.08ZM299.72,35.65h2.02v3.04h-2.02v-3.04ZM300.72,145.38l-1.02,7.11c-3.08-1.17-1.69-6.23,1.02-7.11ZM300.73,154.53c1.09.97-2.08,4.13-3.04,3.04-1.53-1.74,1.33-4.56,3.04-3.04ZM296.68,182.97c2.02.54,2.28,2.17,2.01,4.06-2.02-.54-2.28-2.17-2.01-4.06ZM291.07,87.47c1.46,1.25,1.82,6.53-.49,7.11l.49-7.11ZM288.53,75.27c-2.02-.54-2.28-2.17-2.01-4.06,2.02.54,2.28,2.17,2.01,4.06ZM284.48,35.65h2.02s-.5,3.04-.5,3.04c-1.08-.93-1.85-1.54-1.52-3.04ZM281.43,85.42v-5.07h2.02v5.07h-2.02ZM283.45,93.56l-.5,3.04c-1.08-.93-1.85-1.54-1.52-3.04h2.02ZM281.94,74.26l.49,4.05h-.99c-.34-2.14-1.7-2.61.5-4.05ZM279.39,126.08c1.34,1.33-1.77,6.03-3.03,2.52-1.08-3,2.27-3.29,3.03-2.52ZM277.37,131.16h.99c-.34,1.46.9,3.02,1.03,4.06.35,2.86.67,8.01-1.53,10.16-2.07-3.37-.81-6.23-.5-9.14.18-1.66-.14-3.41.01-5.08ZM267.19,80.35c.24.3-.55,2.38.59,3.15,1.54,1.04,5.12.25,6.51,2.43-1.84,1.39-2.2,3.38-2.02,5.59-1.59.05-1.7-2.64-2.14-2.94-.33-.23-2.78,1.35-3.95.9,1.51.37-2.43-13.53,1.01-9.14ZM267.71,90.53c1.91,1.25,1.64,2.93,1.52,5.06-1.91.39-2.74-1.3-4.04-2.54l2.52-2.52ZM268.21,115.92c-.77,1.58.05,3.72-2.02,4.05.08-2.62-1.01-4.73,2.02-4.05ZM261.11,81.37c1.47.34,2.33,1.64,2.02,3.04h-2.02s0-3.04,0-3.04ZM258.05,107.79c.35.37.64,3.8-1.5,3.03-3.14-1.12.52-4.1,1.5-3.03ZM254,58h2.02s-.5,3.04-.5,3.04c-1.08-.93-1.85-1.54-1.52-3.04ZM255,81.36c.26.25.63,5.89,1.01,7.12l-4.05-6.61c.04-.89,2.92-.61,3.03-.5ZM252.99,112.87c1.74,0,2.68,3.39,2.02,4.06-1.91,1.91-4.25-1.05-2.02-4.06ZM255,155.53c-3.54.28-2.84-3.97-4.07-6.08l4.06-1.03v7.11ZM250.96,88.49l2.01,6.08-4.02-1.05c-1.07-3.07,1.9-2.6,2.02-5.03ZM248.09,97.11c.47-2.02,3.76-.65,3.87-.5,1.65,2.34-2.08,3.31-2.04,3.53.17.76,3.5,6.17,3.06,6.62-3.51.78-5.29-7.93-4.89-9.65ZM246.87,70.19c.31,1.4-.55,2.7-2.02,3.04v-3.04s2.02,0,2.02,0ZM243.82,87.46c-2.15,1.96-3.05-4.62-3.04-5.07,2.78-.59,4.79,3.47,3.04,5.07ZM241.8,92.54l-2.03-4.05h3.04c2.35,3.78-3.12,8.71-4.05,7.1-1.32-2.3.61-3.78,3.04-3.05ZM240.77,113.87l-2.01-7.1c2.77,1.21,2.88,4.72,2.01,7.1ZM237.23,50.9c1.52,0,1.52,3.01,0,3.01s-1.52-3.01,0-3.01ZM233.66,123.03c1.54,1.53-1.31,8.57-3.04,0,.82.1,2.84-.21,3.04,0ZM231.63,158.59v3.04h-2.02v-3.04h2.02ZM228.6,90.51c3.98,1.73.61,6.07,1,9.14-3.98-1.73-.61-6.07-1-9.14ZM229.61,153.52c-1.04,3.05-3.15,1.81-3.04-1.03l3.04,1.03ZM221.98,33.63c1.8.02,1.73,4.04,0,4.02-1.8-.02-1.73-4.04,0-4.02ZM216.41,86.45c1.38-.69,2.43,4.63,2.02,5.07h-2.02s0-5.07,0-5.07ZM214.88,122c4.62.74,2.28,3.68,2.53,5.09.09.51,1.5,1.81,1.02,3.05,4.24-1.38,4.01,3.9,1.53,3.04-.76-.36-1.1-1.72-1.53-2.02-.23-.17-1.39.4-2.13-.67-.98-1.43.15-3.22.1-3.39-.29-1.04-2.59-3.43-1.51-5.09ZM214.36,97.63c.32.36-.19,3.92,0,5.07h-.99c-.55-1.32-1.51-7.91,1-5.07ZM211.31,62.06c.27,1.89,0,3.52-2.01,4.06-.27-1.89,0-3.52,2.01-4.06ZM197.08,152.49v3.04s-3.03,0-3.03,0c-.66-2.48,1.08-1.99,3.03-3.04ZM197.54,168.29c.81.81,1.94-.02,1.57,1.46h-3.04s0-3.03,0-3.03c1.48-.36.65.76,1.46,1.57ZM193.02,173.83c.41,2.26,1.99,4.1-.99,5.08-.41-2.26-1.99-4.1.99-5.08ZM195.05,179.93c.55.51-1.27,6.99-2.54,7.09-2.34.17-2.07-9.25,2.54-7.09ZM188.46,165.68l-3.55-2.03c1.82-7.37,7.17-3.07,3.55,2.03ZM187.95,75.27c-.39,2.88,1.05,6.29-3.03,2.54.52-.65,1.99-1.86,2.01-2.54,0-.28-2.89-5.11.5-4.07,2.03.62.59,3.51.52,4.07ZM186.92,47.84l-2,6.08-2.04-3.02c3.38.62.51-3.83,4.05-3.06ZM181.34,68.16c2.73,2.11,3.41,3.76-.5,4.05l.5-4.05ZM180.83,133.18l-6.09-2.04c-.02-2.4,5.58-1.63,6.04-.93.32.48-.08,2.1.04,2.97ZM178.29,151.49c1.57,1.08,1.76,2.18,1.51,4.04l-3.03-2.05,1.51-1.99ZM175.76,133.19c.77.83,3.89,1.88,4.05,2.05.14.15-.05.66,0,.99-3.56.1-4.65.92-4.05-3.04ZM172.2,162.63l-.5-7.1c.82.13,2.84-.19,3.04,0,.94.92-.43,6.38-2.53,7.09ZM179.81,120.99c-.78.69-3.41-.27-4.06-1.52-.09-.18,3.24-.99,2.04-3.55,1.4-.18,2.22,4.89,2.02,5.07ZM179.32,88.48l.5,5.07c-3.27.88-2.54-3.29-.5-5.07ZM179.81,43.78c.18.21-.54,5.74-2.52,5.06-2.91-1,1.29-6.49,2.52-5.06ZM176.76,36.66c.31,1.4-.55,2.7-2.02,3.04v-3.04s2.02,0,2.02,0ZM171.7,83.4c.97-.96,4.05,1.79,3.03,3.04-.16.2-4.6-1.49-3.03-3.04ZM172.69,91.53c.73.45.41,7.15-.49,8.12l-2.54-8.11c.86.13,2.62-.26,3.03,0ZM166.61,112.86c-1.09-.96,2.07-4.13,3.04-3.04,1.53,1.71-1.3,4.57-3.04,3.04ZM165.6,70.19l-1.01-2.54c2.27-3.19,4.79,1.22,1.01,2.54ZM169.15,58l.49,4.06c-2.47-.93-2.71-2.49-.49-4.06ZM164.59,45.81h.99c-.11.59.03,1.14.43,1.58.5.54,1.55.4,1.59.47,1.26,2-1.11,2.4-3.02,2.01v-4.06ZM163.57,149.44c.3-.41,6.66,3.69,5.07,5.07-2.05,1.78-6.7-1.68-5.07-5.07ZM156.45,126.07c.09-.01.34-1.08,1-1.03l1.04,3.05c-1.25-.17-2.96.28-4.06.01-.83-.2-1.99-1.07-2.03-2.02,1.3-.16,2.82.2,4.06-.01ZM154.42,101.69c.97-.96,4.05,1.79,3.03,3.04-.16.2-4.6-1.49-3.03-3.04ZM157.46,198.2c-1.11.14-2.03.03-3.04-.51-4.46-2.38,1.17-6.38,3.04.51ZM155.25,173.99c.58.69.02,2.37.19,3.39-2.2,2.22-3.07-1.01-3.36-1.15-1.37-.66-5.31-.33-4.77-2.9.61-2.89,7.55.2,7.94.66ZM152.07,244.34c-.38-.24-.65-.55-.71-.94-.05-.29,1.84-5.36,2.05-5.56,2.04-1.93,3.52,3.69,3.26,6.22-1.59.11-3.15.21-4.6.28ZM165.6,176.87v-6.09c.63.05,1.89-.14,2.02,0,.47.52-.45,6.71-2.02,6.09ZM157.46,210.41h5.09c-1.67,3.47-6.11,5.04-5.09,0ZM161.52,158.59c.32.36-.2,3.92,0,5.07-4.76.77-1.86-7.17,0-5.07ZM155.44,66.13c1.02-1.03,4.08,1.98,3.04,3.04-1.02,1.03-4.08-1.98-3.04-3.04ZM152.41,76.29c.12-.1,2.91.92,3.02,1.03.13.13-1.07,2.23-1.07,3.56.01,3.21,1.9,7.65-1.96,9.62-1.34-2.44-3.28-5.51-2.78-8.49.05-.31,2.54-5.52,2.78-5.72ZM151.36,43.77v2.02s-5.07,0-5.07,0c.47-2.23,3.21-1.48,5.07-2.02ZM136.14,89.5c1.93,0,2.62,4.39,2.02,5.07-.12.13-1.38-.05-2.02,0v-5.07ZM129.02,99.64v-.99c1.69.48,3.68-1.64,4.6-1.68.72-.03,1.72,1.31,2.5,1.67.3.13.79-.15,1.02,0,3.28-4.85,5.49-1.16,5.02,3.48-.38,3.71-3.49,3.14-3,6.68-2.76.72-1.98-1.54-3.04-3.04-.73-1.04-1.72-1.59-2.03-2.03l-2.04,4.06c-3.94-1.81-3.83-5.13-1.01-8.13-.37-.19-1.4.13-2.02-.01ZM139.69,192.12l.5,3.04h-2.02c-.33-1.5.45-2.11,1.52-3.04ZM138.15,207.36v3.04c-2.48.66-1.99-1.08-3.04-3.03h3.04ZM138.16,189.06v-4.05h2.02v4.05h-2.02ZM129.03,114.9l3.04,3.04c-1.85.34-3.37-1.12-3.04-3.04ZM131.04,128.11v5.06h-2.02s0-5.07,0-5.07h2.02ZM128.48,151.54c.55-.83-1.13-3.79,1.54-4.12.06.52-.13,1.6.13,1.84.46.44,2.21-1.19,2.93-.83.26.13-.71,1.39-.39,2.02.76,1.54,2.96,2.31,3.45,4.05-2.51-1.12-3.36,2.09-3.59,2.09-1.33-.01-4.4-2.6-6.08-3.09-1.47-1.46,1.35-.97,2.02-1.98ZM126.99,165.69c-2.22-3.18,4.12-5.81,5.07-1.5.68,3.09-4.49,2.32-5.07,1.5ZM125.97,221.57v-3.03c.64.04,1.91-.14,2.03,0,.67.77.17,4.4-2.03,3.03ZM122.92,100.68c.97-1.09,4.13,2.08,3.04,3.04-1.74,1.53-4.56-1.33-3.04-3.04ZM115.81,99.66c1.45-.76,5.07,1.6,5.05,2.53-.03,2.14-4.59.05-5.05-.53-.16-.21.06-1.38,0-2.01ZM120.89,156.56h3.04s0,5.07,0,5.07c-3.01.31-3.33-2.43-3.04-5.07ZM117.83,48.85v3.05c-.91.98-6.55-3.14,0-3.05ZM111.24,61.04c3.31-.74.5,2.75.5,3.05,0,1.24,1.29,2.63,1.01,4.06-3.32-1.47-2.25-2.06-2.02-4.06.11-1-.51-2.82.52-3.05ZM108.69,88.99c.18-1.07,2.96-.33,4.07-.51,1.49-.24,5.57-.02,5.08-2.52-.58-2.92-5.79-.24-6.08-.52-.19-.18-.94-4.27-1.02-5.09-.14-1.33.08-2.73.01-4.06.22-.3,2.24,1.64,3.04,2.03.05.02.38-.95.74-.76.17.09.21,1.1.65,1.36.85.5,2.21.35,2.46.61.75.8-.02,2.36.21,2.86.89,1.85,4.06,5.85,2.87,7.92-.41.71-5.65,5.23-6.93,4.26-.23-.17,1.71-3.58-1.02-5.07-2.36,1.94-4.8,3.72-4.07-.5ZM109.73,96.08l2.01-.49c-.3,2.68.73,4.9,2.04,7.11h-4.06c1.11-2.24,1.7-4.42.02-6.62ZM112.75,112.87c1.51,1.92-3.52,3.58-4.05,3.04-1.2-1.22,2.02-4.02,4.05-3.04ZM104.63,60.03h3.04s-.5,5.07-.5,5.07c-.98-.68-3.28-4.38-2.54-5.07ZM102.61,82.38l-1.01-2.54c2.27-3.19,4.79,1.22,1.01,2.54ZM104.62,97.62c-1.24,3.15,6.27,7.38,1.53,9.14-.87.32-.16-2.01-1.1-2.12-2.27-.26-5.46,3.33-6.53-3.47-.3-1.89,4.94-3.11,6.1-3.55ZM101.08,269.34c.58.92,1.78,6.86,1.51,7.1-.29.26-3.06-.15-4.05,0l2.02-1.5c-2.3-2.6-2.22-3.52.52-5.6ZM99.55,207.35v-3.03c.64.04,1.91-.14,2.03,0,.67.77.17,4.4-2.03,3.03ZM97.52,224.64c.64.04,1.91-.14,2.03,0,.67.77.17,4.4-2.03,3.03v-3.03ZM95.99,43.79c1.8.02,1.73,4.04,0,4.02-1.8-.02-1.73-4.04,0-4.02ZM97.52,282.54c-2.5.33-3.97-1.94-1.52-3.03.51-.23.91,2.37,1.52,3.03ZM94.47,63.08h2.02s-.5,3.04-.5,3.04c-1.08-.93-1.85-1.54-1.52-3.04ZM95.48,173.84c.17.13-1.17,3.44-1.52,4.05-3.34-1.72.1-5.16,1.52-4.05ZM88.38,103.72c3.29,3,7.58,6.92,2.03,10.16-.66-3.92-4.09-5.99-2.03-10.16ZM93.45,373l-5.08,3.02c-.21-6.05.83-5.02,5.08-3.02ZM87.36,353.68h4.06s-1.5,6.08-1.5,6.08l-2.55-6.08ZM91.42,347.58c-3.13.61-3.45-.01-3.04-3.04,1.38-.48,1.91.99,2.03,1.01.63.11,1.37-.05,2.03,0v-3.06s4.06,2.55,4.06,2.55c-1.36.64-3.86,2.3-5.08,2.54ZM89.39,214.48h2.02l-.5,4.05c-1.56-1.1-1.77-2.18-1.52-4.05ZM90.92,204.31l.49,5.07c-2.72-.98-2.73-3.49-.49-5.07ZM92.43,254.09l-.99,7.11c-.09-2.84-4.49-2-.02-3.54l-3.04-3.55h4.06ZM88.38,273.9v-1.5c6.44-.58,4.05,7.09,0,1.5ZM90.41,277.47c1.38-.69,2.43,4.63,2.02,5.07h-2.02s0-5.07,0-5.07ZM90.92,195.16c-3.48-1.21-.38-8.04,1.51-6.09.45.46-.42,5.35-1.51,6.09ZM88.38,119.97c-.28-1.81.06-3.56,2.01-4.06.11.8-.79,3.83-1.02,4.06-.14.14-.66-.05-.99,0ZM87.36,222.6c.96-1.09,4.13,2.07,3.04,3.04-1.71,1.53-4.57-1.3-3.04-3.04ZM90.4,249.01c-.12.17-3.78,1.25-4.06,1.01,1.15-7.72,5.86-3.69,4.06-1.01ZM86.34,387.2c3.25-2.66.75-3.59,1.07-4.01.25-.33,1.59.14,1.97-.05.81-.67,1.43-1.09,1.91-1.32.08-.09.14-.16.12-.2l-3.04-3.56c3.5-.82,5.44.7,4.92,4.39-.21,1.5-1.71,2.23-1.88,2.71-.96,2.74-2.1,3.91-1.03,7.11-2-.99-3.01-2.96-5.07-4.06-.45-.24-4.86.06-3.57-2.03,1.25-2.02,3.46-.48,4.58,1.02ZM93.45,426.83v2.02c-.56.55-5.28-1.46-4.05-2.02h4.05ZM66.02,337.42c2.2-.48,2.61,1.73,4.06,3.04.05-1.06,1.65-3.32,1.02-5.08,1.74-.76,2.91,1.96,3.56,1.92.43-.02,1.93-2.24,2.53-2.94,1.27-1.49,2.14-3.14,3.54,0,.47,1.05-.49,1.69-.49,2.03-.02,1.73-.69,10.55-1.2,11.05-.38.37-2.08-.18-2.63.35-.47.45.36,4.09-3.82,3.45-1.98-.31-2.13-3.05-2.5-4.69-1.18-.72-1.45-1.94-2.03-3.05-.14-.26.13-.73,0-1.02-.58-1.28-2.87-2.54-2.03-5.08ZM61.44,373.99l1.54,1.02,2.01-2.02,1.03,4.05c-2.23.34-6.08-.06-4.58-3.04ZM70.08,390.26v2.02h-5.07v-2.02h5.07ZM54.85,386.19h3.04s0,4.05,0,4.05h-1.5c-1.6-1.07-1.77-2.18-1.53-4.05ZM51.8,361.81c2.75-1.52,5.92,4.04,5.07,5.07-2.16,2.61-6.47-1.8-5.07-5.07ZM53.83,350.62c-1.26-.13-3.25-1.59-5.08-1.02l1.03-6.08c1.04.55,5.85,1.84,6.1,2.04.4.33-1.04,1.5-1.02,2.02.63.6,1,1.09,1.17,1.52.88.51,2.07.75,2.89.53v1c-1.66-.1-3.43.18-5.07.01ZM53.82,295.75c-1.02,1.03-4.08-1.98-3.04-3.04,1.02-1.03,4.08,1.98,3.04,3.04ZM54.32,304.9c-2.48.55-3.39-3.53-.99-4.05,2.48-.55,3.39,3.53.99,4.05ZM51.79,309.99v-3.56c.83-1.5,1.05.33,1.51.98,1.54,2.18,2.19,2.22,1.55,5.62h-5.09s.01-4.07.01-4.07l2.02,1.03ZM54.83,334.89c.51,2.93-2.76.71-4.06.49l1.01,4.06c-4.17-.85-2.41-2.51-3.04-4.06-.56-1.37-4.63-4.8-1.5-4.11,2.81.62,5.32,1.89,7.59,3.61ZM58.9,284.57c-2.56.25-3.43-1.62-3.03-4.06.67.49,2.8,1.02,2.9,1.15.43.58.03,2.01.14,2.91ZM58.9,289.65c-1.17,1.12-4.98-2.23-1.51-4.05.77.44,1.89,3.7,1.51,4.05ZM61.95,278.48c1.86,1.66,2.53,1.91,2.03,5.08-2.3.82-2.86-1.93-3.04-4.06-6.09,2.68-5.79-7.11,1.02-1.02ZM65,297.8l6.09,2.05c-2.09,6.62-3.47,1.01-6.09-2.05ZM67.04,322.17c-1.61-1.61,1.43-4.65,3.04-3.04,1.61,1.61-1.43,4.65-3.04,3.04ZM61.95,343.51c3.27,1,4.74,2.03,1.03,4.06.26-1.51-1.93-3.18-2.05-4.06-.14-1.07,1.11-3.34,1.02-5.08-.18-3.31-1.14-6.81-.5-10.17,7.42,1.4,2.58,5.57,1.51,10.17-.08.35,1.82,3.31-1.02,5.08ZM64,321.16l-1.03-3.04h3.04c.66,1.25-1.6,3.53-2.02,3.04ZM67.04,268.32l1.52-5.08c2.49,2.95,3.94,7.19-1.52,5.08ZM67.55,249.02l.49,4.06c-2.47-.93-2.71-2.49-.49-4.06ZM68.04,286.62c1.04.94-2.54,1.16-3.04,3.04,3.35-.74,1.75,2.67,2.02,5.08-1.19.15-1.56-1.79-2.02-2.03-1.46-.77-6.29-.64-3.9-3.94.26-.36,1.74.03,1.86-.13.95-1.21,1.26-5.45,5.07-2.02ZM62.98,204.31c-.86-1.84-.65-7.7,2.51-7.11,3.46.65-1.02,6.84-2.51,7.11ZM61.45,171.78c-1.52,0-1.52-3.01,0-3.01s1.52,3.01,0,3.01ZM59.93,304.9c.56.46,2.81,1.01,2.91,1.13.44.58.02,2.03.12,2.93-2.56-1.07-3.64-.88-3.03-4.06ZM65,411.59c1.66,1.52-3.17,4.07-5.08,3.03.2-1.74,4-4.01,5.08-3.03ZM63.67,368.15c-.9-.57-2.57-.12-2.73-.26-.67-.63,4.62-12.83,4.94-2.65.07,2.16-1.62,3.08,1.15,5.69-2.52.69-2.29-2.09-3.36-2.78ZM76.18,290.66c1.43-2.2-2.15-7.86,2.02-7.1-.18,1.11,1.12,9.18-2.02,7.1ZM77.2,319.13c.07-.07.08-1.58,0-2.03-.19-1.09-2.63-2.68,1-4.06l1.03,4.06c1.14,0,3.46-.48,4.06.5-1.27,2.26-3.41.13-5.08,1.53l.5,2.04c-1.71.29-2.54-.21-3.55-1.53-.09-1.06,1.75-.24,2.03-.5ZM79.23,272.38c-.2-.16,1.49-4.6,3.04-3.03.96.97-1.79,4.05-3.04,3.03ZM77.2,323.2c2.23-.04,5.31-.57,6.09,2.02-3.04.38-6.09,2.24-6.09-2.02ZM79.24,353.67v-4.06s2.02,0,2.02,0c.26,1.9,0,3.52-2.02,4.06ZM68.06,352.66h4.05v2.02h-4.05v-2.02ZM76.18,375.01c-.02-1.69,2.29-3.18-1.02-6.09,10.39-.81,5.38,6.02,5.07,12.18-1.29-.51-3.84-4.06-4.05-5.08-3.23,1.35-4.72,3.08-6.11-1.51l6.11.5ZM77.71,382.13c1.31.6,1.07,4.56.49,5.07-2.15,1.92-4.01-4.15-.49-5.07ZM84.31,397.35l-7.1,1.03v-4.06s7.1,3.03,7.1,3.03ZM83.31,392.79c1.56-2.46,2.71-.89,5.05-.5v1.5c-2.06,2.88-3.17,1.07-5.05-1ZM83.3,400.42c.32-.3,4.72.69,5.07,1.02.14.14-.05.67,0,.99h-5.07s0-2.02,0-2.02ZM84.3,291.69c-3.36-1.31-2.52-3.16-2.01-6.1,2.59.79,2.04,3.86,2.01,6.1ZM83.29,261.2c-1.2,1.2-4.03-2.02-3.03-4.06,1.34.23,3.89,3.2,3.03,4.06ZM81.25,49.87c.11,2.84-2,4.08-3.04,1.03l3.04-1.03ZM81.25,199.22c.87.76,2.6,12.91-2.02,13.22,1.19-5.47-3.74-8.41-4.06-13.21,1.53,1.74,5.82-.24,6.08,0ZM77.19,51.9c.2.2,1.8,5.01-.48,4.06-2.87-1.2-1.47-5.98.48-4.06ZM73.14,115.41c1.45-3.92,5.72.86,4.05,2.52-.44.44-5.35.98-4.05-2.52ZM73.1,203.34c1,1.39-7.41,20.86-7.09.97h3.56s-.51-2.02-.51-2.02c.39-.27,3.92.89,4.04,1.06ZM68.06,108.8h2.02c.31,1.4-.55,2.7-2.02,3.04v-3.04ZM72.11,163.66h-2.02c.09-2.62-1.01-4.72,2.03-4.05v4.05ZM68.06,94.08c1.12-3.14,4.1.52,3.03,1.5-.37.35-3.8.64-3.03-1.5ZM69.88,57.22c2.4,1.38,2.05,6.53,1.21,8.9-2.05,2.02-7.02-12.23-1.21-8.9ZM69.06,97.62c.15.14.07,3.06,1.02,4.06-7.71,1.63-2.78-5.68-1.02-4.06ZM64,140.3h3.03c1.44,7.52-4.63,2.96-3.03,0ZM65,163.68v.99s-5.07,0-5.07,0c.76-2.8,2.92-1.05,5.07-.99ZM61.95,161.63c-1.8,1.94-4.55-4.07-1.52-4.04,1.05.01,2.15,3.36,1.52,4.04ZM49.76,219.07c.58-3.45,6.08,1.17,1.03,3.53.27-1.2-1.18-2.65-1.03-3.53ZM50.78,88.49c4.28.74,9.32-.85,10.16,5.07h-3.06s2.03,5.08,2.03,5.08c-6.19-1.81-7.66-3.9-9.13-10.15ZM56.78,100.76c3.17,2.05-1.06,6.38-2.95,5-1.21-.88-.59-7.28,2.95-5ZM54.85,251.05c.45-.96,3.64,4.47,3.03,5.07-1.61,1.6-4.06-3.17-3.03-5.07ZM57.89,134.2c.1-.25-1.24-5.14.51-5.09,1.63,1.39.64,3.61.51,5.09-.12,1.34.09,2.72-.01,4.06-5.26-2.94-1.36-3.18-1.01-4.06ZM61.94,54.95c.11.8-.79,3.83-1.02,4.06-.14.14-.66-.05-.99,0-.28-1.81.06-3.56,2.01-4.06ZM60.94,85.44c.46.58-1.84,2.62-3.04,2.01l-1.02-3.03,4.06,1.02ZM54.95,77.69c.02-2.01,1.11-3.89-.11-5.95,6.35-2.02,2.73,4.99,2.04,7.6-.41,1.53-.61,2.53,0,4.05-4.1.68-.99-2.75-1.01-4.05,0-.16-.92-.8-.91-1.64ZM49.76,47.84c.11-.06-.5-2.94,1.51-2.02,1.94.88,2.19,4.18.53,5.59l-2.03-2.55-1.99,1.46,3,4.63c-2.44.14-6.16-3.63-6.06-5.6.09-1.85,4.64-1.28,5.06-1.52ZM45.74,106.21c-1.53-5.05,3.29-3.5,4.01-2.48.93,1.32-3.01,5.8-4.01,2.48ZM45.7,62.05c-3.3.34-3.38.26-3.04-3.04l3.04,3.04ZM43.66,81.37v5.07h-1l-1.03-5.07h2.03ZM35.55,42.76c1.03.33,2.07.55,3.04,1.02,2.85,1.37,4.35.55,1.02,4.06.12.64-.17,1.54,0,2.03.04.11.72.59,1.02,1.02.27.13.45.27.58.4.65.34,1.55.75,1.45,1.63-1.25-.17-2.98.29-4.06.01-1.39-.36-.75-1.39-1.02-2.03-.66-1.57-2.75-7.01-2.02-8.13ZM34.53,80.36c3.68-.99,5.31,6.2,2.54,6.07-.94-.04-3.03-5.56-2.54-6.07ZM42.65,115.91c-2.02-2.56-2.19-6.97-3.05-9.14-.21-.52-2.86-1-2.02-3.05.32-.41,1.5,1.1,2.41,1.74.19.07.4.17.63.29,1.58.03,2.91-3.38,1.02,3.04l7.11.02c-1.03,2.03-1.19,3.84-1.02,6.09,1.34-.08,2.72.05,4.06,0,.85.82-3.47,7.84-4.06,0-1.74.11-2.51.35-4.06,1.02l-.52,6.11c-3.56-.07-2.05-5.01-.5-6.11ZM42.65,146.4c.96-1.09,4.13,2.07,3.04,3.04-1.71,1.53-4.57-1.3-3.04-3.04ZM46.71,215.49c-.11,2.35-.85,1.44-1.94,2.89-.27.36,0,4.21-2.12,2.18-.14-.14.02-2.25,0-3.04-.08-2.56-.83-4.73,2.03-4.06-1.99-7.73,2.32-4.22,2.03,2.03ZM46.41,130.95c-3.23-1.13-2.28-2.21-1.73-3.86.69-2.1,1.24-4.31,4.06-4.06.16,1.66-.21,3.43,0,5.08.16,1.27,3.05,4.73-2.33,2.85ZM50.27,133.19l1.51,5.08c-2.2-1.13-3.91-3.8-1.51-5.08ZM49.77,212.44h2.02s0,4.05,0,4.05c-.56,1.23-2.57-3.49-2.02-4.05ZM50.85,252.5c1.07.73,1.29,4.25.94,4.64-1.77,1.98-11.64-6.29-.94-4.64ZM49.85,258.65c1.51.02,9.98,3.06,10.05,4.08.02.27-1.76,3.2-2.62,3.4-.96.23-2.97-.96-4.47-.86-.33.02-.68,0-1.02,0-.14.1-.27.12-.41.16-.84.51-2.17,2.05-4.67-.16-1.31-1.16-1.93-3.34-2.03-5.05,1.94.31,3.49-1.6,5.17-1.57ZM35.54,316.08h5.07v2.02h-5.07v-2.02ZM38.05,363.85c.83.34,2.75,3.89,2.56,4.03-4.52,1.05-7.18-5.93-2.56-4.03ZM39.6,382.13c1.61,1.61-1.43,4.65-3.04,3.04-1.61-1.61,1.43-4.65,3.04-3.04ZM37.57,328.26c-.17-.83-.56-8.59,2.01-6.09,1.29,1.25,1.65,6.92-2.01,6.09ZM36.04,416.69c1.8.02,1.73,4.04,0,4.02-1.8-.02-1.73-4.04,0-4.02ZM30.46,428.85c.61-2.31,3.19-2.12,5.08-2.01-.61,2.31-3.19,2.12-5.08,2.01ZM38.07,438.03c-.89,0-.36-1.94-.51-2.06-.23-.19-5.08-.55-5.06-2.54.03-3.19,3.71.65,5.06,1.52,1.21.78,6.23,3.11.51,3.08ZM40.62,380.09c-1.26-.37-3.12-2.08-3.08-3.56,0-.35,3.45-.44,1.05-5.59,1.93.23,1.55,2.04,2.02,3.05.86,1.83,1.75,3.52,2.05,5.58.06.85-1.5.68-2.05.52ZM43.67,343.51c-1.68.32-3.29,1.19-5.08,1.01.02-3.48,5.47-3.92,7.11-1.01.72,1.27,1.88,6.14.5,6.11-3.13-.23-2.64-3.75-2.53-6.11ZM45.7,452.22c.01-2.01-.69-3.53,1.51-3.03l2.55,3.03h-4.06ZM52.53,373.25c-2.92,1.29-5.82-1.61-5.81-4.33,0-1.32.53-2.81,2.02-3.05v4.06c1.68.43,8.61,1.19,3.79,3.32ZM59.92,427.84h-2.02v-3.04h2.02v3.04ZM55.86,421.75c-1.39-2.08-2.09-6.07,1.01-5.08.2.95-.26,3.78,0,4.06.11.11,1.96-.24,3.01.51,3.69,2.62-1.69,4.01-4.03.51ZM63.48,431.89l-2.54-3.02c2.91-.39,5.32,1.1,2.54,3.02ZM65,458.32h-2.02s0-5.07,0-5.07c1.38-.69,2.43,4.63,2.02,5.07ZM62.98,467.48c.58-.58,3.02.85,3.02,1.52,0,2.81-4.56.02-3.02-1.52ZM61.96,460.36c.63-.63,4.04.47,4.04,1.52,0,3.94-6.67,1.11-4.04-1.52ZM66.01,422.76c-1.99.34-.45-2.38-1.05-2.98-.23-.24-8.55-.2-2.74-2.36,1.6-.6,3.22.31,4.82.27l-1.03,5.07ZM67.54,403.44c-.52-.97-3.54-5.25-3.53-5.58.02-.54,1.99-1.26,2.64-1.89.56-.55,2.65-4.55,3.42-1.13.25,1.11-1.69,8.67-2.54,8.6ZM71.1,386.19c-.32-3.68-.6-1.19-3.3-1.99-.96-.28-1.25-2.14-1.78-3.08,1.18.36,5.54.8,5.97,1.17.59.52-.11,2.32.13,2.89.63,1.55,2.47,2.97,2.02,5.08-3.54-1.19-2.79-1.14-3.04-4.06ZM80.24,420.72c-2.97.16-5.35-1.69-8.12.01-1.7-5.24,6.12-3.06,8.12-.01ZM76.17,445.12h-3.03c-1.36-2.19,2.27-2.7,3.03-2.03.13.12-.05,1.38,0,2.03ZM81.25,454.26h-.99c-1.08-2.69-4.85-4.28.99-4.06v4.06ZM80.26,436.99c-.26-.17-1.43-5.55-1.02-6.09,7.93.68,4.6,8.39,1.02,6.09ZM92.44,473.57c-1.16.44-2.04,1.73-4.06,1.01-.55-3.72,1.93-1.57,4.06-1.01,1.77-.68,2.62-2.36,4.06,1.01-1.66.48-2.8-.67-4.06-1.01ZM97.55,465.92c.46.38,2.17,3.46,2,3.58-3.5,2.52-5.8-6.67-2-3.58ZM94.47,335.38c-3.06-1.19-5.94-3.82-4.96-7.47.32-1.21,1.57-1.27,1.91-1.67,1.27-1.5-.38-2.82,0-5.08,4.19-.04,2.49,3.09,2.03,6.09,1.43.91,1.52,1.98,2.36,2.69,1.82,1.54,1.99-.6,3.73,3.4.4.92.48,2.12,1.02,3.04-2.74.59-4.02-.2-6.1-1.01ZM90.41,295.76c5.45,2.56,2.97,4.4,3.04,7.11.05,1.81,1.73,2.75,1.8,4.4.15,3.87-5.71,4.81-5.73-1.91,0-.56,2.87-1.24,2.92-2.48l-2.02-7.11ZM95.49,292.71l-.02,4.06c-4.74-.82-2.76-5.25-4.1-8.41-.51-1.21-2.82-.04-1.99-2.76,2.59-1.97,9.4,6.1,11.17,8.11l-5.07-1.01ZM102.59,310.99c-.12.13-1.38-.05-2.02,0v-5.07c1.93,0,2.62,4.4,2.02,5.08ZM104.13,294.74c.51-.23.91,2.37,1.52,3.03-2.5.33-3.97-1.94-1.52-3.03ZM103.62,280.51v-3.04c1.47.34,2.33,1.64,2.02,3.04h-2.02ZM105.63,312.02l2.02,4.57c-.5,1.86-3.8.8-4.05.5-.17-.21.65-5.28,2.02-5.07ZM103.62,422.77h2.02v4.05h-2.02v-4.05ZM103.62,433.94l1.02-4.06h1.5c3.16,2.3.74,4.57-2.52,4.06ZM107.67,351.64l-3.04-3.04c1.85-.34,3.37,1.12,3.04,3.04ZM111.23,280.54c1.02,0,2.15,3.32,1.52,4.04-1.79,2.04-4.03-4.04-1.52-4.04ZM110.74,309.98c2.02.54,2.28,2.16,2.02,4.06h-2.02v-4.06ZM116.82,423.77h-4.06c.54-2.02,2.16-2.28,4.06-2.02v2.02ZM116.81,354.69c-.79-.66-5.26-2.11-5.07-2.53,1.45-3.18,6.2-1.31,5.07,2.53ZM117.85,384.65c-.63-1.55,2.91-1.7,3.03-1.51.9,1.53-1.86,4.37-3.03,1.51ZM118.85,464.41l3.04-3.04c.34,1.92-1.18,3.38-3.04,3.04ZM122.92,461.38c1.02-1.03,4.08,1.98,3.04,3.04-1.02,1.03-4.08-1.98-3.04-3.04ZM126.98,470.51h-3.04v-2.02h3.04v2.02ZM127.51,429.86c-1.29-.36-4.06-2.58-4.59-4.04,1.13.5,5.88.8,6.1,1.01.13.12.86,3.69-1.51,3.03ZM133.07,344.55c.59.49-.32,2.97,5.09,2.51-.22,2.98-4.8,3.29-5.03,3.62-.16.22,2.38,4.33-2.07,4,1.3-1.61-1.43-13.03,2.01-10.14ZM137.17,291.7c2.78.19,1.44,4.74.99,5.06-.8.57-2.65-.65-3.03-1.53-.77-1.77,2.61-1.49,2.04-3.53ZM130.04,366.88l-2.04-6.09,6.1,1.02c.37,2.52-1.25,5.18-4.06,5.08ZM131.04,296.77c-.13.28-3.99-2.92-3.03-4.06.1-.12,2.83.99,2.92,1.12.43.56,0,2.05.1,2.94ZM127.99,352.66l-.5,4.06-2.54-2.55c-.49-2.2,1.02-1.5,3.03-1.51ZM133.09,431.91c-.34-1.85,1.12-3.37,3.04-3.04l-3.04,3.04ZM139.72,423.83c-1.52,2.51-6.87-3.11-5.64,2.99-1.56.28-.94-1.7-2.08-2.51-1.01-.73-2.83-.39-2.99-.54-3.64-3.31,5.09-.86,5.44-.92.36-.06,3.29-5.56,5.73-3.13.29.29.06,3.24-.46,4.11ZM138.18,389.22l-2.05-4.05c.99.15,3.77-.26,4.05,0,.63.58-.21,4.03-2.01,4.05ZM141.2,290.67h-2.02v-4.05h2.02v4.05ZM140.2,280.52c1.02-1.03,4.08,1.98,3.04,3.04-1.02,1.03-4.08-1.98-3.04-3.04ZM145.8,277.46c-3.14-1.12.52-4.1,1.5-3.03.35.37.64,3.8-1.5,3.03ZM148.31,340.47l-.5,3.04c-1.08-.93-1.85-1.54-1.52-3.04h2.02ZM149.33,350.61c-2.45.54-4.97,2.2-6.09-.99,2.29.37,5.24-2.04,6.09.99ZM146.79,365.85c-6.41,1.76-1.91-12.1,2.54-5.09-4.13-.79.64,4.21-2.54,5.09ZM144.27,462.91c.78-2.18,2.36-.78,4.05-.51,1.01.86-5.18,3.7-4.05.51ZM148.32,425.8c-4.74.23-2.12-4.28,0-3.03.13.08-1.1,1.9,0,3.03ZM145.27,385.17c-.23.28.25,1.81,0,2.03-.77.67-2.79-2.6-2.01-4.07.75-.27.89,1.03,1,1.02,1.01-.09,3.78-2.34,4.05-2.03,1.85,2.13-2.47,2.36-3.04,3.05ZM147.82,377.05c-2.35-2.16,1.54-2.04,1.57-2.56.1-2.31-1.65-3.08-1.93-4.3-.21-.94.84-1.16.86-1.27.15-.73,1.14-4.08,1.52-4.07,1.17.65.24,2.93.51,4.07.5,2.14,2.16,4.83,2.02,5.06-.14.24-3.86,2.35-4.55,3.08ZM165.59,294.74c.03,2.01-.43,4.73-2.03,6.09-3.72,3.17-7.46-1.35,0-1.02-.07-2.25-4.07-1.58-4.07-2.54l6.1-2.53ZM160.51,283.57c2.44-.4,4.31.47,4.06,3.03-3.16.59-3-.49-4.06-3.03ZM152.39,293.72l2.02-4.58c1.6-1.53.73.96,1.16,1.32.43.36,2.79-1.25,3.92-.8-.04,3.89-3.88,4.46-7.1,4.05ZM155.92,284.57c-1.92.74-2.02-3.52-4.55-3.06-.1-1.84,5.56-2.37,6.06-1.98,1.36,1.05.38,4.32-1.51,5.05ZM153.4,346.55h-2.02s0-4.05,0-4.05c.56-1.23,2.57,3.49,2.02,4.05ZM152.66,302.15c-.69.4.33,2.16-1.28,1.73l1.02-7.1c.7.11,3.27,4.88,3.04,5.06-.2.16-1.77-.28-2.77.31ZM156.46,337.94c1.12-3.14,4.1.52,3.03,1.5-.37.35-3.8.64-3.03-1.5ZM160.51,430.9l1.02,3.03h-4.06c-.33-1.85,1.12-3.36,3.04-3.03ZM162.54,453.24c-1.74,1.53-4.56-1.33-3.04-3.04.97-1.09,4.13,2.08,3.04,3.04ZM164.58,427.84c-1.26,1.09-1.23,3.02-4.39,2.08-3.3-.99.6-8.11,4.39-3.09.17-.17,1.57.31,1.95-.11.21-.22-2.03-6.2.59-5.97,2.49.22,3.17,7.16.55,8.63-1.76.99-3.61,1.3-3.09-1.53ZM168.64,304.4c.48-.88,2.2-2.11,3.04-1.52.93.65,1.21,4.88-2.03,4.05,2.2-2.71-1.39-1.83-1.01-2.53ZM170.17,413.62l.49,5.08c-2.72-.98-2.73-3.49-.49-5.08ZM168.63,472.55h-3.03c-1.36-2.19,2.27-2.7,3.03-2.03.13.12-.05,1.38,0,2.03ZM169.66,464.42c-.13.2.22,3.96-2.03,2.02-.16-.14,1.46-2.96,1.02-4.05-1.97-2.89-.99-3.93-2.03-7.1,3.41-.25,5.3-.43,6.71,2.99.75,1.81-2.67,4.67-3.66,6.15ZM173.72,409.55c-1.91,2.03-3.51-3.49-2.01-5.07,1.03-1.09,2.55,4.5,2.01,5.07ZM170.68,399.39c-1.53-1.71,1.3-4.57,3.04-3.04,1.09.96-2.07,4.13-3.04,3.04ZM174.73,367.9c-1.95-.5-2.29-2.25-2.01-4.06.49-1.05,2.43,2.74,2.01,4.06ZM178.8,374c1.25-1.01,4,2.06,3.04,3.03-1.55,1.57-3.25-2.87-3.04-3.03ZM181.86,425.3c.28-.94,3.65-.64,3.95-.41,2.61,1.98-.44,6.25-3.95.41ZM193.03,323.18l-5.09.02.02-5.08,5.07,5.07ZM192.01,317.1c1.89-.1,4.47-.3,5.08,2.01-1.89.1-4.47.3-5.08-2.01ZM189.98,471.52l4.05-4.05c1.41,3.86-.35,5.43-4.05,4.05ZM193.55,355.69c-3.68-1.4-.26-4.8,1.5-3.03.3.3.65,3.86-1.5,3.03ZM200.14,453.25c-.08,1.01.07,2.04-.01,3.05-1.6-.25-1.82-1.69-2.02-3.05-.28-1.86.19-4.15.01-6.1l5.07,3.56c-2.82,1.17-2.8-.6-3.04,2.54ZM205.22,463.4c-1.53,1.54-8.57-1.31,0-3.04-.1.82.21,2.84,0,3.04ZM205.24,446.64c0-1.02,3.32-2.15,4.04-1.52,2.04,1.79-4.04,4.03-4.04,1.52ZM210.31,370.95h3.04s0,3.04,0,3.04c-1.95-1.06-3.69-.57-3.03-3.04ZM212.33,423.77c1.07-2.56.88-3.64,4.06-3.03-.31,1.34-3,3.85-4.06,3.03ZM219.45,457.82l3.54-3.56,3.57,4.06-7.1-.5ZM224.52,388.21c-6.1,1.13-3.17-5.81-1.03-4.05.16.13,1.27,3.84,1.03,4.05ZM226.55,424.81v.99c-3.09,2.69-7.87-3.69,0-.99ZM227.58,431.9c-7.54.34-5.54-3.99,1-3.03-.33,2.04-3.14-.08-1,3.03ZM229.61,413.63l3.04-1.03v3.04c-1.25.66-3.53-1.6-3.04-2.02ZM229.62,386.19c1.03.73,3.19.71,3.78,1.28.68.67,1.75,4.03-.23,4.79l-3.55-6.08ZM237.73,442.07c-2.21,2.17-2.7-.8-4.06,3.05,1.61.94,3.42,2.04,3.04,4.06-2.26.52-2.87-1.69-4.06-3.04-.53-.6-2.08-.96-1.99-1.49.04-.25,1.8-4.46,2-4.61,1.24-.92,3.34,2.66,5.07,2.03v-5.08s1.01,0,1.01,0c.05,2.08.56,3.54-1.01,5.08ZM238.25,378.06c.51-.23.91,2.37,1.52,3.03-2.5.33-3.97-1.94-1.52-3.03ZM240.79,357.73c.07-.13,2.96-.13,3.03,0,.27.48-.13,2.17,0,3.05h-3.04c.14-.88-.26-2.57,0-3.05ZM264.15,436.98h-5.08c0-1.93,4.4-2.62,5.08-2.02.14.12-.05,1.38,0,2.02ZM271.26,375.02c.49.41-1.79,2.67-3.04,2.02v-3.04s3.04,1.03,3.04,1.03ZM270.74,366.89c1.31.5,2.16,3.38,1.53,4.05-1.92,2.06-5.06-5.39-1.53-4.05ZM270.71,379.14c.35,0,1.02-5.24,4.62.94-5.25.46-6.25,6.48-8.12-2.02,1.22-.22,2.57,1.09,3.5,1.08ZM283.45,426.82l-1.02,12.2c-2.55-1.62-4.42-.11-7.1-.01.19-2.77,4.8-2.79,5.09-3.05.18-.16-1.25-2.85-1.16-4.6.1-1.89,1.83-1.38,1.98-1.7.73-1.47-3.27-3.44,2.2-2.84ZM280.42,418.7c.93.99,4.9,1.83,5.07,2.05,1.99,2.64-8.24,6.25-5.07-2.05ZM277.87,443.08c1.48,0,1.56,6.71,1.52,8.14-.08,3.15,0,6.75-2.54,9.12l-.56-7.38,2.09-1.75c-1.09-3.01-3.29-5.16-.51-8.14ZM266.71,401.44c2.37-.99,2.66,6.9,2.52,8.12.54.81,2.29,3.71,2.03,4.05-.52.69-5.36.78-6.09,0-2.67-2.85,3.58.26,4.06-4.05-.81-1.2-6.65-6.4-2.52-8.12ZM275.83,394.31c-.24-1.45-2.23-2.47-2.53-3.04-.65-1.22-.3-5.11.52-5.09,3.91.69,1.66,2.58.5,5.09,2.68.17,3.92,1.44,1.52,3.04ZM274.31,398.38c2.42,8.53-3.46,7.08-1.02,1.02l-3.05-4.05c5.78-.55,3.31.38,4.06,3.04ZM269.23,438.01c.07-1.35-.06-2.72.01-4.06,2.26.7,2.39,2.33,1.01,4.06-.33,2.2,1.72,2.34,3.05,3.56.1,1.06-1.85.25-2.03.5-.05.16-.11.25-.16.35-.39,1.43,1.95,3.47-1.87,3.71-.32,1.98,1.27,4.77-2.03,4.06l-2.03-4.05c1.34-.08,2.72.07,4.06-.01.18-1.14,1.03-3.86,1.02-4.06-.07-.93-1.18-.68-1.02-4.06ZM273.29,463.42c-.78,2.86-2.88.94-5.08.99.98-2.98,2.82-1.41,5.08-.99ZM265.22,426.31c-.02-.23.93-.35.96-.5.2-1.12.64-3,1.02-4.06.42-1.2.19-2.82,2.02-3.05.69,1.8-.73,3.01-1.01,4.06-.25.95.33,2.34-1.02,3.05,3.6,3.66,5.88-1.54,10.15,1.03l-3.07,4.05c-1.68-2.17-8.88-2.05-9.06-4.58ZM278.38,418.7c-.11,1.34.09,2.72,0,4.06-.99.39-1.91-1.01-2.02-1.01-1.03,0-3.67,1.37-4.06,1.02-.1-.09-1.01-2.41-1-2.55.01-.49,5.55-3.35,6.58-3.57,3.22-.69.53,1.9.52,2.05ZM278.37,352.65c-1.78.57-2.13-.47-3.04-1.01-.82-.48-2.01-.88-2.03-2.02,1.18.2,3.15-.33,4.06-.01,1.59.56.99,1.39,1.01,3.04ZM267.2,389.23c1.43.41,2.37,1.58,2.03,3.04h-3.04c.46-1.02.8-1.93,1.02-3.04-.78-.23-2.1.16-3.04-.01l1.27-1.01.77-3.04c2.39.22,1.22,2.91,1.01,4.06ZM266.7,452.23c.96.2.27,1.65.87,2.68.25.43,1.48.35,1.65,1.09.25,1.07-.98,2.86.01,4.35-5.79-1.22-6.2-3.59-2.53-8.11ZM269.23,476.62c-.1.87-.19,4.09-.52,4.07-3.91-.17-1.63-2.98-1.51-4.07.19-1.8.83-10.11,2.54-10.14.18,0,3.32,1.15,2.54,2.51-.61,1.05-2.44,1.12-2.88,1.75-.17.24-.02,4.51-.17,5.88ZM271.27,473.05c-.11-.37,5.08-5.06,6.09-.51-1.62-.82-5.22,3.47-6.09.51ZM278.38,470.51c-.84-.94-.28-6.03,2.9-3.92,3.29,2.18-2.05,4.87-2.9,3.92ZM278.38,463.4c.52-.69,2.29-4.15,2.54-4.05,3.19,1.32.76,5.05-2.54,4.05ZM281.93,440.06c2.43-.14.63,6.02.5,7.09-2.44-.32-2.63-6.97-.5-7.09ZM284.98,449.2c.84,1.42,5.05,2.58,4.57,4.54-.14.56-5.26,3.55-5.59,3.54-2.19-.05.2-8.12,1.02-8.08ZM288.54,409.57c3.13-.61,4.06,1.51,5.08,4.04-.84.83-4.6-3.18-5.08-4.04ZM293.61,450.19c-4.18-.32-3.56-2.85-.5-5.07l.5,5.07ZM291.58,420.73c.9,1.53-1.86,4.37-3.03,1.51-.63-1.55,2.91-1.7,3.03-1.51ZM291.58,472.55c-1.55-.84-2.11-1.67-4.05-2.03.14,1.15.65,2,1.02,3.04-1.94.41-2.74-1.3-4.06-2.54.12-.87,2.39-.63,3.04-.5-.16-1.3.18-2.78,0-4.06-.05-.37-2.3-2.21-.5-3.06l3.54,1.04-2.03,2.02c1.28,2.1,3.61,3.28,3.04,6.1ZM285.51,458.83c2.56-.76,3.89-3.24,6.45-2.59,1.23.31,1.21,2.87,1.66,3.1,1.87.95,4.12-2.12,2.02,3.04h-.99s-1.03-2.03-1.03-2.03c-2.88.58-5.98,1.01-8.11-1.52ZM293.62,468.48c-.59-3.16.49-3,3.03-4.06.4,2.44-.47,4.31-3.03,4.06ZM306.82,483.72l-2.04-6.09-2.02,4.07c-2.37.42-4.87-1.37-5.67-3.56-.69-1.87,1.48-11.44,4.66-8.63.39.35-1.29,2.56-.57,4.05,1.61,3.31,8.24,1.4,5.64,10.16ZM301.75,453.25c.76-.53.8-.86,2.03-1.02.66-.08,1.37.02,2.03,0-.95,1.09-.72,3.55-1.02,4.05-.62,1.07-2.87,2.4-4.05,3.05.18-3.37-1.9-4.09,1.01-6.1ZM306.83,450.19l-5.07,1.02c-1.41-1.81,5.51-6.59,5.07-1.02ZM312.92,418.71h3.04s0,3.03,0,3.03c-2.48.66-1.99-1.08-3.04-3.03ZM317.51,474.57c-1.62-4.08-4.73-8.11,1.5-8.11-.7,1.75,1.7,8.17-1.5,8.11ZM327.15,410.57c1.06-3.43,3.73,1.36,2.03,3.05-.3.3-.09,1.58-2.03,1.01.2-1.21-.31-3.07,0-4.06ZM330.19,418.69h-3.04v-2.02h3.04v2.02ZM327.15,396.36c1.89-.27,3.52,0,4.06,2.01-1.89.27-3.52,0-4.06-2.01ZM340.35,463.41l1.02,7.1c-1.46,1.44-9.96-6.99-1.02-7.1ZM337.3,457.31h5.08c.28,3.11-2.56,3.31-5.07,3.04v-3.04ZM342.38,483.73l-3.54-2.04-1.53,2.04v-5.08c1.12,1.02,4.81.87,5.01,1.08.38.39-.1,2.97.05,4ZM339.85,450.22c.27,0,2.11,2.46,3.56,2.03-4.57,7.71-6.58-2.12-3.56-2.03ZM344.42,446.13c-.05,1.69.05,3.39-.01,5.08-6.53-1.96-1.45-3.8-1.01-5.08,1.22-3.54-3.91-5.57-7.1-3.05-1.35-2.71,2.08-3.22,2.06-3.56-.1-1.63-2.04-2.45-1.95-3.93.07-1.26,1.63-2.03,1.91-2.67-.03-.32,0-.58.06-.8-.08-.97-.41-2.27.46-2.26,2.2.03,2.16,1.47,2.53,3.06.2.85-.13,2.09,0,3.05.07.05-.24,1.35.33,1.73.87.57,2.51-.1,2.78.88.35,1.23-.01,5.71-.07,7.55ZM339.35,426.32l4.05-.5v2.02c-1.87.25-2.96.04-4.05-1.52ZM343.41,424.79v-3.04h2.02v3.04h-2.02ZM350.01,476.63c-.57,0-.65-4.49-2.54-6.11-.26-.22-1.81.26-2.03,0-1.12-1.31.09-3.53,3.05,0,1.47,1.76,3.44,2.85,1.52,6.11ZM350.51,429.88c.31,1.4-.55,2.7-2.02,3.04v-3.04s2.02,0,2.02,0ZM350.01,413.64c1.8.02,1.73,4.04,0,4.02-1.8-.02-1.73-4.04,0-4.02ZM352.55,437c1.1,1.27-1.35,5.23-3.03,4.05-.28-.2-3.31-5.84-3.06-6.09,1.05.62,5.88,1.8,6.09,2.04ZM352.54,444.12c2.55,3.09-6.33,1.92-6.09-2.04.61-.49,5.88,1.79,6.09,2.04ZM348.49,452.22c-.98-2.03,1.81-5.25,3.04-4.05.55.53-1.12,5.56-3.04,4.05ZM351.54,471.53c-.35-.37-.64-3.8,1.5-3.03,3.14,1.12-.52,4.1-1.5,3.03ZM355.09,386.18c-5.04-6.29-11.97-11.72-15.66-18.67l-3.14-.63c-.74.72,1.99,8.67,2.66,10.07,1.91,3.99,4.06,7.15,6.26,11.99.58,1.28,5.63,5.59,1.73,6.38-1.31.27-16.01-16.71-18.32-19.26-.76-.84-1.44-1.92-1.49-3.08l-3.02,8.11c-1.24-2.71,0-8.06-.63-10.19-.22-.76-5.1-8.5-6.07-10.04-5.25-8.36-12.1-15.41-17.7-22.95-2.21-2.97-4.84-8.24-6.81-10.44-1.23-1.38-.87-1.6-3.35-1.24,2.13,4.77,3.83,9.54,5.21,14.6,8.05,29.68,13.86,61.91,16.2,92.51.3,3.86,3.83,10.21-1.08,13.8-1.03-3.94-3.37-7.24-4.65-11.11-5.18-15.73-9.89-32.5-14.09-47.8-.72-2.64-4.86-18.26-5.66-18.83-.73-.52-2.11-.45-3.05-.5,2.4-1.14,1.49-10.58,1.02-11.17-.23-.29-3.22,1.7-4.06-.51,5.67-2.98.39-7.49-.57-11.62-1.56-6.67-4.07-12.03-5.26-17.09-1.39-5.91-.36-13.54-3.33-19.55-5.63,4.21-1.32,12.89-1.53,17.39-.13,2.84-2.09,6.56-2.42,9.63-.62,5.69.29,15.86-.38,20.08-.21,1.34-2.39,2.74-2.66,4.44-.29,1.81,1.35,2.75,1.42,4.4.48,10.65-5.86,30.67-6.48,42.04-.13,2.33,1.8,7.15,1.75,9.26-.01.47-1.6.4-1.8,1.22-2.05,8.25-3.16,20.23-4.6,28.75-.93,5.56-.88,11.59-1.55,15.53-.11.68-1.76.56-2,1.43-1.37,5-2.39,11.67-3.12,16.91-1.7,3.72-5.56-3.87-5.77-6.12-.26-2.72,1.53-7.04,1.7-10.04.3-5.42-.33-12.05.07-17.11.59-7.54,3.98-6.63-.05-15.4-.13-.29,2.04-.33,2.58-5.27.95-8.59-1.64-21.3-.59-28.08.12-.79,1.92-.2,2.16-2.12,1.31-10.38.59-23.54,1.32-34.45.48-7.14,1.92-14.43,2.46-21.55l-1.83-.97c2.46-1.5,4.34-15.67,3.6-16.79-.52-.78-1.9-1.45-2.57-.99-.44.3-4.78,7.93-5.51,9.23-2.5,4.46-6.48,11.49-8.63,15.95-1.67,3.45-.34,6.96-4.67,10.42-.98.78-2.7.69-3.33,1.22-1.05.89-.19,2.75-.89,3.82-.94,1.45-8.48,7.57-8.47,3.55,2.74-2.45,2.33-6.42,3.56-9.63,1.73-4.54,8.87-17.01,8.63-20.84-.06-.89-1.84-.68-2.03-.51-.35.3-3.48,6.44-4.67,8.04-4.32,5.78-18.99,26.72-23.82,29.02-1.32.63-2.64.61-4.04.52-1.21-.9,13.96-23.14,12.2-27.42l2.01,2.02c-1.29-4.5,3.39-5.69,4.54-8.16,3.55-7.61,4.89-11.28,9.72-18.73,1.8-2.77,7.44-10.89,0-6.95-4.76,2.52-8.89,8.72-12,10.45-1.72.95-5.86.94-7.35,2.55-1.17,1.27-1.11,5.55-2.51,5.59-.34,0-1.49-1.4-2.39-1.48-2.28-.18-5.19,1.37-7.26-.02,5.8-5.01,10.3-11.48,15.7-16.82,4.26-4.21,9.08-8.02,13.73-12.69,2-2,5.12-3.42,6.7-5.49,3.23-4.24,1.37-5.33-2.95-2.95-9.05,4.98-17.63,11.07-26.37,15.03-.65.3-.73,1.86-.86,1.91-.59.23-2.59-1.17-4.26-.87-.92.16-9.53,6.97-11.09,7.89-1.5.88-5.91.5-8.13,1.36-.91.35-.77,2.05-1.25,1.97-.74-.12-3.95-2.19-3.58-3.56.13-.49,6.67-5.72,7.7-6.58,3.52-2.95,6.87-5.65,11.97-7.29l14.87-11.53c-3.39-3.99-6.81-.11-9.73.41-6.22,1.11-12.83,1.41-19.02,2.5-1.73.31-6.81,3.94-8.83.65,10.12-5.02,20.58-9.13,31.24-12.96,3.41-1.23,4.48-1.39,8.14-3.04,2.04-.92,6.08-.15,5.31-3.32-3.88.02-7.78-.05-11.67,0-22.25.32-47.49-1.69-68.98-5.21-2.8-.46-19.55-3.62-9.68-5.44,7.83-1.45,13.84.16,20.71-.05,14.71-.45,29.83-2.14,44.22-2.51v-2.03c-22.3-.67-45.4-1.63-66.6-4-2.97-.33-18.65-.57-19.77-2.11-.1-.14,1.04-2.9,1.71-3.07,5.61-1.48,16.41.86,22.23.09,24.15-3.18,57.35-2.48,82.26-2.09,3.55.06,7.11-.01,10.66,0-2.88-5.2-9.04-6.21-13.89-8.96-10.84-6.13-18.6-9.88-28.78-17.45-.78.26-1.4.41-1.9.47.16.55,1.01,1.4.88,2.05-.58,2.99-4.56.37-2.03-3.53-.11-.08.06-1.49-1.09-2.47-1.85-1.59-3.45.07-3.99-5.64.52-.41,11.1,2.95,12.76,3.48,11.69,3.7,24.51,10.5,35.99,15.54,8.08,3.55,15.93,7.85,24.41,10.44,2.87-2.71-16.36-12.41-17.52-13.24-13.66-9.79-39.86-31.83-50.48-44.48-1.52-1.81-2.73-3.89-4.14-5.79,4.92-1.08,9.19,3.43,12.92,5.37,10.76,5.59,22.64,12.57,32.72,19.1,3.43,2.23,8.37,7.53,11.93,9.48,2.22,1.22,4.05.16,4.25.29.35.22,3.47,4.9,5.22,6.42.98.85,9.78,8.12,10.16,7.61.23-1.75-.13-3.19-.78-4.8-2.96-7.28-13.63-19.6-18.36-27.37-3.66-6-22.59-38.23-23.44-41.66-.4-1.62.64-4.24-.79-7.2-.98-2.04-3.79-1.59-3.36-4.32.44-.39,8.53,2.99,8.87,3.31.43.41,2.83,5.52,4.36,7.32,11.26,13.26,21.36,24.47,31.6,38.49,3.17,4.33,10.62,17.03,13.41,19.63.43.4,2.62,1.48,2.71,1.35.29-8.11-6.95-15.31-7.1-23.37,0-.33-.03-.69,0-1.02-2.54-.14-3.76-1.92-4.6-4.04-.3-.77-2.46-8.25-2.49-8.7-.55-8.53-4.2-14.71-6.38-24.08-.8-3.42-3.23-6.35-1.76-9.9l6.92,8.81c2.17,3.3,3.69,11.03,8.3,8.46-.03,3.27-.24,6.62.86,9.78.45,1.29,1.69,1.42,1.82,1.74,4.45,10.4,8.51,21.43,13.22,32.03.44,1,1.11,3.3,2.39,3.18-2.42-18.48-8.12-36.65-10.14-55.38,1.43-5.3-2.11-14.78-.9-19.16.17-.6,1.22-2.12,1.9-1.16.9.82,1.74,1.71,2.25,2.84,6.5,14.39,8.97,31.31,14.77,45.23.62,1.5-.62,2.77,2.28,2.23-2.09-6.31.31-10.74.79-16.06.91-10.05.46-24.85,2.61-34.08,1.12-4.79,5.46-6.96,3.47-14.13-.41-1.48-2.52-2.99-2.44-4.28.02-.25,1.51-4.44,1.68-4.62.28-.29,4.91,3.12,4.05-1l1.52-4.07c1.22.05.42,3.53-.51,4.07l2.56,113.79,5.99-8.21c8.81-15.37,18.02-30.55,27.54-45.71l-.52-6.03c5.95,3.13,5.57-2.91,7.72-6.03.98-1.43,4.8-4.76,5.9-6.21,2.51-3.29.09-3.5,5.68-7.07.34-.22.77-1.85,1.55-2.01,2.85-.56,3.65,4.15-.53,4.04-2.92,9.33-6.83,18.42-10.66,27.44-4.73,11.14-9.78,23.8-15.36,35.44-2.44,5.09-6.88,9.42-7.5,15.35.54.55,10.74-4.82,12.11-5.66,1.71-1.05,1.94-3.13,3.18-3.94,14.57-9.52,31.51-17.75,47.19-26.98,2.26-1.33,3.98-5.68,7.6-1.53.09,1.6-9.36,9.92-11.67,10.66-4.33,5.72-14.04,10.13-18.53,14.55-.37.37-3.08,5.4-4.62,6.52-1.47,1.08-4.28.28-4.84.81-1.79,1.71-5.19,8.22-7.52,10.68-2.63,2.78-18.74,13.4-15.78,17.23,2.63,1.01,1.72-1.72,2.5-1.82,1.95-.26,5.4.62,7.67.3,14.77-2.06,27.41-4.15,42.15-4.67,1.9-.07,3.89,1.2,5,1.14.29-.01.2-1.35,4.65-2.05.12-4.72,1.64-4.32,3.05,0,6.37-1.14,6.39-1.08,12.68-1.05,1.64,0,7.48-2.56,6.61.52-1.47,5.22-6.01,3.7-9.37,4.86-3.17,1.09-6.42,2.87-9.69,3.62-1.58.36-3.2-.68-3.85-.55-1.49.29-.33,4.12-5.51,1.75l3.05,9.13-6.09,1.02c-.35-1.47.04-8.91-1.66-9.2-3.52.75-7.5,1.72-10.76,3.19-4.36,1.98-12.03,1.81-18.32,3.03-4.16.81-11.11,3.12-15.96,4.41-1.11.3-6.2-1.23-6.12,1.11.07,1.98,12.41,1.61,15.45,2.62,5,1.67,9.54,1.52,15.26,3.22,11.63,3.46,22.08,6.19,33.63,8.97.52.13,5.07,3.5,8.44,3.69,2.06.12,4.24-1.68,4.98-1.59.8.09,1.05,2.02,1.79,2.56,1.05.76,3.13.35,3.66,1.98.32.98-1.11,5.56.07,7.5-4.33-5.55-4.28-3.79-9.63-4.59-1.54-.23-3.31-2.54-5.44-1.32-.75.43-.67,3.69-3.21,2.86-.15-.95.21-2.22,0-3.04-11.85,3.24-18.72-4.34-27.97-4.68-.9-.03-2.04,1.22-2.96,1.15-1.84-.14-8.41-1.9-8.7-1.56-.46.55.98,3.38-1.01,3.05-.2-4.28-3.77-2.44-6.33-3.33-2.79-.98-4.86-1.91-7.91-2.76-.9,2.4-2.51.15-3.05,0-2.69-.76-8.32-2.46-5.87,1.83.47.82,6.3,2.79,7.86,3.79,3.98,2.57,5.43,7.23,12.24,5.55-2.28,4.59,5.62,6.46,8.89,8.83,2.39,1.74,8.75,8.01,10.95,8.43.4.08,1.03-1.44,1.5-2.02-.45-2.2-1.56-5.95.49-5.07,3.79,1.61.49,3.87-.49,5.07,1.54,7.49,1.59,3.56,5.05,5.59.96.57,1.84,3.52,2.57,3.53,1.12.02.86-4.15,3.55-3.02-1.53,3.94.29,8.86,5.08,6.09,0-1.88.61-1.98,1.02-3.05.24-.65-.08-3.87,1.53-1.02,1.02,1.81-.37,1.66-.51,2.04-.46,1.18-.95,2.29-2.03,3.05.28.83,11.53,12.1,12.27,12.57.5.32,5.2,2.63,5.51,2.65,2.67.18-1.09-5.71,2.53-4.04-1.56,3.97,2.6,9.41,6.18,10.7,2.09.75,3.83-.7,3.97-.56.36.37,2.5,6.55,5.13,8.61,6.79,5.32,9.25,6.41,16.2,13.31,2.07,2.05,6.55,2.02.03,4.51-.72-6.56-2.58-2.77-5.13-3.63-2.45-.82-3.81-4.29-4.05-4.48-2.4-1.85-2.1,3.85-3.54,4.02-3.18-1.85,1.07-3.51.05-5.08-.72-1.11-8.67-4-10.71-5.06-4.14,1.62-2.43.89-4.06-2.03-.73-1.3-1.93-2.45-2.05-4.06-1.67-.25-1.34,2.95-2.53,3.02-1.52.09-1.24-4.24-1.74-4.85-.49-.59-12.17-7.53-13.07-7.87-2.11-.8-3.82.67-3.98.55-.17-.12-.17-2.71-1.36-3.82-2.71-2.53-13.52-7.68-17.24-9.41-.61-.28-.59-1.82-1.42-2.01-2.64-.6-5.45.19-7.43,2.02-.41,1.08-.15,2.27-1.53,3.04-1.42-1.11-.2-3.69,1.53-4.06.22-1.14,1.83-2.43.59-4.1-2.92-.57-4.51-3.02-6.76-4.46-7.34-4.69-14.46-7.69-21.6-12.94-1.84-1.35-15.2-13.85-16.93-12.02-1.59,1.68,8.36,9.04,10.25,10.57,1.08.88,4.6,2.54,4.77,2.84.66,1.19-.18,3.36.7,4.88.6,1.05,3.71,1.82,5.11,3.03,6.59,5.72,30.92,30.47,33,37.11.16.52.28,1.66-.49,1.5-2.12-.82-7.48-7.71-8.29-7.97-1.59-.51-4.75.28-5.35-.29-.3-.28.18-1.94-.3-2.62-1.16-1.68-9.65-3.57-10.45-7.4l-2.52,3.04c.11-7.74-3.05-7.68-7.51-11.35-5.78-4.74-9.58-10.27-15.84-14.59-4.27-2.95-5.53-1.68-2.6,2.6,5.18,7.56,10.45,14.62,15.35,22.25,4.26,6.64,8.74,14.23,13.03,21.51,4.11,6.97,8.13,15.37,12.01,22.54,2.8,5.17,9.17,9.98,5.37,16.99ZM180.83,208.38c.26,2.51.08,5.35-3.04,5.07-.26-2.51-.08-5.35,3.04-5.07ZM205.23,182.46c-.13-.88,1.94-.57,2.01-.5,2.19,2.14-.07,5.79-2.01.5ZM210.31,193.13l1-6.08,2.05,4.54-3.05,1.54ZM343.4,186.01h-1s.49-4.07.49-4.07l1.03-.98,1.51,1.99c-2.18-.33-2.19,1.14-2.03,3.06ZM338.83,174.86l1.52,4.03c-3.95.83-4.2-1.61-1.52-4.03ZM335.28,188.05v-3.04s3.04,1.03,3.04,1.03c.49.41-1.79,2.67-3.04,2.02ZM325.12,206.33v-3.03c.64.04,1.91-.14,2.03,0,.67.77.17,4.4-2.03,3.03ZM370.84,216.5c-.33-1,.33-3.09,0-4.06-.09-.26-2.05-.97-2.01-1.52.17-2.88,3.33.39,5.06.52.56,1.85-.92,1.78-1.01,2.01-.23.45-.44.77-.63.96.03.26.19.59.63,1.07.88-.44,2.41-1.99,3.04-.51-1.24,1.15-4.31,3.88-5.08,1.53ZM374.89,218.53l-1.02,8.12c-3.23-1.52-1.94-7.03,1.02-8.12ZM395.22,249.01c-3.88,1.82-4.54-5.08-2.54-5.05.69,0,3.23,4.41,2.54,5.05ZM387.09,262.22h-2.02v-4.06c2.02.54,2.28,2.16,2.02,4.06ZM381.51,266.27c-.3-.01-4.55-3.45-4.62-3.74-.48-2.03.74-4.4,1.08-6.39,1.91.19,1.4,3.25,2.34,4.78.4.64,2.3.81,2.65,1.88.43,1.33-.62,3.51-1.44,3.47ZM365.75,264.26c-3.61-1.06-.98-3.77-1.01-4.06-.04-.52-1.4-.97-2.02-1.04.5-3.32,3.92-.8,4.05,1.04.04.57-1.49,2.76-1.03,4.06ZM393.2,286.62c.79-.76,2.72.74,3.04,2.03.67,2.69-.43,5.89-3.05,4.05-.25-.17,1.04-2.12,1.02-3.04,0-.16-1.89-2.2-1.01-3.04ZM379.53,285.58l-.57,5.09c-1.46-.01-3.34-5.81-3.03-6.09.41-.37,3.04-.1,3.6.99ZM370.83,293.73v3.04c-2.48.66-1.99-1.08-3.04-3.03h3.04ZM361.19,281.53c-1.23-1.32-2.95-2.12-2.54-4.06.56.45,2.81,1.01,2.91,1.13.27.35.56,2.85-.37,2.93ZM417.57,402.45l-3.05-.02c.16-2.28,1.17-3.09,2.04-5.07-4.98-2.8.14-4.8,1.02-1.02.38,1.66-.25,4.25,0,6.1ZM414.53,382.12c-1.54-1.58-1.05-2.98-1.01-5.08,1.71-.35,2.35.59,3.04,2.03,1.37,2.84,1.14,6.29-2.03,3.05ZM413.45,358.07c-1.51,1.04-.55,1.81-1.96,1.7-.94-3.77,2.01-3.87,5.07-4.05-.08,2.07-2.68,2.05-3.11,2.35ZM389.42,354.67c-1.01-.27-2.97.29-3.34.02-.19-.14.07-2.23,0-3.04-.17-1.85.06-3.3-1.02-5.07,4.06-.69,3.38.81,2.03,4.05,3.26.71,4.17,2.9,4.05,6.09-1.68.42-.39-1.69-1.73-2.05ZM389.12,363.82c-.13.14-.67-.05-.99,0-3.19-9.75,4.33-3.61.99,0ZM392.16,407.53c2,2.35-.75,5.29-2.01,4.05-.41-.4.86-4.71,2.01-4.05ZM391.17,399.39v-3.04h2.02v3.04h-2.02ZM392.69,388.21c-2.46-1.1-.98-3.36,1.52-3.03-.61.67-1.01,3.26-1.52,3.03ZM395.22,358.76c.63.72-.5,4.04-1.52,4.04-2.52,0-.27-6.08,1.52-4.04ZM394.22,412.6l7.1,4.05c-4.64-1.15-8.36,2.2-7.1-4.05ZM394.21,406c1.93-2.86,3.87-.93,5.07,1.51l-5.07-1.51ZM402.34,357.73l-2.54,1.01c-3.19-2.27,1.22-4.79,2.54-1.01ZM404.37,351.64c.05-.15.1-.25.16-.35.27-.87.32-2.66,1.86-2.7.59,1.7-.61,2.18-1.01,3.05-.68,1.47-1.29,3.57-3.04,4.06-1.24-4.77,1.85-3.84,2.02-4.06ZM405.65,361.06c.05-.17,2.21-2.19,2.77-2.31,2.75,9.48-4.97,9.75-2.77,2.31ZM409.44,369.93l2.03,5.08c-6.47.13-3.85-7.42-2.03-5.08ZM412.49,383.14c.07,1.04-.6,4.62-1.02,5.07-.13.14-.67-.05-.99,0-.14-1.85-.32-4.43,2.01-5.08ZM372.88,398.39c1.77-1.36,5.14,3.49,3.04,5.07-2.69,2.03-5.36-3.28-3.04-5.07ZM373.9,431.91c-.41-2.26-1.99-4.1.99-5.08.41,2.26,1.99,4.1-.99,5.08ZM367.8,370.45c2.91-4.12,6.47,4.13,6.09,4.55l-6.09-4.55ZM368.3,387.18c-2.52,0-.27-6.08,1.52-4.04.63.72-.5,4.04-1.52,4.04ZM375.91,346.55c-.09.11-2.06-.05-2.54,1-1.93-1.22-1.62-2.98-1.52-5.05,1.54-.76,5.02,2.88,4.05,4.05ZM366.77,379.07c-1.74,1.53-4.56-1.33-3.04-3.04.97-1.09,4.13,2.08,3.04,3.04ZM360.67,318.11l1.02,4.06c-.65.1-1.47-.14-2.03,0-1.23.31-4.18,1.1-5.09.52-1.83-1.41-.98-2.36.54-3.58.94-.2,2.68,1.36,3.53,2.04-.23-1.08,1.32-3.59,2.02-3.05ZM345.44,344.53l6.1,2.04c.23.8-1,.87-1.02,1-.34,1.73.58,3.8-1.52,5.06-2.96-2.58-1.47-2.47.51-4.04l-4.06-4.06ZM349,339.27c-1.95.25.73-3,2.03-2.86l.49,4.05c-2.35-.7.68-1.6-2.52-1.19ZM350.52,352.66c.97-1.09,4.13,2.08,3.04,3.04-1.74,1.53-4.56-1.33-3.04-3.04ZM340.35,343.51l-3.05-3.57c.2-.95,1.87-.29,2.04-.49.33-.37-3.36-4.13,2.03-3.04-.33,1.05-.87,1.9-1.02,3.04-.17,1.3.13,2.74,0,4.06ZM339.34,330.31c.37.33-.75,3.64-1.51,4.05-3.61-2.27-.56-5.89,1.51-4.05ZM358.15,362.82c2.52-.57,2.52,3.16,1.5,4.05-1.87,1.63-4.06-3.48-1.5-4.05ZM359.16,430.9l.5,5.07c-3.27.88-2.54-3.29-.5-5.07ZM361.69,414.64c.33.32-.12,6.98-2.52,6.08-2.58-.96-.21-8.74,2.52-6.08ZM360.67,441.06v2.02h-3.04c.34-1.47,1.64-2.33,3.04-2.02ZM361.19,477.61c-3.03.03-.28-5.97,1.52-4.04.63.68-.47,4.03-1.52,4.04ZM362.4,470.28c-.33.65-3.93,3.72-3.73.74.04-.6,3.53-1.52,3.04-3.55,1.75-.23,1.16,1.88.69,2.8ZM360.68,440.03c-.44-.43,1.28-3.87,1.02-5.07h.99c1.42,2.41-.15,6.91-2.02,5.07ZM363.72,399.39c-6.64-1.9-2.29-11.48-2.03-16.25-8.82-7.07-.87-13.67,0-1.02,3.86,0,3.14,4.74,4.28,7.4.73,1.69,2.78,2.39,2.84,4.27l-4.07-1.51-1.03,7.1ZM367.29,476.61c-1.08-.93-1.85-1.54-1.52-3.04h2.02s-.5,3.04-.5,3.04ZM368.82,443.09v-3.04s2.02,0,2.02,0c.31,1.4-.55,2.7-2.02,3.04ZM371.35,434.98c1.9,1.25,1.66,2.93,1.51,5.06h-1c.92-4.09-4.03-2.32-.52-5.06ZM376.93,463.4c-.67.63-3.55-.23-4.05-1.53-1.34-3.53,6.11-.39,4.05,1.53ZM376.94,336.4c-1.79-1.83-1-7.82.51-10.16-.27,3.92,3.12,6.4,2.53,9.14-.12.58.12,1.37,0,2.03-2.02.35-2.09-.04-3.05-1.01ZM381,388.22c.18-.45-.15-1.4,0-2.03,2.93-2.41,3.51,10.01-1.02,5.08-.14-1.14.64-2.07,1.02-3.05ZM381,473.57l5.07-1.02c-.16,3.86-4.79,6.07-5.07,1.02ZM386.59,471.53c-1.56-1.1-1.77-2.18-1.52-4.05h2.02l-.5,4.05ZM386.59,460.34c-1.43-.99-1.72-2.7-2.54-4.04-.77.3-2.1,2.49-2.03,3.05.18,1.41,3.85,2.58,4.06,4.05l-5.07,2.04c1.04-1.98,1.19-3.89,1.02-6.09-.14-1.75-1.65-6.01-2.03-8.12l3.69,3.42c.6.43.21,1.39.37,1.66,3-1.15,5.14,2.38,2.54,4.04ZM386.08,442.06l-3.61-.99.57-5.1c6.52-.1,2.27,2.79,3.04,6.09ZM388.11,448.16c-.44.41-5.76-.64-5.07-2.02h5.07s0,2.02,0,2.02ZM387.1,423.78c-.08.08-.79,1.58-1.02,2.03-.4.79-.73,4.29-1.51,4.05-2.48-1.33-6.18-4.24-3.57-7.1.79-.87.8-.88,2.03-1.02,2.18-.24,5.46-.35,6.1,2.02-.58.16-1.85-.17-2.03,0ZM389.13,466.45c-.33-1.5.45-2.11,1.52-3.04l.5,3.04h-2.02ZM394.71,436.99c3.34,1.59,2.48,7.84-.5,6.08-.26-.15.47-5.35.5-6.08ZM397.26,471.52l-3.04,1.03v-3.04c1.25-.66,3.53,1.6,3.04,2.02ZM397.81,428.87c-1.4,2.38-5.26-.15-5.55.1-.45.38.69,2.32-1.09,1.91-.63-2.98-1.2-5.18,0-8.12l3.03,2.03.02-4.06c.38-.42,1.9.86,2.59.93.3.03.85-3.98,2.47-1.94.95,1.18-1.65,4.1-2,5.64-.24,1.06,1.04,2.64.53,3.51ZM401.33,458.33h.99s0,5.07,0,5.07c-2.8-.76-1.05-2.92-.99-5.07ZM401.33,426.82c-1.32-2.59,1.62-8.32,4.05-6.09.28.26-1.57,7.21-4.05,6.09ZM401.32,418.69l3.06-5.56c-.38-1.64-5.93-1.39-5.08-4.59,1.91,2.11,5.81-.18,6.08,0,1.53,1,1.55,13.4-4.06,10.16ZM408.45,428.86c-2.56-2.41.74-6.12.77-6.62.05-1.07-3.57-2.4-2.81-4.55,1.61.86,9.78.68,10.14,1.04.28.28-.14,3.04,0,4.03l-2.01-2.02-1.04,7.11c-2.9-3.16-3.34,2.63-5.06,1.01ZM409.45,467.97c-.08-.22,3.46-3.29,4.06-2.53,1.74,4.53-2.9,5.61-4.06,2.53ZM414.53,445.11c1.12-3.2,3.64-1.53,6.09-.99-1.12,3.2-3.64,1.53-6.09.99ZM422.65,365.86c-1.6.31-1-2.5-3.04-3.04.34,2.81,1.74,5.67-.5,8.12-.73-.94-3.21-6.2-3.2-6.63.02-1.02,2.29-1.71,1.68-3.52h-3.06s4.06-4.07,4.06-4.07c.21.16.58,3.35,1.03,4.06.65,1.04,4.15,1.85,3.04,5.08ZM423.68,438.01h2.02s-.5,4.05-.5,4.05c-1.56-1.1-1.77-2.18-1.52-4.05ZM424.7,464.42c-.41-2.26-1.99-4.1.99-5.08-.06,2.2,1.87,4.29-.99,5.08ZM430.28,448.16c-2.97-2.4-4.44-5.95.5-5.08l-.5,5.08ZM430.77,404.47c-2.04,1.76-2.64-3.92-3.03-5.08-.95.14-2.06-.08-3.04,0-.25-1.87-.04-2.96,1.52-4.05.7,1.03,1.08,2.76,1.52,4.06,2.31-.34,2.91-2.12,5.08-2.03-.24,1.16-1.76,6.86-2.04,7.1ZM434.34,414.64c2.22,1.57,1.97,3.13-.49,4.06l.49-4.06ZM437.89,458.32c-1.53,1.52-4.22-2.88-1.51-4.05.78.41,1.81,3.76,1.51,4.05ZM440.96,459.34c.55-2.02-2.07-6.62-2.01-7.63.09-1.76,3.61-.93,3.98-.43.39.52-.06,7.8-1.96,8.06ZM444.51,352.66l.49,6.09c-.56,1.24-3.64-4.73-.49-6.09ZM442.98,300.84c.2.29,4.22-1.58,4.06,4.06-2.13.64-3.35-2.63-4.06-4.06ZM449.07,334.36h-2.02v-4.05h2.02v4.05ZM449.15,303.86c-.75-.92-.33-9.26-1.08-11.15,3.25.71,3.16,6.55,3.37,6.91.18.3,3.32-.01.72,3.69-.09.12-2.91.67-3.01.55ZM452.14,337.41c-1-1.79-1.46-6.18,1-4.06.78.67,1.2,4.11-1,4.06ZM455.18,349.6v-4.05s2.02,0,2.02,0c.55.56-1.46,5.28-2.02,4.05ZM458.22,318.1c-.53.58-5.18-1.37-4.05-2.02l4.05-1.03c-.1.82.22,2.81,0,3.04ZM458.22,300.84c-.4.15-.85,2.2-2.02,2.03,0-1.68-.48-3.49,1.01-4.62.71-.83.94.56,1.01.56,1.34,0,4.16-.29,5.08,0,.6-1.42-1.32-2.6,3.05-2.02l-1.03,4.05h-.98c-.03-.65-.51-1.86-1.04-2.03-1.32,3.11-3.53,1.44-5.08,2.03ZM465.34,257.14h3.03c-.42,5.32-3.88,6.21-3.03,0ZM459.25,368.91h4.05s0,2.03,0,2.03c-2.62-.09-4.72,1.01-4.05-2.03ZM460.26,377.53c-.77-2.14,2.66-1.85,3.03-1.5,1.06.98-1.91,4.64-3.03,1.5ZM462.28,335.38c-.35-.78-2.38-2.79-2.03-3.04,4.62-.63,2.42.82,3.05,3.04.38,1.35,1.17,2.59,1.01,4.06-2.39-.33-1.53-2.97-2.02-4.06ZM464.83,331.31c-2.37-.7-2.29-1.27-2.55-3.04-.31-2.13-.65-4.98-.51-7.11,3.12,2.02,1.38,4.85,2.54,8.12.05.13,2.35.83.52,2.03ZM463.31,302.87c1.05-1.04,4.07,2.02,3.04,3.04-1.05,1.04-4.07-2.02-3.04-3.04ZM466.36,337.41c-.61-3.18.47-3,3.03-4.06.82,1.06-1.69,3.76-3.03,4.06ZM467.36,232.24c-.68,1.21-2.09-1.38-3.05-1.51-.87,1.32-1.12,2.45-3.05,2.02.98-2.15.73-3.96,2.03-6.09,1.12-1.84,3-2.22,4.01-3.72,1.11-1.65-.1-3.31.05-3.39.26-.14,2.92-.09,3.05,0,.53.38-2.54,11.78-3.05,12.68Z"/>
</svg>