<?xml version="1.0" encoding="UTF-8"?>
<svg id="Layer_1" xmlns="http://www.w3.org/2000/svg" version="1.1" viewBox="0 0 435.75 607.65">
  <!-- Generator: Adobe Illustrator 29.3.1, SVG Export Plug-In . SVG Version: 2.1.0 Build 151)  -->
  <defs>
    <style>
      .st0 {
        fill: #466d39;
      }

      .st1 {
        fill: #010101;
      }
    </style>
  </defs>
  <rect class="st0" x=".09" y="-.15" width="435.86" height="610.55"/>
  <g>
    <path class="st1" d="M426.79,581.87c-.18.94-1.27,2.27-.73,3.77,1.04-.92,1.57-2.59.73-3.77Z"/>
    <path class="st1" d="M20.03,439.86l-1.89-.04c-.99.9,3.51,11.01,1.89.04Z"/>
    <path class="st1" d="M19.45,449.95c.82-.29,1.4-2.06,1.02-2.49-1.16-1.31-3.23,3.26-1.02,2.49Z"/>
    <path class="st1" d="M424.64,61.46l1.26.03-.26-1.89c-.68.56-1.18.93-1,1.86Z"/>
    <path class="st1" d="M164.13,1.6l-1.89-.05-.03,1.26c.87.22,1.69-.3,1.92-1.2Z"/>
    <path class="st1" d="M303.13,70.91l-4.96,9.35c-8.06,19.07-14.3,38.78-20.12,58.65-.05.24,2.41,4.06,2.42,4.32.1,2.42-1.33,4.88-1.53,7.02-.09,1.03.83.84.85.92.2.77-.45,1.07-.26,1.21.79.61,1.41-.55,1.82-.99,5.04-5.54,4.3-15.89,5.9-22.96,2.34-10.35,7.54-22.62,10.52-33.02.45-1.57,1.25-4.48,1.15-5.99-.08-1.22-1.06-2.22-1.05-2.55,0-.34,1.28-1.63,1.6-2.64,1.38-4.3,3.01-8.92,3.66-13.32Z"/>
    <path class="st1" d="M180.84,507.27c-4.71-4.94-5.17-9.72-7.45-15.39l-1.26-.03c.21,5.11-1.64,4.91-2.1,7.24-.73,3.69,2.91,7.85,4.88,10.77.44.65,1.47.93,1.61,1.2.51.97-.23,3.27.61,4.52.14.2,3.85,1.82,4.07,1.81.28,0,2.53-3.54,2.74-4.35,1.28-4.92-1.16-3.72-3.1-5.76Z"/>
    <path class="st1" d="M333.71,513.76c-6.76-6.22-13-13.46-20.39-18.86-.43-.31-.43-1.07-.53-1.13-1.05-.54-2.82.73-3.75,1.39.95,4.59,5.22,5.75,8.49,8.51,4.46,3.76,8.8,7.67,13.57,11.16,1.27.93,10.81,7.84,11.37,7.36-1.13-4.2-6.08-5.98-8.75-8.44Z"/>
    <path class="st1" d="M354.8,196.04l-22.42,13.66c-4.19,3.15-8.5,6.28-12.94,9.06-2.75,1.72-5.04.99-4.54,5.91,1.09.31,1.27-.42,1.92-.89,10.77-7.83,22.8-13.56,33.11-22.17.71-.6,5.53-4.86,4.86-5.57Z"/>
    <path class="st1" d="M354.92,379c-.85-.26-1.4-1.27-2.64-1.2-1.32.07-2.38,1.95-3.75,2.6-1.8.86-5.35,1.51-7.46,2.19-.84.27-1.61.68-2.54.57l-.02.62,4.41.12c.07.07.52-.09.61.33-.27,1.61-6.54,1.69-7.62,2.01.05-.66-.13-.88-.6-1.28-.6-.51-.07-1.07-1.6-.07-2.32,1.52.2,1.2.3,1.3.11.11-.1.91-.03,1.26l-5.09,1.75c1.75.19,4.84.86,6.44.7,2.2-.22,4.41-1.93,6.36-2.43,2.29-.59,4.87-.63,6.87-1.19,3.65-1.03,7.15-2.84,10.8-3.22-.81-4.69-1.23-3.1-4.45-4.07Z"/>
    <path class="st1" d="M194.34,475.38c-1.16-6.7-3.27-17.38-3.53-23.78-.09-2.26,1.92-6.4-.98-8.55-1.31,11.89.62,23.44,1.43,35.23.05.74-.87,1.29-.89,1.71-.03.68,1.96,4.5,1.51,6.03,7.37,0,3.21-6.31,2.46-10.64Z"/>
    <path class="st1" d="M377.1,244.17c3.45-3.42,3.55-3.87,6.3-7.3,1.41-1.77,5.26-5.06,5.99-6.67.38-.82.33-1.71-.39-1.68-.78.02-8.83,9.13-10.38,10.45-5.78,4.97-11.44,7.02-17.8,10.43-1.69.9-2.97,2.93-.36,2.17,4.16-1.21,12.52-1.83,15.12-4.78.73-.83.94-2.04,1.52-2.61Z"/>
    <path class="st1" d="M111.13,368.5c-.61-.35-4.73-3.34-4.95-3.62-.34-.42-.39-2.31-1.08-2.34-1.59-.07-4.61,8.66-3.13,9.74.93.67,2.23-.13,3.25.08,2.59.52,7.97,3.45,10.07.91,2.85-3.44-2.4-3.74-4.17-4.77Z"/>
    <path class="st1" d="M297.31,477.68c-3.23-2.71-7.55-5.54-11.59-6.85-.42.32,5.83,7.68,6.37,8.41.9,1.23,1.47,3.54,2.61,4.46,2.25,1.81,6.19,1.23,8.94,2.11-.8-3.17-3.83-6.04-6.33-8.14Z"/>
    <path class="st1" d="M309.66,197.42c-1.38,1.87-3.03,4.55-3.69,6.81l6.15-5.51c3.06-3.35,9.03-10.85,12.23-13.38,1.29-1.02,3.66-.38,3.06-3.91-4.82-.83-3.03.5-4.42,2.13-.63.74-2.63,1.17-3.94,2.35-1.73,1.56-7.7,9.22-9.39,11.51Z"/>
    <path class="st1" d="M17.91,232.05c-1.33,3.74-.07,7.83.31,11.69.13,1.27-.68,7.8,2.01,7.31,1.63-.3,1.56-3.27,2.01-4.38.74-1.8,1.98-1.87,1.7-4.62-.13-1.27-4.4-11.13-6.03-10Z"/>
    <path class="st1" d="M341.17,475.43c-.57-4.02-4.91-4.47-7.98-6.27-4.72-2.76-2.9-1.38-7.85-2.4-1.71-.35-3.53-.94-5.38-1.35-.56-.13-1.41-1.12-2.51-.69.14,1.5,1.9,1,2.49,1.32,2.22,1.19,4.57,2.47,6.71,3.81.96.6,1.18,1.74,2.15,2.3,1.34.78,11.48,3.9,12.37,3.28Z"/>
    <path class="st1" d="M335.17,270.66c1.78.57,2.45-1.29,3.61-1.6,1.9-.52,7.53.19,9.65-.28,2.07-.46,9.28-3.84,11.12-5.16.87-.62,1.95-1.03,1.75-2.37-4.42.8-8.45,2.57-12.72,3.78-4.52,1.28-11.14.84-13.41,5.64Z"/>
    <path class="st1" d="M265.81,459.57l4.81,8.49c3.07,1.74,3.4,5.31,6.79,6.63.38.15,1.83-.18,1.89-.25,1.25-1.5-5.52-8.59-6.68-9.96-.53-.63-.57-1.76-1.24-2.52-.71-.82-4.9-2.97-5.58-2.39Z"/>
    <path class="st1" d="M134.3,483.75c.98,2.36,2.56,1.72,2.75-.71.27-3.38-1.33-8.6-1.63-12.05-.39-4.43,1.68-8.54-2.85-11.75.65,3.01.21,6.11.45,9.1.14,1.69.93,3.35,1.06,5.15.22,3.03-.87,7.66.21,10.26Z"/>
    <path class="st1" d="M341.42,439.86c-.82-2.69-13.09-1.85-15.1.14,1.93.63,14.39,5.12,15.03,4.49-.6-1.31.35-3.7.07-4.63Z"/>
    <path class="st1" d="M127.78,126.95c3.33,3.92,6.27,8.15,9.38,12.23l.63.02c-.31-.97-.32-5.46-.49-5.7-2.05,1.44-3.58-.33-3.71-2.34-.02-.3.98-.2,1.13-.56.62-1.51-3.6-7.7-5.11-7.85-.71-.07-1.42.28-2.1.45l.27,3.75Z"/>
    <path class="st1" d="M349.04,295.38c.45-.26,5.4-7.33,6.16-8.47.39-.59,1.99-2.86,1.11-3.38-1.03-.71-2.71-.28-3.62.42-1.01.77-8.19,10.22-7.42,10.98,1.12-.26,2.91.95,3.77.46Z"/>
    <path class="st1" d="M247.52,96.61c-1.26.23-1.11,1.27-1.31,2.18-1.12,5.05-1.14,11.13-1.7,16.36-.38,3.52-3.02,8.5.34,11.06l2.67-29.61Z"/>
    <path class="st1" d="M174.9,522.26c-.4-.04-.41-.77-.67-1.01-1.41-1.32-1.5-2.44-2.77-3.53-.53,2-.49,3.89-.09,5.93.14.73,2.53,8.85,4.14,7.44.73-3.14,3.41-6.2,2.14-9.42-.33-.25-1.93.69-2.76.6Z"/>
    <path class="st1" d="M166.25,79.27c-.55-.85-2.18-.37-2.75-.77-.43-.31-.29-1.56-.65-1.97-.94-1.07-2.12-1.53-3.12-3.06-.41-.63-.8-1.29-1.21-1.93-.59-.91.33-1.2-1.81-3.2.41,1.06.76,2.11,1.18,3.19.46,1.17,1.17,1.82,1.21,1.93.83,2.14,1.51,6.24,2.38,7.89.92,1.76,5.47,4.45,6.39,6.87,2.33.81-.98-4.48-1.16-5.07-.37-1.2,0-3.14-.47-3.87Z"/>
    <path class="st1" d="M323.76,344.26c-3.19,1.11-10.68,18.12-3.53,14.76,2.19-1.03,1.14-6.41,1.54-8.76.39-2.28,2.2-3.62,1.99-6Z"/>
    <path class="st1" d="M324.84,163.82c-.37.36-.37,1.86-.89,2.64-.71,1.07-2.3.43-1.9,2.2,2.62-1.25,3.57.39,4.85.67,1.36.3,5.54-4.86,4.78-6.72-.27-.29-6.52.91-6.84,1.22Z"/>
    <path class="st1" d="M151.26,95.99c-2.26.61-.99,6.96,1.25,8.02l2.48,5.33c-.38-2.34.51-14.5-3.73-13.35Z"/>
    <path class="st1" d="M343.52,445.24c-1.03,0-1.82.88-2.68,1-1.78.25-4.39-.66-5.26,1.25,4.09,1.12,8.96,1.31,12.53,3.49.14-.17-.46-4.04-.64-4.3-.2-.29-3.4-1.44-3.95-1.44Z"/>
    <path class="st1" d="M303.03,250.4c.37,1.78,1.27,5.15,1.86,6.85.46,1.34,1.71,4.07,2.7,5.13l-4.76-22.85c-1.92-.02-.09,9.47.2,10.87Z"/>
    <path class="st1" d="M377.95,488.85c2.74-2-.32-4.13-2.55-4.97-1.44-.55-3.22-.94-4.75-.73-1.13-2.09-1.44-1.41-2.52-.07-.18.23-.6.49-.65.61-.11.31.05.87-.03,1.26.88.32,1.99.48,2.51.7,1.64.69,6.97,3.94,8,3.19Z"/>
    <path class="st1" d="M84.76,343.67c1.02-.59,1.41-2.09.91-3.02-.14-.25-3.92-2.41-4.8-3.12-1.47-1.2-3.22-3.16-4.69-4.17-2.11-1.46-1.54,1.33-.39,2.83,2.42,3.17,6.93,4.2,8.97,7.48Z"/>
    <path class="st1" d="M115.32,81.15c.94,1.5,2.15,1.26,3.16,2.25,1.18,1.16,7.11,8.8,8.58,7.52,1.36-1.18-5.32-5.98-5.78-6.51-.89-1.02-1.62-3.09-2.77-4.45l-1.91.58c.34-3.29-1.78-2.54-1.28.6Z"/>
    <path class="st1" d="M210.94,134.38c1,1.23,1.3,3.61,3.27,4.29.88-3.9-.93-6.1-3.01-9.14-1.62-2.38-3.89,1.05-3.74,1.69.05.23,2.95,2.51,3.48,3.16Z"/>
    <path class="st1" d="M76.25,305.56c.57,1.03,2.77,1.47,3.45,1.99.76.58,1.23.85,1.86,1.31l.03-1.26.02-.63c.56.32,1.73.55,1.88.68,1.2,1.03.64,3.42,3.72,2.62.05-.95-2.42-2.53-3.07-3.24-1.15-1.24-4.65-6.15-4.98-6.39-.33-.24-2.11.57-3.08.49-.01.55.06,4.22.17,4.42Z"/>
    <path class="st1" d="M357.59,306.63l-6.31-.17c-1.17,5.29,1.39,4.86,5.51,6.46.43-1.11-1.02-1.62-1.01-2.23.01-.63,2.46-2.53,1.81-4.06Z"/>
    <path class="st1" d="M341.23,352.92l9.42-5.31,1.5-1.98c-4.85.76-9.87,1.67-10.92,7.29Z"/>
    <path class="st1" d="M203.34,469.95c2.44.06,6.68-9.25-.13-7.61,1,1.96-3.3,7.53.13,7.61Z"/>
    <path class="st1" d="M345.98,430.85c-.12-.23-3.76-3.17-4.01-3.25-1.4-.47-3.63-.16-5.21-.9-1.2,1.15,4.55,4.41,4.27,5.79,1.15.19.04-1.38,1.59-1.28,1.08.07,5.2,3.03,3.35-.36Z"/>
    <path class="st1" d="M346.51,235.61c-2.89,1.74-7.51,3.9-9.91,5.76-1.06.82-1.54,1.34-1.36,2.78l13.46-8.17c-1.01-1.29-.93-1.13-2.19-.37Z"/>
    <path class="st1" d="M306.82,460.65c-3.33-1.01-6.44-2.75-10.03-2.79,1.49,3.94,3.17,4.12,7.09,3.89.62-.04,2.98-.18,2.94-1.1Z"/>
    <path class="st1" d="M28.74,228.86c.1-3.13-3.14-.58-4.14-.45-1.89.24-4.03-.25-5.97-.12,1.14,2.39,10.01,3.75,10.11.58Z"/>
    <path class="st1" d="M372.81,376.19c-.58-2.12-6.02-.42-7.56-.53-.08.06.62,1.62.76,1.73,1.64,1.34,7.78,2.42,6.79-1.2Z"/>
    <path class="st1" d="M106.68,241.95c-.28-.27-.89-.41-1.25-.66-2.83,3.94-1.53,5.95,2.98,6.39.41-2.33-.05-4.11-1.74-5.73Z"/>
    <path class="st1" d="M271.35,139.54l.38-2.52c-6.04.55-2.52,5.75-3.41,10.01l3.03-7.5Z"/>
    <path class="st1" d="M111.1,73.46c-.3.27,1.6,4.91,1.83,5.06.53.36,1.53-.56,1.85-.55.21,0,.42.01.63.02l-.19-5.07-4.11.54Z"/>
    <path class="st1" d="M65.9,293.88c1.42.34,3.87-1.44,4.14-2.99-1.54.45-2.64-1.59-3.4-1.74-3.85-.72-1.5,4.55-.74,4.73Z"/>
    <path class="st1" d="M48.42,281.16c0,.27,1.66,4.23,1.87,4.14,1.9-.76,1.7-3.33,1.71-5l1.89.05c.33-3.1-.34-1.58-1.85-1.31-1.32.24-3.56-.36-3.61,2.12Z"/>
    <path class="st1" d="M316.94,241.41l5.86-5.16c-1.64.2-6.29,2.06-7.37,2.93-2.01,1.61-.71,4.21,1.5,2.23Z"/>
    <path class="st1" d="M68.3,309.13l2.82.73-.28-1.27c.23-.16,2.22.48,2.51.69.54.38,3.22,4.81,4.32,3.9-.76-2.01-2.32-3.11-3.67-4.51-3.01-3.12-4.67-6.22-5.7.46Z"/>
    <path class="st1" d="M215.81,415.32c-.94-.05-.82,1.13-1.69,1.77-.67.5-2.67,1.22-2.76,1.35-.09.13.4,2.98.51,3.09,2.03,1.84,4.48-4.46,3.94-6.21Z"/>
    <path class="st1" d="M349.23,457.65c-.02.64,5.4,2.58,5.61,2.35,1.94-2.09-3.22-5.77-5.61-2.35Z"/>
    <path class="st1" d="M82.22,246.32c.64-.2.74-1.23.98-1.39.75-.48,2.99-.36,1.97-1.63-.12-.14-2.51-.88-2.79-1.97-1.32,1.27-3.47,6-.17,4.99Z"/>
    <path class="st1" d="M346.62,508.42c.97-1.59-2.35-4.67-4.31-3.9l1.48,4.46c.83-1.03,2.76-.43,2.83-.56Z"/>
    <path class="st1" d="M243.89,380.06c-.24-.3-5.07-1.71-4.36,1.36.85,3.7,5.72.32,4.36-1.36Z"/>
    <path class="st1" d="M250.12,448.84c1.05-.36,2.21-3.42,1.54-4.17-1.52-1.72-7.17,6.09-1.54,4.17Z"/>
    <path class="st1" d="M261.57,163.28c.3-.36-1.52-5.54-1.75-5.72-1.01-.8-2.56,1.58-1.89,2.7.65.19,2.97,3.83,3.64,3.02Z"/>
    <path class="st1" d="M306.84,352.02c1.99.45,2.65-4.41,2.34-5.62-1.3.21-4.82,5.05-2.34,5.62Z"/>
    <path class="st1" d="M315.67,364.26c-.23.22-.14,2.41.51,2.9.74.56,3.65-.02,3.83-.27,1.06-1.41-3.63-3.32-4.35-2.63Z"/>
    <path class="st1" d="M356.57,177.14c-.3.29.36,1.99.74,2.38,1.89,1.96,5.65-2.15,4.95-2.87-2.01,1.03-3.55,1.36-5.69.48Z"/>
    <path class="st1" d="M200.23,94.11c-.47-1.43-.15-3.72-1.77-4.47-.02,1.55.81,2.98,1.14,4.45.56,2.46.75,5.3,2.02,7.63,1.62.25.92-1.02.69-1.89-.5-1.91-1.46-3.87-2.07-5.73Z"/>
    <path class="st1" d="M44.34,259.57c.8,2.23,6.24,1.3,4.44-.81-.23-.27-4.8-1.48-4.44.81Z"/>
    <path class="st1" d="M132.55,98.01c.56-.55-3.2-6.16-4.89-5.81-.51.48,4.2,6.48,4.89,5.81Z"/>
    <path class="st1" d="M107.53,402.38l-5.07.8c1.25,3.14,4.04,1.93,5.07-.8Z"/>
    <path class="st1" d="M96.13,355.34l3.15.08c.1-3.72-3.52-4.6-3.15-.08Z"/>
    <path class="st1" d="M325.69,343.04c.82-1.73,2.53-3.08,3.29-4.96l15.57-16.33c-2.79-3-3.84,1.76-5.41,3.37-4.69,4.83-6.05,5.95-10.13,11.7-1.34,1.89-3.66,2.9-3.96,5.25-.08.68-.17,1.13.63.98Z"/>
    <path class="st1" d="M365.73,285.36l3.84-2.43c-1.25-2.75-4.54-.1-3.84,2.43Z"/>
    <path class="st1" d="M62.63,260.38l-5.07.81c.92,1.53,5.34,1.5,5.07-.81Z"/>
    <path class="st1" d="M98.64,308.05c-.12-.24-.51-.43-.61-.65-.83-1.67-1.23-3.47-2.39-5.11-2.01-2.83-1.35-1.15-1.89-.05-.1.2-.63.44-.65.61-.16,1.66,1.63,4.66,3.01,5.76.11,1.19.7,1.66,1.2,2.56.48.88.67,2.25,1.82,2.57,1.6-3.61.86-2.95-.48-5.7Z"/>
    <path class="st1" d="M298.5,344.55c-1.33,4.67,4.37,2.3,2.51-.24-.16-.22-2.18-.92-2.51.24Z"/>
    <path class="st1" d="M357.95,389.35c2.39.54,4.73-.39,6.96-.44,3.78-.09,9.4.86,12.47-.79,2.66-1.43-.53-1.27-1.62-1.8-.94-.46-1.65-1.61-2.86-1.6-1.17,0-6.09,3.56-8.6,2.91l-6.36,1.72Z"/>
    <path class="st1" d="M367.16,61.85c-.92-1.22-3.14,3.19-2.62,3.71,2.7.55,2.76-1.66,2.62-3.71Z"/>
    <path class="st1" d="M346.17,477.46c.94,2.51,3.04.84,2.56-1.2-.15-.64-3.67-1.8-4.37-2.01-.43-.13-.86-1.05-1.88-.67,1.45,2.61-.42,1.63-.65,1.89-1.18,1.36.83,1.11,1.2,1.28l1.31-1.86c1.9-.34,1.16.97,1.2,2.56.2,0,.43.04.63.02Z"/>
    <path class="st1" d="M86.35,343.42c-.32,1.54,2.42,2.65,3.73,2.29.2-.17-3.24-4.67-3.73-2.29Z"/>
    <path class="st1" d="M222.96,528.54c2.55-.92-.18-4.51-.49-5.69-.86-3.31-3.99-13.76-3.96-16.29.01-1.6,1.15-2.38,1.25-3.64.15-2.02-1.7-11.81-2.26-14.43-.3-1.42-1.94-8.03-2.44-8.76-2.17-3.15-3.54,3.04-3.6,4.66-.44,11.8,6.78,27.65,10.36,39.07.52,1.67.82,3.37,1.14,5.08Z"/>
    <path class="st1" d="M67.87,325.57l-3.73-2c-.74.74,3.23,6.37,3.73,2Z"/>
    <path class="st1" d="M295.32,442.03l-.12,4.42,1.89.04c.31-.28-.69-4.33-1.77-4.46Z"/>
    <path class="st1" d="M277.56,179.18c-.54-2.31-3.4.92-1.94,2.15.74.63,2.26-.79,1.94-2.15Z"/>
    <path class="st1" d="M75.56,297.34c-.14.13-.75,2.55-1.35,3.11.68-.14,1.47.66,1.88.69.01-.45,1.51-5.72-.52-3.8Z"/>
    <path class="st1" d="M71.61,375.54c1.11.43,1.85.46,2.51.7,5.64,2.02,11.04,2.89,16.18,4.64,3.77,1.28,7.78,5.93,10.24-.79-5.01-.13-9.51-2.24-14.45-2.91-2.28-1.44-5.54-1.11-8.17-1.48-.4-.2-.83-.45-1.25-.66-1.94-1-2.72-1.24-5.02-1.39-1.31-.09-2.9-.52-2.55.87.15.61,1.89.78,2.5,1.02ZM82.58,376.51c.37.01,1.46.28,2.44.48-.84-.15-1.66-.3-2.49-.45.02-.01.03-.03.06-.03Z"/>
    <path class="st1" d="M58.14,70.18c.34.22.43,1.53,1.54,1.3,1-.21.86-1.92.39-2.51-1.49-.07-2.18-.48-1.93,1.21Z"/>
    <path class="st1" d="M321.43,481.86c-.2.65,1.01,3.7,1.17,3.82,1.47,1.09,1.31-3.53-1.17-3.82Z"/>
    <rect class="st1" x="71.82" y="330.42" width="1.89" height="2.52" transform="translate(-260.72 395.73) rotate(-88.5)"/>
    <path class="st1" d="M34.37,278.58c-.62.67-.99,3.73.21,3.78,1.67.06.56-4.6-.21-3.78Z"/>
    <path class="st1" d="M375.33,328.56c-.48-.45-3.75,1.08-3.21,2.44.35.37,4.21-1.5,3.21-2.44Z"/>
    <path class="st1" d="M87.82,359.54c1.06,1,2.41-1.15,2.55-1.19.57-.19,1.78.19,2.52.06.27-1.29-3.4-1.7-3.73-1.99-.48-.41.27-2.87-2.49-1.33l-.07,2.52c.23.07,1.01.09,1.26.03.56.03.88.08,1.05.13-.02.11-.05.22-.06.31-.52.31-1.76.77-1.04,1.45Z"/>
    <path class="st1" d="M79.5,315.43c.31-1.22-1.79-2.1-2.48-1.63-.29.2,1.88,4,2.48,1.63Z"/>
    <path class="st1" d="M83.14,344.59c0-.1-.9-.78-.58-1.59-4.14,2.15.54,3.25.58,1.59Z"/>
    <path class="st1" d="M182,524.95c-.4.41.23,2.51.88,2.53,1.88.07.27-3.71-.88-2.53Z"/>
    <path class="st1" d="M70.9,330.05c-.05-.56.22-1.44-.04-1.81-.06-.08-1.37-.44-1.78-.76-.29,1.51.22,2.69,1.82,2.57Z"/>
    <path class="st1" d="M204.33,106.21c.15-.65-1.27-3.89-1.47-3.82-1.87.63.8,3.57,1.47,3.82Z"/>
    <path class="st1" d="M315.82,430.57c1.8.3,6.08,2.96,7.84,3.33,1.65.34,3.62-.02,5.33.17-.24-2.25-1.85-5.42-4.45-5.06-2.81.39-3.73,1.12-7.44.96-.19,0-2.18-1.13-3.15-.07-1.85,2.01,1.72.64,1.88.67Z"/>
    <path class="st1" d="M168.36,91.97c-.64-.04-2.02.67-2.21,1.24-.45,1.34-.21,5.86.51,7.2.39.73,7.13,5.56,7.65,5.6.26.02,2.18-.45,2.25-.54.14-.18-.83-4.23-.92-4.44-.17-.39-4.49-6.78-4.79-7.08-.82-.83-2.02-.55-2.18-.68-.06-.04.24-1.28-.31-1.31Z"/>
    <path class="st1" d="M362.17,131.82c1.14-.66,2.57-.97,2.6-3.09-.24-.31-3.4,2.73-3.86,3.06-.33.23-1.53.05-1.92.9,1.65,1.41,2.57-.51,3.18-.87Z"/>
    <path class="st1" d="M113.22,426.52c.59.69,2.6-1.22,1.94-1.84-1.06-.98-2.86.75-1.94,1.84Z"/>
    <path class="st1" d="M163.68,91.25l1.26.03c.26-.27-.3-3.59-1.17-3.18l-.09,3.15Z"/>
    <path class="st1" d="M356.26,477.73c-1.14-1.23-1.47,1.56-1.96,2.46,1.17,1.05,2.23-2.17,1.96-2.46Z"/>
    <path class="st1" d="M61.02,321.91c-.51,1.32,1.62,1.19,1.86.98.68-.59-1.11-2.91-1.86-.98Z"/>
    <path class="st1" d="M141.66,76.15c-1.55-.07.86,1.8.89,1.92.62,2.22,1.2,7.61,1.97,9.52.73,1.81,5.56,4.84,7.41,5.89,1.31-1.8-1.24-3.36-1.75-4.5-.44-.97-.07-2.04-.44-2.97-.4-1.02-5.14-5.33-6.55-7.92-.38-.7.06-1.87-1.52-1.94Z"/>
    <path class="st1" d="M92.59,225.8c-.54,1.75,1.44,1.53,1.84,1.94-.37-.39-.07-2.39-1.84-1.94Z"/>
    <path class="st1" d="M33.38,267.81c.68-.59-1.11-2.91-1.86-.98-.51,1.32,1.62,1.19,1.86.98Z"/>
    <path class="st1" d="M53.95,61.22c-1.12.44-1.98,1.05-2.57,1.83.13.15,2.45-1.09,2.57-1.83Z"/>
    <path class="st1" d="M148.23,54.22c-.38-.57-.34-1.69-.9-1.92-2.03-.83.05,1.44.27,1.91.43.92.66,1.53,1.2,2.56.98,1.86,2.05,3.6,2.92,5.53.43.95,1.66,5.14,1.88,5.3.56.4,1.88-.59,2.41-.41.14.05.4.86.69,1.14-1.89-4.96-4.44-7.67-7.26-12.19-.4-.64-.79-1.3-1.21-1.93Z"/>
    <path class="st1" d="M257.67,480.82c-.4-.7-.19-1.29-1.2-2.56-.15,1.13.04,2.13,1.2,2.56Z"/>
    <path class="st1" d="M328.19,247.75c1.52-.68,4.58-.74,5.15-3.33-1.56-.47-3.95,1.76-5.13,2.7-.66.52-1.73.87-1.94,1.84,1.29.54,1.54-1.03,1.93-1.21Z"/>
    <polygon class="st1" points="187.69 66.63 186.43 66.6 187 69.13 187.62 69.14 187.69 66.63"/>
    <path class="st1" d="M373.25,408.07l1.89.05c-.19-.92-.98-1.47-1.86-1.3l-.03,1.26Z"/>
    <path class="st1" d="M117.14,373.58l1.94-1.84c-1.19-.24-2.12.68-1.94,1.84Z"/>
    <path class="st1" d="M426.19,575.96c-.54-1.02-1.7-.74-1.79-2.03-.11-1.52.7-2.93.82-4.41.12-1.52-1.07-2.44.11-4.29.7-1.1,1.63.7.69-2.31l-.67,1.24c-.67.45-2.31-3.42.08-2.52-1.49-4.82-.19-4.56-.44-7.89-.06-.82-.94-1.46-.97-1.95-.04-.7,1.41-1.97,1.15-3.65-.06-.38-1.97-.34-1.23-2.58.15-.46,1.39-.31,1.3-.65-1.66-5.98-.09-5.02.13-10.12.49-11.21-.83-23.51-.85-34.75,0-2.18,1.04-4.72.85-7.58-.1-1.47-1.1-2.67-1.03-3.68.07-1.06,1.1-2.12,1.18-2.64.04-.27-1.19-.26-1.28-.72-.19-1.08.84-3.21.82-4.92-.03-2.33-.52-5.41-.63-8.18-1.14-26.92.78-54.91,1.09-82.46-2.19-1.96-.52,2.08-2.23,1.2-2.55-1.32-.1-4.4,2.31-4.35.02-2.05-.5-3.76-.48-5.7,0-.42.03-.84.03-1.26.27-31.06-.07-62.66.59-93.74.04-1.85-.46-3.33-2.48-2.93l2-2.13c.11-8.95.6-17.89.65-26.84-.37-.09-1.03.09-1.26-.03-.39-.21-.8-.98-1.23-1.3-.03-.2.05-.43.02-.63.58.02,1.77.81,1.87.68.06-.84.02-1.69.07-2.52.2-2.93.78-6.42-1.67-8.57,2.12-.59,1.86-2.81.11-4.1l.02-.63,1.89.04c.18-.15-1.11-3.87-1.15-4.44-.01-.16.58-.84.55-1.53-.11-2.77.05-9.78-.51-11.76-.41-1.46-1.65-1.19-1.56-1.59.16-.69,1.05.48,1.31-1.54.2-1.53.12-3.45.13-5.05.06-5.78-.69-5.57-1.83-10.27-1.43-5.9.79-3.61,1.58-4.27,1.18-.98-.97-1.25-1.19-1.75-.24-.54-.58-3.24-.55-3.97.04-.1.13-.22.24-.33.52-.57,1.65-1.21,1.71-1.51.12-.61-.52-1.81-.56-2.54.31-1.52,1.06-4.66.83-5.96-.12-.68-1.56-.13-1.83-.44-.53-.59.05-3.05,0-3.73,1.14.43,1.78-.91,1.94-1.84-.81-.64-1.02-.72-1.23-.46-.02.02-.04.05-.06.07-.14.2-.29.54-.62.97-.03-1.19-.58-2.03-.54-3.17l2.49,1.33c.05-1.56-.45-3.93-.48-5.7-.03-1.88.23-3.8.15-5.68-.12-2.64-1.44-7.28-1.44-8.57,0-.52,1.56-2.05,1.65-3.73.05-.92-.5-2.04-.47-3.16.34-11.21-.1-22.31-.36-33.5-.05-.84-.39-1.37-1.21-1.61.14,4.4.72,8.87-.03,13.27-.92-.02-1.27-11.64-1.23-13.3.05-1.87.65-3.65.78-5.66l1.28-.6-.64-48.01,2.5.69c.36-2.18.61-4.31.57-6.51-.12-7.26-1.09-15.43-1.06-22.86,0-1.81,2.21-9.63-.05-10.42-3.09-1.07-2.21,4.76-2.38,6.57-.11,1.26.45,1.84-1.3,1.53,1-1.53-.34-3.33-.29-4.1.07-1.08,1.63-2.23.5-4.1-2.69,2.28-1.62.13-2.93-.75-2.14-1.44-3.36.73-2.61-4.45l-1.89-.05c-.17.79.11,3.6-.1,3.79-.18.15-1.51-.22-2.14-.02-4.86,1.52-4.98.04-9.54-.33-3.2-.26-7.76.39-11.36.38-7.15-.02-14.8.51-21.49-.54-6.43-1.01-6.91-.81-10.2,4.75-.84-.82.95-2.12.14-3.18-.16-.22-4.64-1.94-5.1-1.99-1.95-.2-3.22,1.62-3.78,1.59-1.62-.1-6.11-1.3-8.22-1.31-2.46-.01-4.24,3.33-6.57-.76l-1.65,2.47-2.44-3.2c-1.04.31-2.08,2.77-2.42,2.95-.76.4-2.18-.09-2.4.07-.17.13,1.28,2.99-1.05,3.75.65-6.81-7.04-7.89-11.26-4.08-.59-2.4-1.25-.62-2.46-.67-.39-.01-.27-1.28-.7-1.35-.7-.11-1.67.57-2.47.49-19.37-1.87-40.23-1.82-59.63-2.07-.11-.02-.21-.05-.31-.09-1.43-.57-2.17-3.01-2.23.66-1.38-.02-2.69-.78-4.08-.8-7.5-.11-18.72-.31-25.21,1.4-4.66,1.23-4.62-.61-7.62-.99-.99-.13-6.46-.26-7.6-.22-1.44.05-1.12,1.66-1.97,1.84-.55.12-2.33-.76-3.7-.67-4.64.29-6.59,1.56-11.73-.05-.51-.16-.97-1.31-1.52-1.38-.76-.1-2.18,1.59-3.59,1.35-1.29-.22-2.34-4.1-6.41-3.08-.64.16-.83,2.47-1.11,3.17-.39.27-5.15-3.53-8.02-1.97-1.15.63-2.42,6.14-4.38,6.09-2.99-.07.67-4.31.46-6.33-2.12-.55-3.64-.09-5.41-.14-28.27-.67-55.97,1.08-83.97.95-6.83-.03-15.9.98-22.03.1-.42-.06-.27-1.21-.74-1.3-2.38-.43-6.73,2.54-7.85,1.03-.59-.8,1.29-1.02-1.86-1.31-1.19-.11-3.64-.33-4.63-.12-.49.11-.44,1.25-.81,1.25-.76,0-1.88-.95-2.97-.77-.29.05-3.77,3.57-3.72,4.37-2.23-1.11-1.07-2.96.13-4.41-2.72-1.31-3.91,1.79-4.16,1.79-1.53,0-1.43-2.18-2.55-2.53-.2-.06-3.88.34-4.22.44-.96.29-.48,2.46-1.31,3.02-.44.3-1.58-.05-1.72.08-.47.46.56,2.64.38,3.4-.16.7-1.22,1.09-1.46,1.63-.24.54-.81,10.72-.69,11.7.14,1.22,1.27.87,1.31,1.33.17,1.92-1.62,7.07-1.61,9.37,0,1.25,1.4.65,1.34,1.86-.14,2.44-1.14,5.58-1.34,7.45-.26,2.5,1.63,3.23,1.66,3.43.17,1.44-1.5,3.28-1.44,4.26.02.37,1.33.31,1.32.7-.02.52-1.72,3.83-1.99,5.71-.81,5.63,1.37,6.74,1.35,10.87,0,1.73-.85,3.39-.6,5.17,1.71-.64,3.68.85,2.49,1.96-.33.31-6.51-.78.51,3.54.14,2.01-2.33,2.12-2.63,3.68-.38,1.97.96,6.48.94,8.86-.05,5.85-1.53,12.88-1.56,18.84-.05,8.12,1.47,16.4,1.2,24.1-.18,5.03-.43,16.24.76,20.69.15.57,1.84.43,1.15,2.63-.14.44-1.26.34-1.32.75-.23,1.62-.09,5.96-.32,8.12-.33,3.15.12,12.1,1.02,15.06.17.55,3.55,1.2-.71,2.01,1.8,3-.18,6.13.42,8.74.11.49,1.26.46,1.27.81.02.94-1.41,2.99-1.48,4.97-.07,2.09,1,4.32,1.02,6.34.04,4.27-3.04,12.52,3.56,13.67-.59-1.36,1.28-6.35,2.17-6.83.99-.53,9.04,3.4,10.88,3.44,3.15.06.44-5.86.6-6.58.19-.83,1.81-1.65,1.81-1.93,0-.35-1.39-.73-1.82-1.49-1.58-2.8-2.6-10.28-1.89-13.12.11-.45-.48-1.43-.27-1.59.53-.43,1.94.94,1.9-.87-.07-2.87-2.29-3.49-2.41-4.02-.34-1.47.28-4.05.02-6.03-.55-4.15-3.76-10.37-4.62-14.71-.11-.54-.81-1.48.48-1.66,2.34-.33,2.81,3.42,4.02,4.2,3.41,2.19,4.03,3.7,6.8,5.8,3.65,2.76,7.68,5.47,11.43,8.26,2.63,1.96,5.68,4.42,9.03,4.66-2.23-1.87-1.39-3.65-2.03-5.76-.94-3.14-14.8-14.76-18.19-18.12-1.72-1.71-1.68-3.07-1.82-3.21-.61-.63-2.45,1.7-3.17,1.18-.47-.34-1.9-5.39-2.37-6.37-5.51,2.15-3.44.01-4.52-1.86-.37-.64-1.49.05-1.72-2.38-.36-3.75,1.71-.22,2.13.12,1.22.98,3.37,1.98,4.12,3.49,4.08-1.69,4.95,3,6.16,5.84,3.55-.54,5.22,4.62,8.74,3.71-1.66-2.96-4.65-5.68-6.49-8.3-.68-.97-1.07-3.57-1.58-4.05-.41-.4-1.51-.2-2-.87-.95-1.31,1.01-2.6-2.8-1.33.15-4,1.62-4.5-1.78-7.27-.57-.46-1.71-.32-1.81-.42-.22-.23.62-1.42.52-2.08-.12-.79-1.19-1.5-1.41-2.34-.48-1.82,2.05-1.87-2.1-1.96-1.07,1.98-2.41,2.5-2.52-.06.84,0,1.68.05,2.52.06,1.34-2.48-.8-4.07-3.02-5.13-.35-.17-.7-.67-1.25-.66.01-1.92-1.64-1.23.71-3.14-3.23.59-1.17-1.91-2.09-3.26-.68-1-3.38.16-1.87-2.53.59-1.05,2.29.64,2.75,1.09,1,.98,1.64,2.38,2.5,3.47.04.05.81-.12,1.28.46,1.04,1.3,1.14,4.41,2.37,5.04.86.44,1.88-2.78,4.98,1.54,1.48,2.05,1.86,4.53,3.02,6.25,1.04,1.55,4.51,3.3,5.59,4.51,1.85,2.09,6.55,8.25,8.19,10.69.69,1.03.71,2.37,1.25,3.12.75,1.05,2.5,1.13,2.68,1.45.36.63-.22,2.37.32,3.7.81,2,4.98,4.21,7.13,4.61-1.11-9.73-4.78-18.05-10.05-26.15-.51-.78-1.78-1.58-2.46-2.59-1.37-2.06-1.16-2.47-1.78-4.47-.38-1.21.15-2.49-1.81-3.2-.19-1.49-1.35-4.27-3.04-4.5l.02-.63c.29-.94-.29-1.32-.58-1.91-.39-.8-.93-1.38-1.21-1.93-.41-.82-1.8-2.42-1.83-2.57-.11-.6,2.06-1.91-1.2-2.56-.16-.03-1.11.75-1.27.6-.65-.58-.3-4.47-.81-5.7-.09-.2-2.44-2.88-2.76-3.23-.07-.08-.8.16-1.09-.22-.69-.89.84-1.32-1.39-1.74.01-.42.02-.84.03-1.26l2.52.07c.13-3.11-1.26-2.71-1.19-2.87,1.19-2.75,2.41.76,2.63.92.27.19,1.15-.35,2.1.08,1.71.79,5.62,5.34,7.76,6.84.78.55,1.03,1.32,1.82.43.77-.88-.35-1.92,1.98-3.1l-3.77-.74c-.37-1.33-.78-3.54-1.13-5.08-.37-1.35-1.92-1.1-2.51-1.75-1.01-1.13-1.25-3.85-1.89-4.54-.53-.58-1.9-1.66-2.94-2.74-.76-.78-3.93-3.16-4.36-3.68-.14-.17-1.8-3.53-1.76-3.73.25-1.23.85-.7,1.58-.27.47.28,4.22,3.65,4.37,3.91.82,1.37-1.69,1.25.85,1.9.81.21,1.23-.2,2.17.69.34.33,2.13,3.49,2.13,3.84,1.91.53,1.26-1.43,1.34-3.12.09-1.71.69-4.36-1.13-5.08.03-.71-.63-1.48-.3-2.55.41-1.3,3.77-3.85-.18-3.15l-.56-2.54c.02-.79-.07-1.81.07-2.52.05-.3.34-.55.65-.61,2.68,1.71,1.96,2.24,3.69,4.19,15.5,17.42,26.27,34.67,38.35,54.38.4.65.82,1.29,1.21,1.93,3.17,5.2,6.85,10.22,9.98,15.45,2.94,4.93,4.31,9.47,8.19,14.07.38.45.03,2.37,1.84,1.94.3-.23-1.6-2.12-1.83-2.57-1.39-2.72-1.9-6.28-4.19-8.65-.28-.77.26-1.28.96-.91,1.12.61,8.46,14.47,9.6,16.74,1.58,3.16,4.41,13.96,8.49,13.28,3.75-.63.03-5.18-.52-6.68-5.97-16.34-11.12-21.74-20.34-35.47-1.66-2.47-1.06-4.46-4.01-5.73.04-2.65-2.64-2.48-3.7-3.25-.7-.51-1.96-1.37-2.47-1.96-1.78.37-.62,1.59-.68,1.88l1.83,2.57-2.51-.69.02-.63c-.23-.55-1.13-1.5-1.21-1.93.3-.14.54-.3.72-.47.29-.28.4-.58.29-.85-.11-.25-.4-.46-.96-.57.05-.14.53-.36.65-.61l.63.02c-.12-.18-1.28-2.88-1.79-3.84-2.19-4.1-3.94-9.5-6.59-13.43-.32-.47-1.07-.5-1.25-.66-.16-.15.66-1.84-1.54-1.3l-.34.62c-.04-.11-.6-.16-.6-.38-.03-.75,1.14-1.29,1.03-2.16-.1-.79-1.26-1.82-1.37-2.94-.07-.66.71-1.88.51-2.09-.13-.13-1.76.04-2.25-.67-.25-.36.48-1.44.31-2.1-.33-1.35-2.67-4.64-3.22-5.56-.33-.55.53-1.54.34-1.84-.19-.3-3.36-.91-4.27-2.46-.65-1.1-.34-2.56-.77-3.27-.29-.47-1.58-.61-2.04-1.49-.44-.86.38-3.85-.22-4.37-.38-.32-2.19.22-3.12-.42-1.52-1.05-2.62-7.7-2.93-8-.3-.29-2.14.85-2.5.56-.16-.12-1.12-3.22-1.2-3.81,1.86-1.11.83-2.04.71-3.14-.22.07-.52-.14-.59.36-.15.71-.1,1.43-.11,2.15-3.24.3-3.4-3.43-3.64-5.78-.08-.81.12-1.7.07-2.52.57.49,2.25.29,3.41,2,1.01,1.48.7,2.29.86,3.8,2.6-.81,3.96,3.67,5.14,4.97,5.93,6.57,12.01,13.17,18.16,19.39,1.32,1.34,3.29,3.79,4.35,5.41,1.98-.69-.85-3.05-1.29-4-1.55-3.36.32-3.54.18-4.46-.09-.56-1.13-1.1-1.41-1.77-.51-1.23-1.09-4.19-1.83-5.03-1.29-1.48-2.61.83-3.38-3.25-.41-2.18.48-3.73-1.11-5.71.06.34.05.76,0,1.21,0-.38,0-.78,0-1.21-.03-.04-.57.04-1.05-.28-.22-.14-.18-.81-.29-.86-.31-.14-2.73.83-3.54-.4-.41-.63.05-2.66-1.3-3.36l2.5.38.7-2.5c-1.56.61-7.11-.6-7.48-1.84-.15-.51.57-1.15.63-1.5.58-.21.58-.42.02-.63-.12-.08-.82.17-1.1-.2-.36-.46,0-1.56-.13-1.7-.47-.49-2.38.46-2.86.37-1.52-.31-.57-3.27-.81-4.28-.04-.05-.04-.09-.07-.14-.25-.43-1.06-1.73-1.14-1.79-.29-.23-1.69.09-2.86-1.28-1.07-1.26-3.11-5.07-3.25-6.45-.04-.35-.48-.87-.6-1.28-1.24-.44-1.41.39-2.49-1.33-.85-1.34.29-1.39-1.81-3.2-.17-.15-2.13-.92-2.33-1.49-.23-.65.64-1.37-.05-2.05-1.13-1.11-3.28-.52-4.37-2.06-1.23-1.73-.34-5.4-2.43-5.39,2.15-2.63,1.9-.01,3.15,1.49,3.58,4.3,8.24,7.71,11.94,11.55.35.36,1.44,2.68,1.53,3.19,2.1.49,4.83,3.63,4.9,5.81,0,.1-.99,1.2-.68,1.88,1.17-.3,1.53.47,1.31-1.86,1.87-.24,1.88,2.05,2.46,2.59,7.35,6.8,12.68,13.76,19.02,21.67,10.28,12.84,19.74,26.77,29.89,39.92.61.79,4.23,8.7,5.44,5.1,1.55-4.62-.69-4.14-2.26-6.27-4.76-6.44-10.15-14.74-14.59-21.54-.4-.61-.81-1.29-1.21-1.93-5.72-8.93-8.85-17.25-13.84-26.25-.1-.18.25-.99-.02-1.19-.55-.42-2.65.38-3.09-.78.1-.32-.03-.86.03-1.26.01-.1.58-.17.4-1.21-.51-2.98-3.39-6.5-3.92-9.62-3.31-.07-.02,3.35.38,4.26.22.5,0,1.2.11,1.44l-.65.61c-.19-.12-1.09.2-1.7-.2-1.44-.94-1.9-8.35-3.69-10.68-1.44-1.86-1.35-.62-3.06-3.87-.74-1.41-2.97-2.38-.84-3.81l2.12,3.21c.27.06,3.44,1.42,3.59,1.54.48.39.46,1.41.74,1.73,2.51,2.81,5.54,5.24,7.89,8.18,1.3,1.63,7.02,11.67,8.96,11.21,1.42-.34,3.73-4.9,3.67-6.5-.01-.39-1.26-.35-1.3-.77-.1-.9.87-2.04.79-2.99-.03-.28-2.1-3.1-2.33-4.69-.12-.88,1.37-1.55,1.23-2.35-.04-.21-2.26-1.47-3.1-2.31,1.05-.49.63-2.13.71-3.14-1.67-.36-1.29.37-1.31,1.86-.12-.23-1.31-.39-1.15-1.5.29-2.05,3.57-3.87-1.28-1.72.78-2.62-1.87-3.89-2.26-4.62-.43-.81.12-2.18-.22-3.19-.26-.78-3.17-4.46-.7-4.75,3.36-.4,2.58,2.04,3.72,3.72.72,1.06,2.15,1.4,2.8,2.26,5.98,7.95,8.86,11.52,15.86,18.78,2.4,2.48,10.53,15.87,12.89,6.96.45-1.7-.56-2.55-.93-3.83-1.94-1.73-2.74-4.5-2.34-7.01-.33-.29-1.68-.16-2.18-1.31-.33-.74-.87-5.47-1.11-6.96-.17-1.02.44-1.97.17-3.18-.53-2.33-3.99-5.83-4.04-6.21-.1-.75.81-2.33.81-3.65,0-1.37-2.86-8.24,1.01-4.7,1.47,1.34,3.43,4.37,5.22,6.12,2.63,2.57,5.55,5.07,8.34,7.47.76-.91-.52-2.18-.27-3.4.09-.42,1.25-.43,1.33-.67.71-2.23-1.16-1.45-2.03-2.22-.33-.29-2.65-3.2-2.89-3.59-.35-.57-2.2-4.4-.23-3.48,2.1.98,10.71,12.8,12.55,15.48.73,1.06,1.62,1.82,2.44,3.22.4.68.74,1.7,1.2,2.56.78,1.47,1.68,3.02,2.41,4.48,4.16,8.32,6.08,13.21,12.1,20.83.64.82,1.51,1.83,2.45,2.29-3.3-8.59-9.37-15.76-13.9-23.73-.83-1.47-1.62-2.99-2.41-4.48-.42-.81-.76-1.71-1.2-2.56-.8-1.57-1.62-2.21-2.13-2.8-.12-.14-.23-.28-.31-.42-1.57-2.74.51-3.8.75-5.38.46-3.07.8-8.48-.95-11.04,4.25-1.81,3.17,1.08,4.96,3.59,2.85,3.99,6.7,8.18,10.43,11.33.36-1.2-1.04-2.03-1.08-2.97-.02-.32,1.26-5.36,1.46-6.04.26-.86,3.42-6.79,3.82-7.03,1.87-1.13,3.32,2.87,4.94,3.25.5.12,3.68-.01,3.83-.14.38-.34-.18-8.4,3.09-9.37,2.3.89,2.11,5.29,3.76,5.67.43.1,3.78-.4,3.93-.53.37-.31-.03-1.43.12-1.79-2.58.56-1.03-3.87,1.05-3.78.51.02.22,1.25.28,1.29.34.23,2.31-.18,2.53.06.12.14-.25,2.15.22,3.19.39.85,1.7.97,2.2,1.75.98,1.5.79,4.2,1.45,5.85,2.9,7.33,7.88,13.3,9.83,20.52.3,1.1.21,2.35,1.18,3.19-.09.67-.15,1.9-.07,2.52.07.51.88,2.56,1.21,1.92.54-1.06-.51-2.12-.56-2.54-.09-.79.19-1.79.07-2.52-.13-.77-1.1-1.83-1.2-2.56-.54-3.96-.74-9.91-.9-13.92-.07-1.67.14-3.38.13-5.05,0-.72.35-3.15-.23-3.17l-.4,3.15-1.28.6c-.83-4.68.78-5.55.66-8.42-.08-1.92-2.37-3.76-1.55-6.12-1.19.15-.76,2.85-2.35,3.07-.79.11-1.88-1.15-2.09-1.92,2.31.5,2.5-1.93,4.03-2.62.48-.22,3.47-.19,3.65-.04,2.06,1.78.08,6.41.43,7.53.37,1.18,2.12.84,2.38,1.17.38.49-.27,1.97.1,2.38.21.24,1.38-.1,1.68.19.31.3.44,3.5.65,4.35l2.53-.56c-1.53,3.26.01,2.64.49,3.66,1.17,2.51,2.95,5.13,1.79,7.68l3.67,2.7c.55-3.1.43-5.21.22-8.2l.63.02c.04,1.24,2.34,1.87,2.42,2.02.12.21-.59.99-.6,1.42,0,.43,1,.34,1.32,1.29.52,1.51.47,3.26.4,4.84.2.26,1.77-.68,1.9-.59.37.28,2.54,7.65,2.78,8.76,3.38,15.32,3.94,32.7,7.75,47.72.26,1.04.53,2.17.86,3.19.54.01.42-2.47.4-3.15-.22-7.54-1.79-12.08-3.15-18.86-.92-4.63-.84-10.9-1.67-15.65-.9-5.1-4.49-16.06-4.27-20.48.13-2.65,2.04-7.2,2.53-9.96.48-2.77.8-16.12,4.57-15.95.29.01.16.9.77,1.25.54.31,1.63-.1,2.35.73.65.76,2.39,6.24,2.64,7.66,2.06-.42,3.17-.82,4.47-2.41l3.96,19.67c1.81-.47,1.85-.78,2.45,1.01,2.63,7.75.95,16.8.59,24.62-.4,8.66-.22,18.63-1.33,27.14-.29,2.26-1.98,4.72-2.06,5.62-.02.22,1.11.26,1.48,1.7.65,2.54-.08,5.05.52,7.53.49-3.15,3.67-8.83,3.85-11.58.18-2.85-1.13-6.58-1.12-9.5.04-12.45,1.65-25.46,1.71-37.86.02-3.71-2.24-8.64-.97-12.97,2.15,1.49,2.53.01,3,2.98,1.94,12.19.3,24.91,1,37.22.04.77.15,3.38,1.16,3.51.66-6.61-.09-13.32.04-19.89.02-1,.58-2.02.6-3.12.26-13.08-1.58-22.22,4.49-34.19.52-1.02,1.69-1.1,2.1-1.83.32-.58,1.33-7.27,2.99-5.12.88,1.14.32,2.67,1.77,2.57,3.84-.27,4.27-3.06,7.38-3.57,1.15.85,2.67,16.15,2.73,18.65.52,19.22-4.6,38.47-4.69,57.69l2.52-.26-2.23,12.9c-1.13.21-.38-.94-.59-1.28.04-1.05.04-2.1.08-3.16.04-.84,0-1.69.07-2.52.02-.28.85-2.4.7-2.5-1.82-.37-1.15.43-1.31,1.85-.11,1.04.04,2.12-.08,3.16-.13,1.07-.61,1.88-.7,2.51-1,6.83-2,13.63-3.08,20.45.14,1.95,1.77,4.16,2.88,5.87.37.57-.14,1.17,1.38.86l2.61-26.76c1.17-9.09,4.06-17.94,5.11-27.03.53-4.55-.1-11.85.88-15.93.73-3.02,2.64-4.89,3.55-7.28,2.82-7.38,5.1-13.11,8.39-20.34.54-1.19,2.15-6.62,2.4-6.88.9-.93,1.14.1,1.23.97.19,1.89.04,5.67-.18,7.61-1.13,10-2.3,17.4-2.62,27.67-.14,4.75-.31,9.5-.72,14.21l2.75-8.13c.74,1.05-.23,3.98,1.45,4.45,1.14-19.09,9.15-36.72,18.14-53.2.65,3.52-.12,7.63-1.26,10.99-9.57,28.12-20.9,58.64-26.73,87.91-.23,1.17-1.37,7.97-1.02,8.33,1.38.03,3.05.51,3.72-.95,2.76-10.18,7.05-20.48,9.71-30.62,1.37-5.23,1.87-10.46,3.06-15.62,1.26-5.46,4.12-13.15,4.8-18.27.22-1.65-.64-.47-1.24-.32-.57-1.14,1.79-7.83,2.45-9.42.87-2.11.94,2.05,1.9.06,1.32-2.73,3.37-9.76,5.21-11.7.53-.56,1.66-.37,2.23-.89,1.22-1.12,4.63-9.07,2.33-10.52,1.98.71,4.23-2.5,3.24-3.7-.21-.25-2.52.51-1.85-1,.88-1.98,2.79,2.02,3.54-1.45.21-.99-.86-1.82-.85-2.9,0-.39,1.15-3.96,1.32-4.09.31-.23,2.14,1.55,2.47,1.33.26-.18,2.77-4.55,3.25-5.32.36-.57-.29-1.26,1.35-.87-.82,6.51-.33,13.34-1.16,19.85-.45,3.54-2.5,7.17-3.25,10.84-.22,1.07-1.42,4.86.02,5.18,2.59.56,5.99-4.66,7.24-6.62.87-1.37.84-3.12.99-3.2.38-.19,1.39.18,1.69-.1.31-.29.09-1.7.48-2.43.75-1.38,3.46-.94,2.35-4.99,4.08.82,1.47,3.21,1.15,5.48-1.02,7.15-3.37,11.61-4.86,18.17-.74,3.27-.45,6.46-1.09,9.23-.39,1.71-2.11,3.19-2.72,4.92-.99,2.83-1.73,7.35-2.59,10.56-.22.83-1.2,1.77-.71,3.14.76.23.92-1.01,1.3-1.86,1.7-3.72,2.53-10.5,4.12-13.33.53-.93,1.79-.52,2.62-1.47,1.55-1.79,1.32-6.53,3.11-9.52,1.74-2.91,4.95-6.29,7.14-8.67,1.11-1.21,1.81-2.79,3.23-3.74.49,2.88-1.47,5.74-1.68,8.47-.04.47.15,2.98,1.06,2.87-.47-3.32,2.24-2.85,2.68-3.46.42-.59.39-1.92,1.01-2.71.79-1,6.02-7.25,6.47-7.45.26-.12.64.04.94.03-2.21,3.15-1.61,6.4,2.58,4.33.43-.21,7.27-5.27,7.57-5.64,1.36-1.67,1.06-3.72,2.59-5.05.55-.48,4.41-2.13,4.83-2.03,3.18.72-3.43,9.81-4.96,11.01l1.42,3.42c3.9-4.05,8.45-6.51,12.9-9.76,2.11-1.54,3.3-3.09,5.06-4.73.56-.52,4.43-3.1,4.92-2.58l-9.88,15.85c1.26,1.52,1.23-.88,1.57-.85.4.04,1.24.83,1.58.62.16-.1.56-2.44,1.36-3.48,2.63-3.41,7.06-7.36,9.96-10.55,1.41-1.56,4.73-1.13,6.56-3.79,1.87-2.72.01-4.81,4.81-4.33-1.39,2.92-4.3,6.65-5.29,9.66-.63,1.9,2.37.31,3.13.39,1.78,2.19-7.09,8.71-8.47,10.2-3.27,3.53-5.82,8.08-10.05,10.8-1.16,3.12-15.37,17.93-15.41,19.49-.03.9,1.87,2.37,2.54,2.61,2.49.89,9.1-7.24,11.31-8.78,2.77-1.93,7.44-3.35,10.18-5.52,2.04-1.61,2.76-4.63,5.48-4.27-4.29,5.08-8.94,10.33-13.68,15.12-15.6,15.76-35.25,28.54-50.43,44.6-3.38,3.58-6.26,7.35-9.41,10.96-3.5,4.01,1.64,1.52,3.61.12,7.34-5.2,17.07-16.13,24.66-22.5,13.17-11.05,25.07-17.75,39.31-27,4.22-2.74,8.05-7.45,12.27-10.42,2.23-1.57,5.39-4.06,7.99-3.57.68.68-4.45,9-5.32,10.27-1.37,2.01-8.6,7.84-4.33,9.02l.27.96-26.04,30.29c.37.75,1.88.31,2.5.04,1.95-.85,5.77-4.23,8.19-5.64,6.8-3.95,14.01-7.1,20.69-10.95.42-.24,2.49-3.69,3.85-2.42.99.93-2.76,2.68-3.23,3.07-8.9,7.21-17.53,14.9-25.24,23.33l21.57-3.84-7.44,6.75-13.18,9.13c0,1.34,2.9.48,3.69.31,2.32-.49,6.43-1.35,8.51-2.06,1.23-.42,1.62-1.89,3.04-1.65.87,4.01-2.37,2.24-3.74,3.18-.49.33-.4,1.71-.95,2.23-.84.79-4.27.97-5.58,2.23-.69.66-1.77,2.97-2.02,4.02.7.7,16.8-4.32,19.07-5.18.55,4.47-2.9,4.29-5.14,5.93-2.48,1.82-2.05,1.59-4.57,3.02-1.5.85-4.28,5.1-5.84,6.42,4.06.33,7.45-2.75,11.03-4.26,2.18-.92,6.01-2.43,8.1-2.81-1.65,2.42-2.96,3.05-4.81,5.01-.38.41-.27,1.49-.51,1.69-.45.38-2.09-.22-3.08.32-.67.37-1,2-1.68,2.77-1.26,1.43-3.04,2.2-3.43,4.84-.13.87.61,2.56.44,2.7-.49.4-7.3.12-8.26.71-.86.53-.87,2.74-1.45,3.66-3.1,5.01-10.39,8.7-14.16,12.96-3.55,4.02-1.87,2.86-6.39,6.23-6.04,4.5-12.01,9.19-18.08,13.69,1.03.19,1.88-.23,2.79-.62,4.73-2.03,10.69-6.06,14.83-9.02,6.7-4.79,10.85-7.54,18.94-10.52,2.89-1.07,7.31-1.57,10.3-2.77,2.11-.85,5.59-3.67,7.84-4.06,1.73-.3.76,1.28.24,2.06-1.99,2.97-5.38,4.36-7.53,6.14-4.1,3.4-9,10.86-13.21,14.94-.43.42-1.88,1.56-1.31,2.18.51.56,4.5-3.11,5.44-3.66,1.44-.84,7.07-4.57,7.5-4.7.34-.11,1.27.65,2.4.3,3.71-1.13,7.27-3.42,10.93-4.77,4.36-1.61,9.04-2.57,13.32-4.44.04,1.39.61,2.58.5,4.03-.15,1.88-2.69,6.96-2.6,7.51.15.85,1.77,1.35,1.64,2.54-.18,1.64-2.9,3.37-2.57,5.42l3.2-1.81c-.64,1.41,1.02,2.07,1.05,2.24.94,4.37-2.36,12.43-4.8,16.18-1.32,2.04-8.11,8.02-8.27,8.82-.13.64,1.67,2.65,1.13,4.01.52.56,4.97-.82,4.35,1.09-1.31,4-10.12,6.57-12.1,10.77-3.11,2.52-13.33,5.19-15.49,7.5-1.26,1.36-1.33,3.9-2.08,5.59,2.54.86,5.58-1.65,7.99-1.95,2.39-.3,5.14.45,7.5.12,1.51-.21,4.29-2.04,5.87-2.15.53-.04,4.49,1.01,4.62,1.2.09.13-.77,2.73-.91,2.94-.18.28-4.27,4.73-4.55,4.92-.75.52-2.82.58-2.99.76-2.39,2.63,6.25-.93,6.31.16,1.36,1.52-11.95,9.59-13.04,10.41-3.12,2.35-12.69,8.74-3.55,9.38,3.92.28,12.43-1.88,15.65-.89.68.21,1.54,2.18,1.22,3.01-1.46,3.77-28.81,11.34-32.83,15.44,1.27.65,3.28-.03,4.67-.26,6.39-1.06,13.75-.65,20.24-.06,2.13.19,4.92,1.43,6.95,1.47,4.03.08,5.66-4.59,9.09,1.79-.91,1.55-3.16,2.31-4.15,3.46-.44.51-.29,1.68-.43,1.81-.2.2-3.33-.7-5.62.22-1.85.75-15.22,9.23-16.44,10.56-.65.71-1.59,2.5-1.01,3.14.76.86,21.81,2.82,22.64,3.76.09.1.02,1.71-.13,2.13-.24.65-4.56,2.23-5.56,2.57-11.69,3.87-23.03,6.23-35.4,6.8-1.01.05-2.04-.74-2.95-.56-.42.08-4.28,3.61-4.32,3.9-.1.92,4.59.88,5.05.8,3.55-.64,7.9-3.01,11.92-3.65,3.27-.52,5.31.23,7.97,0,1.74-.15,6.84-1.98,8.28-1.57.81.23.7,1.8,1.3,1.88.59.07,2.76-.66,4.41-.56,3.04.18,8.26.83,11.32,1.25,1.43.2.75,2.33,2.53-.85,2.24.9-2.73,5.16-3.17,5.4-2.08,1.15-8.45,2.16-11.28,3.36-5.3,2.24-13.57,6.12-18.74,8.79-5.1,2.63-1.65,2.38-1.76,2.68l-1.96,2.79c5.33-1.73,10.67-3.16,16.27-3.93,3.03-.41,11.24-1.4,13.97-1.36,1.91.02,3.85,2.04,4.32-.11,1.21,1.41,4.63,1.37,6.6,1.43.53-1.26-1.23-1.26-1.23-1.66,0-.6,1.12-3.99,1.7-4,1.94-.04-.27,4.75.8,5.69.3.27,1.95-.45,1.22,1.28-1.36-.28-1.48,1.55-2.34,1.79-1.22.34-5.65-1.12-7.81.5-.09,5.33,2.19,1.84,4.79,3.04.25.11,3.81,3.55,3.86,3.81.18.93-1.21,1.6-1.84,1.95-3.41,1.87-9.58,2.62-13.94,3.47-2.13.42-14.72,1.87-14.75,3.25,3.29,2.06,7.3,4.57,11.06,5.55,1.1.29,2.09-.42,2.91-.27,1.19.21,3.6,3.65,3.56.55,1.12-.23.37.99.63,1.22.22.2,1.45-.76,1.87-.53.1.05-.87,1.49.28,1.9,3.4-1.37,3.53.67,3.75.75,2.59.88.95-1.35,1.3-1.91,1.65-2.68,3.73,1.59,6,.82-.96,1.71.05,5.97-.31,7.12-.3.95-1.74,1.37-1.89,2.64-.17,1.47,1.61,2.5,1.2,4.1l-38.55.89-.05,1.89c.39.41,9.66,1.57,11.2,1.99,4.21,1.16,9.72,5.19,13.46,6.9,1.25.57,2.34.31,4.12,1.33,2.13,1.22,1.72,1.4,3.06,3.56-.39.6-1.81.26-2.53.25-15.63-.25-36.98-8.91-52.05-13.99-.2-.07-.74-.89-1.67-1.18-.94-.29-1.93-.04-2.71-.2-.56-.12-2.25-1.56-3.15-.4,0,.2,2.44.8,3.14,1.03,1.41.46,3.21.74,4.38,1.38,1.39.76,2.31,2.65,3.95,3.35,9.35,3.99,24.53,10.56,32.74,16.29,2.92,2.03,6.93,7.11,9.73,8.67,1.38.77,3.16-.07,3.36.14.12.13-.1,2.21.61,3.43.75,1.29,3.63,2.43,4.09,3.19,1.05,1.75,1.28,5.06-1.46,4.87-.4-.03-.27-1.17-.77-1.31-2.32-.65-8.98-1.74-7.52,2.33.83.3,3.78-.91,4.11-.54.17.2.75,4.24,1.13,5.08-2.33.36-4.76-3.13-6.92-1.76-.62.4-.23,1.8-1.58,1.58-.82-.13-4.02-2.86-5.36-3.58-11.37-6.14-25.5-10.18-37.59-15.41-1.04-.45-1.79-1.84-2.92-2.21-.21-.07-4.24-.5-4.42-.36-1.06.82,3.09,2.85,3.56,3.08,6.42,3.25,22.21,8.32,26.93,12.59,3.88,3.51,9.07,12.06,13.59,14.82.73.45,1.96.2,2.37.49.27.19,1.17,4.23,2.77,5.71,2.18,2.02,1.36.14,3.4,3.83,1.01,1.83,1.14,1.48,3.13.71l-.08,3.15c-.53.56-3.04-1.57-3.73-1.99-11.13-6.74-20.18-17.1-32.92-21.06,2.59,3.5,7.32,4.56,10.15,7.9,1.24,1.46,2.63,5.33,3.4,6.01,1.06.93,5.97,2.13,6.58,3.03.52.76-.46,1.99.22,3.38.85,1.74,4.26,5.54,6.1,6.27l1.84,1.94c.98,1.92,2.07,3.96,3.08,6.03,1.95,4.01,5.07,7.87,7.43,12,.37.65,2.47,4.75,2.14,5.04-2.59-.54-4.62-2.08-7.36-2.55-2.06-.35-4.21,0-6.07-.39-19.16-4.07-35.61-14-54.84-18.42-2.36-.54-4.41-1.76-6.91-1.44-.16,2.79,4.17,1.49,5.76,2.25.13.13.28.27.48.43.1.19-.18.85.09,1.14.32.35.88.06,1.14.16.93.33,1.22.71,2.52.07,1.28,3.24,3,1.73,5.76,2.84,13.95,5.64,27.91,12.69,41.71,18.88,1.99.89,13.96,4.45,14.31,6.12l-1,1.55c-2.87-1.62-6.06-.59-9.43-.89-2.84-.25-6.27-.98-9.12-1.49-.36,4.62,3.09,3.12,5.54,5.19l-1.91.58c-1.25-.44-8.47-2.45-8.78-2.12-1.26,4.17,3.11,4.19,6,5.66.73.37.73,1.18,1.23,1.44,2.1,1.07,6.75,1.45,7.93,4.04,1.96,4.28-1.85,1.55-3.86,1.2-10.64-1.85-15.84-2.74-26.1-6.61-.51-.19-1.51-.97-1.78-.16.75,3.4,4.71,8.61,7.27,10.95,7.48,6.85,11.22,9.61,17.23,18.42.9,1.32,2.36,1.23,1.8,3.2-.89-.41-1.2-1.71-2.47-1.96-4.29-.82-6.12-.84-10.48-2.67-10.55-4.42-21.31-11.19-31.65-15.5-4.25-1.77-9.02-1.11-11.88-5.34-1.52,4.39,3.21,7.27,5.38,10.28.88,1.22,1.16,2.83,2.14,4.12,1.42,1.88,5.76,4.93,5.5,7.09-.21,1.74-1.98-1.38-2.23-1.55-2.65-1.83-7.11-3.47-9.83-5.47-1.85-1.36-3.6-4.33-6.45-6.18-2.1-1.36-6.84-2.84-8.01-3.79-2.33-1.89-11.21-19.17-13.59-23.1-.56-.93-1.65-3.25-2.97-3.03-.26,1.17.08,1.88.51,2.9,2.4,5.65,7.97,13.27,11.02,19.08,3.34,6.37,5.99,13.09,9.38,19.41,1.34,2.49,7.78,11.82,7.98,13.36.05.37.14,1.04-.34.94-5.67-3.5-11.04-10.61-16.46-13.91-2.12-1.29-3.35-1.72-5.83-1.83-2.79-.01,6.35,12.1,4.98,13.39-4.23.42-1.4-1.02-2.08-1.96-.39-.53-2.22-.87-3.22-1.92-1.88-1.96-4-7.02-5.71-9.35-5.49-7.48-12.69-14.11-18-22.3-9.06-13.98-15.87-30.68-23.8-45.42-1.5-.58-1.94.04-1.31,1.86l-3.01-5.76c.03-.42.01-.84.03-1.26-2.14.7-.57,1.93-.08,3.16.58,1.46,2,3.73,2.39,5.11,2.35,8.39,5.37,15.1,9.91,22.91,2.16,3.71,8.4,10.89,9.47,14.39.83,2.68.8,5.56,1.84,8.71,2.58,7.81,8.27,15.25,9.78,23.63-1.98-1.77-4.19-3.75-5.85-5.83-4.68-5.88-8.61-12.53-14.37-17.75l-4.24-6.74c1.25,3.49-.42,7.22-.15,10.24.51,5.78,5.23,10.77,5.13,16.41-2.81-3.64-5.39-8.67-7.46-12.91-1.41-2.88-2.35-5.95-3.67-8.85-.42-.92.18-1.58-1.51-1.3.36,3.15,2.61,6.98,2.77,10.04.12,2.34-1.03,4.58-.66,7.34.25,1.86,1.75,3.79,2.18,5.93.21,1.05.82,8.66.54,9.02-1.66.4-1.1-.68-1.6-1.23-2.83-3.12-5.25-7.04-7.87-10.39-2.09-2.67-5.4-4.52-5.8-8.35-.95-.08.19,4.74-1.96,3.1-.37-.28-.29-3.26-.85-3.81-3.34,4.39-3.41,10.14-6.38,14.69-.4.26-2.07-.91-2.31-1.21-.41-.51-.84-3.55-2.01-2.4-.18.18-1.78,4.36-1.88,4.83-.75,3.53-.76,9.26-1.12,13.1-.34,3.68-2.62-.22-3.37-1.74-2.13-4.34-2.99-8.4-5.83-12.93-3.1-4.94-7.37-10.18-12.16-13.37-2.27,2.57.65,8.67.34,9.73-1.73,5.91-6.57-8.2-7.01-8.69-.64-.71-2.54-.06-3.43-1.31.1,2.46-.53,5.25.06,7.65.28,1.12,1.27,1.12,1.53,1.73,2.58,6.26,3.22,11.07,4.65,17.3l-.63-.02c-.41-.75-1.15-1.32-1.46-1.98-.56-1.21-2.58-9.33-5.22-7.67-.76,3.25-1.95,6.79-3.33,9.82-.5,1.09-.54,2.49-2.04,2.03.26-13.59-6.21-26.93-2.74-40.48-1.46,1.12-3.25,1.96-4.41,3.45-.77.98-6.49,13.43-6.68,14.42-.29,1.55.19,8.93.23,11.21.02.94.92,3.67.52,4.11-1.55,1.72-2.92-7.15-4.89-5.8-.29,2.07-2.48,2.61-3.93,3.97-1.57,1.46-2.37,4.44-5.12,4l6.19-17.72c-2.69-1.16-2.02-2.78-3.05-4.65-1.13-2.03-2.55-4.02-3.66-6.06-.17-.91.37-3.27.09-3.79-.06-.11-.94,1.05-1.87-.68,2.17-1.23-.54-2.07-.53-2.18.05-.5,1.24-1.97.32-2.25-2.1-.65-.6,3.85-.42,4.41.2.65.19,1.22.58,1.91.32,1.77-.67,3.54-.61,5.19.06,1.48,1.84,9.58,1.47,9.99-1.06,1.14-2.67-3.05-2.43-3.85-2.59.53-3,3.41-3.64,5.56-1.91,6.45-2.56,13.34-4.63,19.76-.96,2.98-3.14,5.78-3.36,9.1-2.33,2.03-3.85-10.23-3.49-11.46-5.44-.86-3.34,2.52-3.95,5.89-.31,1.73-1.72,6.15-2.67,7.45-1.99,2.72-3.01-4.04-3.51-5.24-.35-.83-1.34-.53-1.45-1.74-.89-9.73.39-19.66.81-29.37-.89.53-2.26,2.39-2.73,3.27-1.93,3.57-2.03,8.39-5.21,11.04-.54-8.39,1.86-16.59,2.57-24.85.47-5.46.03-11.33.41-16.75.03-.41.61-1.75.71-3.14.09-1.25.03-2.53.09-3.78l-.62-.02c.3,1.54-.62,3.08-.75,4.4-.04.38-.09.92-.03,1.26l-3.78,11.25c-5.04,12.71-9.74,25.18-15.18,37.51l-1.25-.66c.94-14.1,4.09-29.66,6.99-43.54,1.16-5.52,1.74-11.34,3.77-16.78,2.25-6.02,6.57-9.77,4.52-16.96-1.66-.19-1.02-.06-1.27.91-1.68,6.52-3.35,13.5-5.9,19.74-.68,1.67-2.55,3.4-3.23,5.02-6.18,14.65-12.29,29.46-18.62,43.93-.77,1.76-1.79,9.78-3.83,5.06,3.3-13.69,5.39-27.65,8.81-41.32,1.14-4.58,3.48-9.48,4.44-14.13.85-4.09.57-8.61,1.75-12.73l-7.45,15.16c-4.92,5.94-8.51,13.32-12.89,19.49-1.27,1.79-10.68,14.19-11.58,14.4-.36.09-1.57.17-1.57-.37-.35-2.25,3.52-15.43,2.95-16.01-1.82-1.87-5.15,4.61-7.05,4.23-.55-.66,5.19-13.99,6.06-15.99.63-2.48-3.01,1.08-3.74-.05,3.18-5.15,5.07-11.02,7.89-16.33,4.52-8.5,11.34-16.99,16.67-25.24,3.99-6.18,7.1-13.7,12.7-19.05l.42-3.77-13.98,17.36c-6.46,11.55-17.47,22.47-28.72,29.4-2.98,1.83-6.45,3.02-8.88,5.57-1.6-.14-1.72-1.41-1.39-2.74.11-.45,3.37-7.64,3.77-8.38,1.15-2.13,4.18-3.82,4.11-7.01-1.09-1.16-9.78,5.95-11.35,6.51-.71.26-2.44.59-2.05-.86,3.96-3.03,5.67-8.09,8.51-11.78,5.64-7.34,14.07-13.03,18.87-21.29l-10.71,6.54c-9.05,4.25-17.85,9.93-27.66,12.02l17.97-16.55,9.77-6.1c.12-.87.29-1.54-.87-1.24-1.16.3-4.06,2.62-6.02,3.39-.96.38-5.22,1.71-6.2,1.91-2.42.49.52-2.17.69-2.52,5.68-10.97,15.86-15.37,23.73-23.63,1.53-1.6,2.09-3.62,3.9-4.97-.94-.66-2.14.35-3.44.27-3.33-.21-5.88-2-10.12-1.58-1.89.19-4.54,2.1-5.64,1.72-.79-.27-.69-1.7-1.4-1.91-1.7-.5-3.84.37-5.46.26-2.31-.15-10.63-.09-8.53-3.78,3.9.68,7.55-3.9,11.36-4.61,1.55-.29,2.67.55,3.51.4,4.08-.71,13.31-2.88,16.54-5.16,4.01-2.83,5.26-3.39,10.01-5.33.13-.05,1.77,1.32,1.92-.89-.17-.55-1.32.19-1.91.26-12.81,1.57-22.28,1.22-34.97-.35-1.94-.24-11.68-1.03-11.66-3.08l6.82-1.88c4.43-1.4,7.98-1.27,12.45-1.79,3.78-.44,13.12-1.78,16.4-2.82.51-.16.81-.31,1.13-.75.08-.19-3-.93.03-.94l4.43-.2c.02-.61-3.58-.35-4.42-.43-6.37-.6-13.31.1-19.56-.51-1.38-.14-3.01-.48-4.4-.75-1.49-.28-4.18-.3-4.99-2.02,9.45-1.9,13.54-2.04,3.58-8.63-4.07-2.7-7.48-4.09-11.17-7.87-3.06-3.14-.87-1.63,1.43-1.48,6.05.38,13.74,1.87,20.45,2.56,1.39.14,3.38,1.09,5.03.76-.37-1.7-3.41-1.06-4.38-1.37-1.47-.47-3.12-1.51-4.72-1.98-5.61-1.62-12.74-2.13-17.17-5.86,3.34-1.28,8.02.3,11.62.51.67.04,4.12.14,4.16-.73.09-1.98-9.72-7.02-11.72-8.56-2.01-1.54-10.61-9.05-8.54-11.83,1.72-.44,7,.2,6.83-2.71-.04-.7-6.33-6.79-6.89-8.07-1.87-4.25,4.53-2.61,6.74-4.55-4.77-2.94-5.47-9.09-8.79-13.2-1.77-2.19-5.81-4.84-8.06-7.15-2.53-2.6-4.7-5.61-7.03-8.38l-.29,11.04c-.02.72,2.23,6.34,2.32,7.66.08,1.19-.98,2.32-.64,3.61.44,1.71,2.73,1.13.43,3.93,1.71.69,1.37.58.59,2.23l1.9.06c.49,1.72-1.32,2.33-1.7,3.4-1.2,3.35.09,5.18,1,7.96.42,1.29-1.46,2.08,2.23,2.58-.75,1.2-.91,2.62-1.41,3.89-.17.44-1.1.43-1.22.89-.32,1.25-.24,4.38-.17,5.87,3.92-1.02,3.46.57-.03,1.26.09,1.96.82,5.27,1.06,7.61l1.9-.58c.4,2.97-.82,1.43-1.94,1.84-3.47,1.28-1.01,9.89-2.22,12.58l1.27-.28c-2.21,4.4-.51,8.8.11,13.44.13.97-.53,1.71-.53,2.28,0,.18,3.13,2.6.73,2.93-2.8.39-.92.38-1,2.8-.05,1.43-1.57,3.26.63,4.13l1.32-1.86c.21.8.69,5.33.46,5.63-.33.45-2.4.16-2.58,1.03-.15.74.39,2.13.47,3.11.04.53-.62,1.46-.55,1.53.27.26,2.41-.37,2.54,1.66.11,1.78-2.28,3.01-2.03,3.4.09.14,1.66-.38,1.5,2.51-.07,1.32-.99,2.16-1.08,3.51-.12,1.82.81,3.46.96,5.16.09,1.07-.82,2.32-.45,3.58.33,1.09,2.24,1.02,2.43,2.71.26,2.29-1.86,3.18-2.1,5.03-.15,1.12,1.04.78,1.24,1.38.17.51-.1,1.1-.02,1.44.6.09,1.33-.07,1.89.05.78-2.86,5.33-3.97,4.42-.21-.68,2.84-2.4.63-4.42.21-.19.69.08,1.75-.07,2.53l-1.24-.67c-.14.68-1.1,1.07-1.21,1.65-.14.72,1.98,2.96,1,3.99-.15.16-3.68,1.36-4.21,1.37l-2.78,2.91,1.88.35c-1.79,2.15.11,4.44.26,6.46.6,8.04,1.78,23.32-.13,30.64-.35,1.35-2.59,3.28-1.55,4.88.29.45,1.54.46,1.62,1.07.1.7-.78,2.4-.82,3.68-.24,7.8.26,16.46.64,24.04.04.78-.64,9.56,1.06,8.52l1.96-1.84c-4.32,3.96-1.34,11.39-1.08,16.71.65,12.98,3.04,26.31,3.44,38.64.07,2.12-2,3.66.92,3.88.83.06,1.66-.44,2.34-.37.27.03,1.12,2.17,2.56,2.32.37.04,6.97-.68,7.49-.78.49-.1.43-1.23.85-1.27,1.46-.13,5.43.07,7.73-.03,30.58-1.25,60.89.21,91.25-.75,3.19-.1,6.35-1.21,9.6-.77-.4-3.67,1.69.68,1.93.7.81.08,2.62-.97,3.86-.98,1.47-.01,2.77.98,4.23.97,1.42-.01,2.14-2.59,2.95-1.63.22.26-.71,4.61,2.8,0,.42-.55.33-1.74.41-1.81,1.19-1.13,1.5.9.57,1.91.76.4,3.51.2,3.82.44.54.43.43,2.46,1.8,1.59.06-.04-.04-.85.23-1.04,1.67-1.17,8.91.13,11.44-.62,1.02-.3.83-1.81,1.39-1.79,1.11.04,1.98,1.65,3.25,1.91,1.79.37,3.6-1.56,3.31.8,2.94-2.63,2.43.08,2.83.1,1.36.06,2.52-2.84,3.11.03,3.17-2.41,5.91.09,8.25.17,2.79.09,6.32-2.3,9.34-.9.57.27.43,1.28.77,1.27.83-.03,1.4-.94,2.02-1.02,2.16-.25,5.26.56,7.42.55,1,0,5.31-2.29,5.38.81l.61.02c-.25-2.13,6.62-1.5,8.1-.77.26.13-.12,1.19.43,1,.53-.18,1.38-1.62,1.95-1.84.54-.21,0,1.05.7,1.27,3.45,1.06,4.91-.5,7.72-.67,2.83-.17,6.15.63,8.49.42,1.7-.15,4.25-1.46,5.19-1.45,1.26.01,5.13.97,6.36,1,1.78.04,9.15-.03,10.38-.57.79-.35,1.71-1.98,2.24-1.94.39.03.97,1.17,1.76,1.08.72-.08,1.68-1.58,2.68-1.53.77.04,2.23.41,3.72.52.52.04.05,1.45,1.26,1.32,1.37-.15,4.18-3.1,4.83-2.43-.83,2.38,2.28,2.52,4.08,2.54,15.36.19,30.78.79,46.07,1.36,1.24.05.82-1.34,1.26-1.31.95.06,1.49,1.17,2.52,1.37,1.55.29,8.56.16,11.01.27,1.24.06,2.55.15,3.79.1,3.08-.12,2.7-1.22,2.88-1.21.99.07,1.41,1.14,1.97,1.25.21.04,1.76-.69,4-.43.65.07,1.66.19,1.91-.58,4.47,2.36,14.95.52,20.43.63,8.13.16,17.01,1.63,25.17,1.03,3.04-.22,1-1.79,1.61-3.43.47-1.27,1.22-.58,1.48-.74.32-1.47-.17-8.33.23-8.84.08-.1.91.08,1.26.04-.12-.27.16-1.01-.09-1.48ZM20.68,150.03c-.82,2.05,0,5.72-2.06,6.89-1.24-2.32-1.2-6.28,2.06-6.89ZM12.49,77.19c-.66-.62,1.36-2.53,1.94-1.84.92,1.11-.9,2.81-1.94,1.84ZM13.02,177.61l1.89.05c-.69,1.2-.41,2.28-1.94,1.83l.05-1.89ZM30.37,117.45c.35.37-.57,1.86-.99,1.85-1.75-.05.06-2.83.99-1.85ZM19,117.78l2.52.06c-.46,2.67-2.02,2.5-2.52-.06ZM21.21,87.02c.04-.1,1.71-1.42,1.78-1.34.97,1.13,1.45,4.44-.42,4.39-.44-.01-1.51-2.66-1.36-3.05ZM23.8,103.38c.23.23-.52,2.23-1.01,2.49-2.13-1.19.3-3.21,1.01-2.49ZM21.99,124.48c-.76-2.25,1.46-1.5,3.19-1.48-.37,1.6-2.43,3.71-3.19,1.48ZM25.81,50.38c-.61.78-3.04-2.85-3.27-3.08-.11-.11-3.22-.53-1.64-2.09.9-.89,6.54,3.1,4.91,5.18ZM37.29,94.25c.05.08.07.2.07.35-.03-.11-.06-.23-.1-.34,0,0,.02,0,.03-.01ZM33.45,57.58c.28.07,2.09,1.73,2.59,2.18,1.44,1.27,4.05,3.7,1.7,5.45l-4.36-5.65c-1.81-.74-1.45-2.38.08-1.98ZM60.06,44.96c-.6.68-5.5-4.59-4.26-5.79,2.31-.89,5.19,4.75,4.26,5.79ZM175.09,17.36c.39-1,2.25-.66,2.52-.25,1.49,2.21-3.6,3.03-2.52.25ZM260.04,76.73c-1.76-.66-1.14-2.9-1.13-4.45,1.76.66,1.14,2.9,1.13,4.45ZM349.82,24.77l1.89.05-.07,2.52-1.89-.05.07-2.52ZM350.09,38.67c1-1.37,0-6.64.18-6.94.07-.11.86.44,1.3.31.9-.27,1.46-1.07,2.5-.83-1.82,2.19-1.43,5.78-3.98,7.47ZM356.68,27.48c.15.13.74,2.97.56,3.17-1.59,1.62-2.68-5.01-.56-3.17ZM408.38,271.96c.66.61-1.35,2.53-1.94,1.84-.92-1.09.88-2.82,1.94-1.84ZM408.95,274.5l-1.7,5c-1.35-1.69-1.4-5.79,1.7-5ZM408.14,281.43c-.99.54.74,5.92-1.07,5.01-1.79-.9-2.82-6.72,1.07-5.01ZM404.08,292.04c-.15-1.04.91-.42,1.71-.8.27-.12.22-1.09.52-1.03.52.1,1.77,1.55,2.82,1.34-2.32,3.55-2.11,1.85-5.06.48ZM405.02,328.39c1.23-2.1,3.57-1.37,3.76,1.04l-3.76-1.04ZM409.14,339.22c-2.07,4.28-3.14,1.05-3.8.86l.66-1.25c.75-.04,3.6-.98,3.14.38ZM407.48,354.66c.15.16-.14,1.91-.07,2.52-5.1-.85-.83-3.46.07-2.52ZM407.96,360.36c-1.47-1.33-2.01,1.79-4.45,1.77-.4-4.04,1.23-4.13,4.52-4.3l-.07,2.53ZM404.74,435.41l-1.9.59.05-1.89c.79-.39,2.17,1.05,1.86,1.3ZM405.46,431.65l-1.88-.36,1.93-1.53-.05,1.89ZM25.29,335.8c-.05-1.69-.22-3.94,1.99-3.73.06,1.69.22,3.94-1.99,3.73ZM25.75,438.75c.15-1.08,2.55-2.43,3.2-1.8,1.01.97-2.04,2.48-3.2,1.8ZM40.8,442.93c-1.17-1.15,2.6-2.76,2.53-.88-.02.65-2.12,1.28-2.53.88ZM43.7,428.5c-.7,1.56-.62,2.24-2.57,1.82-.12-1.59,1.06-2.1,2.57-1.82ZM41.65,410.12c.94,1.13-1.4,2.92-2.6,3.09-.67-1.29,1.92-3.9,2.6-3.09ZM39.31,403.12l-.08,3.16c-3.02.58-2.97-3.06.08-3.16ZM36.31,421.35c.31.54,1.41,1.13.9,1.92-.78,1.21-1.93.66-2.85-.07-1.53-1.23-1.27-2.81-.52-4.43.12-.26.42-.45.65-.61.58.87,1.24,2.21,1.81,3.2ZM33.44,447.64l-.03.14c-.18-.12-.41-.35-.63-.5.25.11.48.23.65.35ZM31.91,398.86c.22-.97,2.18-1.25,2.48-.93.24.26-.04,5.26-2,4.37.35-1.04-.63-2.74-.48-3.44ZM28.09,457.74c-2.25-1.52.94-4.89,2.29-3.08.89,1.2-1.31,2.75-2.29,3.08ZM30.5,450.24l.08-3.16c.62.05,1.27,0,1.89.05-.25,1.04.44,1.42,1.21,1.93-.99.39-1.76,1.62-3.19,1.18ZM40.16,491.54c.17-2.28.95-2.9,3.22-2.44l-3.22,2.44ZM160.48,586.88l-.18-5.04c1.99,1.16,2,3.8.18,5.04ZM176.9,574.69l-.62-.02.08-3.15c.39.05,1.16-.06,1.26.03.21.22-.86,2.39-.72,3.13ZM188.22,576.89c-.92-1.11.9-2.81,1.94-1.84.66.62-1.36,2.53-1.94,1.84ZM274.63,578.45c-1.33,1.06-5.05-1.05-3.66-2.55.08-.08,1.4,0,2.24-.54,1.18-.76,1.13-2.28,2.25-2.51.12.94-.42,5.27-.83,5.59ZM286.67,578.83c.14.17.3,3.67.52,4.43-3.29.32-2.06-6.33-.52-4.43ZM421.96,308.31l1.26.03-.41,3.77c-1.19-.92-.93-2.46-.85-3.8ZM423.58,318.46c.52.48-2.72,3.76-3.23,3.07-.45-2.72.7-3.08,3.23-3.07ZM423.27,366.44c1.64,1.06.45,3.08-1.04,3.76l1.04-3.76ZM421.45,327.88c-.24-.37.44-3.4-.52-4.43,4.24-.15,1.81,2.97,1.78,4.46-.37-.06-1.2.07-1.26-.03ZM423.3,377.81c-.02-2.35-2.52-6.74.77-5.67-.65,1.82,1.52,4.81-.77,5.67ZM422.36,293.16c-.03-.54.01-1.09-.6-1.28.01-.21,0-.42.02-.63l1.26.03c.85,1.04,2.4,1.19-.68,1.88ZM421.24,263.45c.02-.41-.95-1.67-.56-2.54,2.36-.35,1.15,1.71,1.19,2.55.1,1.77.21,3.98.48,5.7-.12,1.59.56,2.93-1.33,2.49-.01-1.55-1.18-4.02-1.06-5.43.09-1,1.23-1.62,1.27-2.77ZM421.84,47.5c.04,1.11-.08,1.87-.07,2.52.07,2.83.54,3.55-.17,6.31-.11.42-.59.84-.66,1.6-.1,1.12.41,1.5.56,2.19.12.52,1.12,1.37.56,2.54-2.1.38-.87-.94-1.21-1.92-.74-2.14-1.25-2.32-1.13-5.08.08-1.96.73-3.6.78-5.66.01-.58.15-1.41.05-1.89l1.28-.6ZM422.2,226.85c-1.84-.99-.55-2.32-.57-2.54l.63.02c.05.62.49,1.5.57,2.54l-.63-.02ZM420.19,231.22c.12-.61-.12-1.4.18-2.08.36-.81,1.05-.88,1.16-1.04l.63.35c0,.88-1.16,1.58-1.32,2.16-.05.17-.02.44-.02.63.01.39.61,1.19.58,1.91-.08,1.88-.96,3.5-.15,5.68-2.96-.16-1.12-2.07-1.16-3.49-.06-2.16-.34-1.85.1-4.11ZM419.95,240.69c1.56.5,3.38,5.98,1.4,6.35-2.31.43-1.34-5.21-1.4-6.35ZM423.25,235.09l-.63-.02c-.16-1.02-.42-1.3-.58-1.91-.09-.33.09-.86.03-1.26.13.11.5-.09.63.02.35.27.87.4,1.25.66.24.87-.66,1.99-.7,2.51ZM422.93,126.47l-.85,7.16c2.06.41,1.59,4.83.2,5.45-1.29.57-.85-1.22-.9-1.28-.1-.1-2.08.26-1.21-1.93.13-.34.86-.6,1.27-.61.36-1.04-1.21-.35-1.2-.92.02-.52,1.09-2.22,1.16-3.33.16-2.31-1.88-5.31,1.53-4.53ZM421.32,91.69c0-1.26.07-2.53.1-3.79l.63.02c.04,1.52-.11,2.72-.1,3.79,0,.27,1.96,4.41.18,5.06-1.59.58-.8-4.32-.81-5.08ZM422.37,27.3l-.09,3.15c-.21.45-3.35-3.5.09-3.15ZM418.91,39.21c.4.04,1.18-.05,1.26.03.36.43-.14,3.15-1.33,3.12l.08-3.15ZM421.45,255.26c1.18,1.4-3.88,2.35-4.43.81-.53-1.48,3.14-2.34,4.43-.81ZM414.1,270.84c.3.24,1.13.46,1.25.66.12.22-.21,1.09-.02,1.26.28.25,2.4-1.52,2.49,1.02,0,.19-2.58,1.28-2.9,2.11-.24,0-2.14-3.71-2.14-4.09,0-.36,1.06-.65,1.33-.97ZM416.4,351.73c-.29.27-3.27-.74-2.46-1.62.2-.53,1.21-.79,1.26-.93l.61.65c.01.21,1.01,1,.58,1.91ZM414.97,346c-.65-.02-1.28-2.12-.88-2.53,1.15-1.17,2.76,2.6.88,2.53ZM416.07,339.73l-3.72-1.68c.61-1.41,3.48-2.54,4.45-1.46.35.39-.66,2.42-.73,3.14ZM410.28,409.02c.26-.29,2.47-1.5,2.75-1.17,1.29,3.63-5.27,3.94-2.75,1.17ZM410.98,414.11l.66-1.25c.29.22,2.31-.16,2.53.07,1.07,1.16-1.8,3.93-3.19,1.18ZM414.54,423.05l1.89.04-.08,3.16c-1.88.14-2.03-1.56-1.8-3.2ZM416.79,433.2c-2.76-.24-1.94-2.26.68-1.86-.06,1.27-1.92-.23-.68,1.86ZM419.53,425.07c-.1.11-2.47-1.3-2.46-1.64.03-1.64,2.95-.05,2.46,1.64ZM420.99,272.92l2.51.7c-.07.79-.6,1.67-.72,2.49l-3.12-.71c-.22-.34,1.22-2.03,1.33-2.48ZM422.47,312.75l-.07,2.52c-3.9.63-3.33-2.49.07-2.52ZM420.6,468.66c-1.88-.03-.08-3.72,1.01-2.48.38.43-.36,2.49-1.01,2.48ZM421.64,416.92c.76-2-1.66-6.2,1.07-5.02,1.46.63,1.54,5.39-1.07,5.02Z"/>
    <path class="st1" d="M69.4,269.95c.31.4,8.31,3.56,9.25,3.83,7.54,2.11,10.45,2.08,17.46,6.82,18.22,12.32,20.69,33.31,28.4,51.82,1.51,3.62,5.72,9.64,6.48,12.95.55,2.4-1.47,4.18.25,5.89,6.03,3.67,11.28,8.84,17.13,12.67,7.55,4.93,8.26,4.09,16.57,4.89,7.08.69,2.61,7.77,3.26,10.72.38,1.71,3.44.85,2.28,5.09-.13.46-.96.44-1.21.91-6.22,11.57-21.52,14.91-30.36,23.97-1.17-.12-1.39.79-1.93,1.21-.13.1-1.08-.39-1.3.36-.98,3.42,1.48,4.23,3.02,6.31,3.44,4.67,6.91,6.33,10.09,10.12,2.14,2.56,5.74,9.05,7.25,12.2.44.92,1.37,4.81,1.56,4.99.48.45,4.1-1.17,4.95-.39.15.14.74,2.54,1.6,3.7.83,1.12,2.39,1.84,2.72,2.5.59,1.19.37,3.45,1.12,4.78,1.25,2.21,5.12,4.63,6.23,5.94.59.7,2.53,8.56,3.5,3.15.69-3.84-2.63-.83-1.65-3.69.17-.49,1.98-.51,2.47-1.95,1.55-4.58.03-7.17-.1-10.76-.04-1.06.57-1.99.51-2.93-.22-3.52-1.55-9.16-1.46-12.19.03-1.15.3-1.41.75-2.32,2.96-5.98,12.25-9.14,17.63-12.57.52-.33.66-1.41,1.13-1.7,1.09-.68,5.35-.46,3.68-2.6,5.35-.34,9.24-4.95,14.6-5.37.15-1.72.29-3.51.13-5.24-.46-4.97-4.04-7.95-5.07-13.65-.31-1.74-1.58-12.1.44-12.1,2.34,2.37,2.29.12,3.94-.43,2.16-.72,1.82.73,2.57,1.14,4.64,2.55,2.65.39,5.88-1.94,1.46-1.05,7.53-3.13,9.21-3.14,1.38,0,3.12.99,4.72.63l.07-2.53c1.44,1.05,3.26-.18,4.58.7.63.42.73,1.55,1.32,1.98,4.46,3.23,7.1,3.1,7.66,9.98.36,4.33-.72,6.39-1.48,10.13-.13.64.44,1.55.36,1.87-.26,1.08-2.17.69-2.36.89-.28.29.43,1.68.18,2.52-.38,1.3-2.64,2.68-3.18,3.71-.68,1.3-1.93,3.81-2.53,5.12-.22.48-2.65,9.68-2.68,10.2-.21,3.11,1.37,2.29,2.13,3.55.62,1.02.04,2.84,1.7,3.36,3.93-.09,8.08-1.43,12.19-1.76,13.68-1.09,27.18-1.84,40.76-1.47,2.27-1.01,6.75-.88,8.83.23,1.6-.04,5.91-.2,7.13-.6.76-.25,1.96-1.14,1.78-2-.29-1.39-21.37-13.49-24.76-13.74-.55-.4-1.13-11.05-1.11-12.82.05-5.94,7.26-13.49,10.24-18.45,1.2-1.99,8.74-15.1,7.76-16.14-2.75-.51-6.3-1.37-8.88-2.34-4.04-1.51-13.49-4.62-16.59-6.41-2.35-1.35-4.57-4.05-4.45-6.87.06-1.45.06-.73,1-.91.98-.18,5.56-.1,5.9-.6.3-.44.1-1.69.77-2.75,1.13-1.79,5.25-4.93,6.82-7.09,3.28-4.53,13.32-19.32,14.9-23.85,2.56-7.34-.04-21.37-1.71-29.21-3.83-17.9-16.85-44.4-13.45-62,2.16-11.18,8.41-19.71,16.66-27.18l4.89-6.19c-1.77-.16-3.47-1.07-5.32-.78-1.28.2-1.77,1.35-2.56,1.55-8.49,2.16-17.23,5.95-25.78,7.54-1.02.19-2.03-.49-3.19-.18-.97.26-8.75,6.26-10.23,7.43-1.41,1.12-2.01,3.07-4.24,4.01-2.74,1.15-4.31.11-5.94-1.96-.54-8.48.22-16.15-1.96-24.49-.8-3.05-2.43-6.06-3.21-8.65-2.07-6.95-3.27-15-7.34-21.03-2.66,11.2-3.76,21.34-8.76,31.95-1.77,3.76-4.56,9.34-8.49,11.21-3.37,1.61-5.36-4.15-6.13-6.53-2.38-7.4-5.63-23.12-8.62-29.06-3.27-6.5-15.42-19.4-20.57-25.7-4.51-5.52-9.21-13.39-15.02-17.75-.44-.33-4.7-2.62-5.02-2.68-.7-.13-1.7,2.05-3.48,1.51,5.82,8,8.43,17.67,9.36,27.42,1.85,19.47.52,32.68-9.85,49.25-10.27,16.4-24.2,32.21-34.5,48.6-3.37,5.37-5,11.57-7.6,17.28-.43.95-2.79,4.35-2.79,4.69,0,.98,6.48,3.89.47,5.19-3.96.86-11.34-.76-13.62-.14-.49.13-.41,1.18-.84,1.23-.88.1-2.3-.82-3.66-.79-6.34.16-21.07,2.25-27.19,3.76-1.53.38-8.19,1.49-6.12,4.16ZM278.88,382.25c1.12.04,1.01,2.54-.07,2.5-1.12-.04-1.01-2.54.07-2.5ZM265.85,385.69c1.57.27,5.52-1.41,3.69,1.29-.55.81-4.32,1.03-3.69-1.29ZM270.24,362.44c.64.63-1.26,2.85-1.91.88-.44-1.34,1.68-1.11,1.91-.88ZM269.39,370.62c.08.07.18,1.42.59,1.9l-2.52-.07c.39-.89.91-2.73,1.94-1.84ZM256.42,383.85c-.5,1.96-4.17.36-3.12-1.02.42-.56,3.59-.85,3.12,1.02ZM171.78,239.87c1.01,1.06-1.72,3.96-2.56,1.5-.75-2.2,2.29-1.78,2.56-1.5ZM148.84,300.65c2.91,0,9.64-6.36,9.38-1.14,3.71-1,7.6-2.19,11.51-1.86,6.16.52,11.79,4.88,18.06,3.85,1.22-3.67-1.81-5.07-4.62-6.55-2.37-4.68-3.46-8.79-2.98-14.11.2-2.14,1.36-4.8,1.36-6.85,0-4.08-2.27-5.7,1.87-9.84,1.1-1.1,3.5-1.76,3.9-2.38.69-1.08.21-3.16.57-4.59.5-1.96,2.2-7.48,3.04-9.06.64-1.19,2.6-1.94,3.3-4.36.91-3.16-.85-2.49-.99-3.12-.24-1.14-.6-7.57-.4-8.74.47-2.72,1.52-.55,2.29-.43.87.13,1.56-.57,2.71-.08.85.37,8.02,7.3,8.33,8.15.69,1.91.19,4.65.95,7.1,1.78,5.74,5.38,12.84,6.74,18.83,1.68,7.38,1.21,11.18,5.27,18.38,2.11,3.74,3.32,5.45,5.45.34,1.37-3.28.35-6.72,1.51-10.08.23-.67,4.88-8.39,5.29-8.7,1.86-1.42,8.03-3.92,10.53-5.11.81-.38,1.31-1.48,1.97-1.74,1.6-.64,5.64.72,7.13.35.58-.14,5.26-4.02,5.6-3.54.1.89-.11,1.68-.37,2.52-1.98,6.39-4.9,12.11-5.8,19.18-1.12,8.87-.8,20.11-2.87,28.75-1.05,4.37-5.15,9-6.01,13.77-1.31,1.89-6.15.79-1.88,3.21-2.22,1.51-4.2,5.95-6.15,7.12-5.94,3.57-12.14,8.1-18.71,10.77-2.82,1.15-8.31,3.24-11.21,2.82-3.54-.52-22.3-7.73-25.41-9.74-2.61-1.7-6.83-10.6-9.54-13.72-3.45-3.98-14.4-14.47-19.32-14.94-.85-.08-1.29.18-2.02.43l1.51-4.89Z"/>
    <path class="st1" d="M224.04,318.28c.94,1.16,3.44-3.87,3.9-4.31-3.01.02-4.08,1.3-3.9,4.31Z"/>
    <polygon class="st1" points="171.09 314.37 167.92 314.92 170.05 318.13 171.09 314.37"/>
    <path class="st1" d="M225.58,307.59c-.97-.79-2.65,1.63-1.96,2.47.97,1.17,2.1-2.34,1.96-2.47Z"/>
    <path class="st1" d="M219.35,292.27c-.48.26-1.23,2.27-1.01,2.49.71.72,3.13-1.31,1.01-2.49Z"/>
    <path class="st1" d="M191.15,319.95l-1.26-.03-.05,1.89c.92-.19,1.47-.98,1.3-1.86Z"/>
  </g>
</svg>