<?xml version="1.0" encoding="UTF-8"?>
<svg id="Layer_1" xmlns="http://www.w3.org/2000/svg" version="1.1" viewBox="0 0 537 408.25">
  <!-- Generator: Adobe Illustrator 29.3.1, SVG Export Plug-In . SVG Version: 2.1.0 Build 151)  -->
  <defs>
    <style>
      .st0 {
        fill: #466d39;
      }
    </style>
  </defs>
  <rect class="st0" x="-1.85" y="-2.62" width="539.89" height="411.57"/>
  <path d="M466.4,79.92c-.97.66-1.29,1.98-2.07,2.51-14.43,9.77-36.75,24.17-53.94,27.71-10.41,2.15-21.77,2.73-32.25,4.77l-.85.93c-5.17.16-10.23-.15-15.18-.93-11.55-.74-23.36-2.56-34.67-4.64-8.67-1.59-17.68-3.17-26-5.99-2.6-.88-5.06-3.36-8.5-3.63-1.02-.08-3.69.95-4.1.54-.23-.23-.07-4.98-2.11-6.1-2.51-1.38-4.71.35-6.51-.11-1.3-.33-2.08-2.52-3.38-2.85-1.59-.4-2.99.9-4.81.37-1.58-.46-2.56-2.27-3.86-3.08-4.08-2.54-9.13-4.75-13.68-6.54-1.42-.57-2.69-1.33-3.82-2.29-1.28-.64-3.02-1.91-3.82-2.29,0-1.31-1.52-1.82-4.58-1.53-2.55-1.21-5.06-2.58-7.63-3.81l-2.29-2.29c-1-.11-2.05.09-3.05,0-2.88-1.19-4.66-1.19-5.34,0-1.4.79-.86,2.91.76,2.29,1.27,2.85,3.81,2.61,6.87,5.34-.74,1.23.27,1.81,1.53,1.53.53.71.86,1.7,1.53,2.29.69.15,1.45-.11,2.29-.76.78-.3,1.22,1.32,1.53,1.53-.04,1.36.22,1.62.76.76,1.4.76,2.17,1.77,2.29,3.05-.62,1.06.4,1.31,3.05.76.19.53.57,1,.76,1.53.71.2,1.48.2,2.29,0,1.54,1.07,3.07,1.97,4.58,3.05-.37,2.64,2.27,3.4,3.82,1.53l.48,1.97c1.66.71,3.03,1.58,4.1,2.61.95,1.14,3.19,1.78,4.58,1.53-.23.96.74,2.19,1.53,1.53,1.03,1.52,2.87,2.39,4.58,3.05,3.09,2.62,6.4,5.16,9.92,7.63,4.85,3.23,13.21,2.36,16.79,6.86,1.3,1.01,5.34,2.57,6.11.76,2.36.38,4.59,1.06,6.87,1.53,8.12,3.48,16.72,5.95,25.79,7.42-1.14,2.43-1.52,4.99-1.14,7.66,2.73,4.74.63,6.55-6.29,5.44-14.58-1.99-29.45-3.58-44.53-4.94-24.28-2.1-44.79-2-44.79-2h0c-16.12-.35-32.28-.55-48.33,1.14-1.59.39-3.05,1.08-4.36,2.07l-14.5,1.53-1.02-.98c-9.01.85-18.12,2.06-27.33,3.66l-2.7,2.65c-4.08-2.68-7.01-2.78-8.8-.3-2.75.11-4.47.98-5.18,2.6-.77.92-1.79,1.42-3.05,1.53l-2.98-.93c-12.56,1.28-27.1,3.11-39.21,6.33-3.02.81-8.58,2.56-9.7,5.27-.88.27-2.16,0-3.05.76-.96.08-2.08.52-3.05.76-1.44.36-2.95,1.44-4.58,1.53-.14-.2-.45-.41-.63-.58-.05-.06-.08-.12-.13-.18-.15-.95,1.05-2.59,0-3.05-.46.26-.97.42-1.53.76-.11,1.23.17,2.61,0,3.81-.14,1.01-1.26,2.37-.76,3.81,1.99.26,3.59-1.03,5.34-1.52.24-.07.53.06.76,0,.69-.19,1.78-.66,2.29-.76,2.78-.56,5.36.27,7.63-1.53.36.66.62.68.76,0,1.99-.11,3.89-.64,6.11-.76.25-.01.51.01.76,0,1.97-.08,2.1,1.19,5.34,0,1.86,2.67,4.38-.12,2.9-2.68.92-.57,1.73-1.2,2.44-1.89,1.61,2.63,6.4,3.95,8.4,1.53,2.81-.17,5.1-.68,6.87-1.53,1.92,1,4.25.25,6.11-.76.43,1.45,1.1,1.46,1.53,0,1.36.96,3.77,1.12,3.82-.76,1.59,1.12,3.88,1.12,6.87,0,.6.79,1.21,1.07,1.83.87-.04,20.12.83,40.33,1.88,60.47.51,9.76,1.11,19.69,3.02,29.14.13.64.48,1.24.9,1.82.33,2.76.59,5.56.76,8.39,5.69,34.23,15.05,70.51,22.9,104.5,1.38,3.32,2.9,4.84,4.58,4.58.93,1.06.99,1.92,3.05,1.52.18-.13-2.02-3.2-2.29-3.81.69-2.36.28-5.01-1.22-7.94-5.34-26.61-8.74-53.54-10.21-80.79-4.34-23.3-7.18-46.72-8.52-70.27l-1.43-3.47,1.53-3.05c.56,1.37.91,1.18,1.53,0l-.76,2.29c2.04-.97,3.99.18,6.1,0,.97-.08,1.6-.61,2.29-.76,2.65-.61,3.66-1.54,5.34-2.29.99.71,1.39.68,1.25-.05.24.28.08.89-.49,1.57,2.22.3,3.93-.64,5.35-2.28,1.15,2.03,4.89,1.55,5.34-.76.73.03,1.46.04,2.19.03.77.5,1.16,1.41,1.39,1.47,3.98.93,4.16-1.33,4.41-1.36,4.93-.55,10.77-.53,15.67-.9,1.96,1.87,16.19,2.12,17.42,1.05.35-.3.63-.67.9-1.05,3.01-.15,3.16-1.52,4.58-2.29l-.28-.77c.41.01.76,0,1.08-.06.47-.48.96-.96,1.49-1.46,1.09-.36,6.89-3.07,4.57,0l5.35-.75c.39,2.15-.5,1.26-1.67,1.72-2.49.98-5.02,1.79-7.48,2.86,0,.95.77,1.2,2.29.76,1.15.94,2.93.94,5.34,0l-3.05,1.53c1.25-.05,2.59.12,3.82,0,.4.53.66.58.76,0,.14-.01,1.09-.65,2.29-.76,1.56-.15,3.02-.63,4.58-.76,1.01-1.27,3.71-.81,5.34-.76,2.27.07,2.46-.11,4.58.76.41-.01.81.09,1.22.24-.25-.27-.42-.61-.45-1,.99-.44.78-.59,2.29-.76,1.14-.13,2.62-.03,3.82,0,2.14.06,5.24-.88,4.58,1.53,10.35.01,21.56-1.65,31.67-1.59,6.17.04,13.47,2.29,19.47,3.12,1.33.18,2.62.63,3.82.76.13.02,1.64-.02,2.29,0,.27,0,3.03-1.56,3.04.38,0,1.76-2.4.38-3.04.38-.86,0-1.17.08-2.29,0-2.17-.15-4.69-.67-6.11-.76-18.34-1.21-38.68-.31-57.24,0-4.06.07-8.16-.12-12.21,0-1.52.04-3.06-.07-4.58,0-.76.03-1.53-.04-2.29,0-5.38-.08-10.82.15-16.32.67-.47-.42-.93-.74-1.36-.7-9.77.79-22.15,2.12-31.55,4.36-6.51,1.55-3.3,8.24,2.28,8.12,4.22-.42,8.42-.88,12.6-1.36-.27.16-.53.39-.76.74.18.74,1.59.34,2.29.38,1.26.07,2.55-.04,3.81,0v-1.52c-.57.02-1.14,0-1.72-.01,4.25-.5,8.49-1.03,12.7-1.59.23.51.66,1.35,1.16,1.47,4.17,1.02,12.27,1.44,15.34-1.39-.66,2.73,5.44,1.29,8.07,1.49.98.08,1.75.79,1.85.79-7.63-.58-15.12.34-22.75,1.46l-12.25.74-1.64,1.61c-1.97-2.03-5.05-.31-6.87,0-.53-.57-1.16-1.08-1.96-1.18-3.88-.46-34.76,12.5-37.3,16.21-.32.46.03,1.19.34,1.74-.48,1.99,1.58,2.41,3.05,2.29,3.99-.33,6.78-1.03,10.69-2.29l1.43,1.12c4.42-1.45,0,2.8-2.41,4.02l.21,1.73c-1.35.15-2.59-.07-3.05,1.53-.25.05-.53-.06-.76,0-.65.17-2.28,1.44-3.06,1.91.66,1.07,2.3-.15,3.06-.38,1.08-.32,2.61.29,3.05-1.53,1.57-.29,3.36.15,3.82-1.53,3.74,2.08,8.7,1.73,12.21-.76,3.97.39,8.63.89,12.59.84,1.53-.02,3.6-1.04,4.51-.9.83.13.1,1.58.84,1.6.72.02-.01-1.34.88-1.55,1.19-.28,2.88-.51,4.08-.75l2.21,1.14c19.06-1.52,38.23-1.63,57.5-.33l1.34-.82c2.54.26,5,1.16,7.63.77l-.77,3.04c-.38.36-5.37-1.86-6.1-2.29-2.19-.78-4.49-1-6.89-.67-6.63.19-29.22,1.3-33.67,3.26-.76.33-1.47.76-2.18,1.22-7.73.75-15.36,2.11-22.9,3.05-1.09-2.07-2.77-2.21-3.82,0-2.89.37-6.69.26-9.16,1.53l-1.07-1.42c-4.33.32-33.52,3.08-34.97,4.08-4.85,3.33-3.1,10.49,3.92,9.97.46-.03,5.46-1.37,5.41-1.96,1.01.06,2.04-.05,3.05,0,.03,2.36,2.54,2.74,3.82.76,3.16.15,6.37-.11,9.54,0l-.38-1.52c2.85,1.16,6.12,2.8,9.16.76,3.99-.28,8.19-1.03,12.21-1.53l1.84,1.3c2.43-.51,6.47-.85,3.91,1.56l-13.75,3.28c-1.09.51-1.98,1.26-2.69,2.24-1.29.33-2.64.45-3.82.76-1.24.32-3.15.53-3.82.76-.4.14-1.03,1.19-1.53,1.53-.54.37-2.11-.98-1.52,2.28,1.18.5,1.92-.68,2.29-.76.85-.18,2.85-.74,3.05-.76.25-.03.51.03.76,0,.17-.02,1.81.08,3.05,0,1.01-.06,2.04.05,3.05,0,2.19-.11,5.33.69,6.87-.76.25,0,.51,0,.76,0,2.15,0,5.2.36,7.63,0,1.41-.21,2.11-1.43,3.36-2.28.62-.19,1.27-.44,1.98-.77.43,1.46,1.1,1.46,1.53,0,3.72,2.68,9.67,1.44,13.93.54.88-.19,1.58-1.16,2.1-1.3,2.05-.57,5.23-.04,6.87-2.29.99,2.43,6.21.89,6.11-1.53,4.38.12,10.42-.93,13.74-3.81,3.84,1.47,8.52.55,11.45-2.29-1.13,1.75-1.12,1.75.97,1.36,4.64-.88,10.5-2.34,15.06-3.65,1.19,1.39,2.38,1.14,3.41-.18,8.6.23,16.85-.78,24.76-3.04,2.96,1.08,6.22.7,9.79-1.14,6.61.51,12.53-.34,17.75-2.54-1.21,17.86-3,35.77-5.35,53.71-1.3,8.64-1.46,44.58,4.71,49.27.43.32.92.57,1.42.79,1.17-.04,1.43-1.56.76-4.58-1.18-8.81.02-15.48.76-24.03,3.1-36.21,11.32-71.99,17.47-107.63,1.5-8.68,1.57-17.47,2.39-26.22,7.1,7.56,12.44,16.68,19.12,24.57,3.26,3.85,10.38,12.36,15.03,13.47,1.65.4,2.49-1.51,3.52-1.36,2.24.34,2.27,6.22,6.38,2.75,7.54-6.35,1.68-22.27.99-30.67-.98-11.93-.17-26.86.76-38.88.69-8.85,3.74-17.37,1.47-26.62.64-2.29,12.77-.95,14.75-1.35,1.93-.39,8.9-5.07,12.01-5.98,2.45,2.1,3.44.85,3.82-2.29,3.02-4.97,3.51-2.46,7.57-4.26,5.02-2.22,22.65-16.2,25.98-20.73.63-.85,5.09-8.52,5.16-9.03,1.01-8.23-6.95-6.34-11.51-3.25ZM83.53,160.67c-.01.21.04.4.12.56-.12-.14-.14-.32-.12-.56ZM182.75,159.91c-1.71.18-2.9.33-4.58.76-.06.44-.41.69-.86.83.51.06.91.24.86.7.46,1.95-1.72,2.35-3.82,3.05-.88.62-2.15,1.12-3.82,1.53-.25.03-.51-.04-.76,0-1.7.69-3.48,1.2-5.34,1.53-.99.17-4.02.16-4.55.84-1,1.29,1.9,12.59.72,15.16-6.43.82-12.8-2.78-19.06-.74-.2-1.16-.67-2.23-.78-3.43-.43-4.6-1.36-20.93-.76-24.8.13-1.55,1.16-1.75,2.29-.76,1.35-2.29,7.44-.7,9.92,0,.64.64,1.4,1.14,2.29,1.53,2.46-1,7.5-1.34,9.16.76.43-1.44,1.1-1.44,1.53,0,.23-1.11,1.71-1.29,2.52-1.26l-.23-1.03c1.7-.07,2.96-.42,4.58-.76l-.76,6.1c4.05-.63,7.25-1.36,11.44-1.52,2.03.24,1.94.94,0,1.53ZM216.33,241.9c0-.19-.02-.33.02-.36.09-.08.31.07.6.3-.21.02-.41.05-.62.07ZM236.94,145.42c-2.01-.22-4.12-.42-6.11-.76-.46-.08-1.37.15-1.52,0-.13-.13.04-1.07,0-1.52-1.44.1-3.39.15-3.82-1.52,1.27-.04,2.55.02,3.82,0,2.74-.07,4.13.54,6.11.76.25.03.51-.03.76,0,3.84.46,3.4.64,6.11,1.53.69.22,4.32-1.44,5.73-.82l11.35,1.88c.92.14,1.84.29,2.76.46,20.39,1.64,40.5,5.71,60.68,7.62,6.18.59,16.28-1.14,21.42.37,2.92.86,3.53,2.84,3.39,5.73-2.4-.14-4.89.2-7.29.04-10.27-.71-19.93-2.05-29.96-3.62-24.47-3.83-48.79-7.49-73.42-10.15ZM271.3,183.18c-1.54.23-3.12.83-4.59,1.14-8.32,1.8-6.74-1.21,0-1.53.92-.04,4.59-.27,4.59.38ZM266.71,188.9c-1.01-.03-2.05.07-3.05,0l-7.63.76c-.77-2.04,2.22-1.42,3.81-1.52.25-.02.51,0,.76,0,.65-1.37,2.73-.53,3.82-.76,13.92-3.01,39.04-1.23,54.19-.76,1.27.04,2.55-.04,3.81,0,1,.45-2.13,1.41-3.05,1.52-17.3,1.94-35.63,1.22-52.66.76ZM320.9,198.81c-1.8-.29-3.56.94-3.05-1.52.75.03,1.54-.08,2.29,0,1.44.52,1.69,1.03.76,1.53ZM268.23,206.83c.3-1.04,4.18.33,5.35.37,3.29.12,6.63-.08,9.92,0,1.02.02,2.04-.03,3.05,0,1.27.04,2.55-.04,3.82,0,7.63.23,15.22,1.28,22.9.76.72-.08,2.53-.44,2.28.75-5.18,1.25-11.01.84-16.41.79-1.29-.01-3.39.49-4.19-.78-1.78-.02-3.56.03-5.34,0-.25,0-.51,0-.76,0-1.27-.03-2.55.04-3.82,0-3.83-.13-7.59-.61-11.45-.76-1.08-.04-5.9.8-5.35-1.14ZM298,216.36c-.99,2.77-2.46.81-3.05.76-1-.09-2.05.08-3.05,0v-.75c1.51.07,3.07-.13,4.58,0,.5.04,1.02-.04,1.53,0ZM260.6,207.21c-1.06,1.76-5.1.3-6.86.75,1-1.75,5.1-.3,6.86-.75ZM252.2,207.21l-6.1,1.52-.76-1.53c2.28.03,4.58-.03,6.87,0ZM238.47,216.36c1.97-.06,4.15-.13,6.11,0,11.2-1.7,22.35-1.33,33.58-.76,1.27.06,2.55-.05,3.82,0,2.84.11,5.64-.33,8.39.77l-7.63.75c-1.27.01-2.54-.02-3.82,0-8.68.11-17.29.71-25.95.76-5.09.03-9.58-.59-14.5-.76-1.23-.04-3.06,1.78-3.82-.76,1.27-.04,2.55.03,3.82,0ZM295.71,234.66c-.34.3-7.55-.08-9.16,0-1.75.1-4.55,1.51-6.87.76,1.21-2.76,5.1-1.34,6.87-1.52.74-.07,1.69-.73,3.05-.76,1.51-.04,3.07-.07,4.58,0,.51.02,1.02-.02,1.52,0-.04.48.1,1.43,0,1.52ZM308.69,233.9c-1.21.14-5.5.57-6.1-.75,2.38-.16,4.42-.78,6.87-.77.76,0,1.53-.01,2.29,0,.94.51-2.13,1.42-3.05,1.52ZM341.92,233.95c-.52.84-10.75.65-12.62.71-.2-1.44,3.3-1.14,3.04-1.89-1.07-3.13-3.71-.7-4.57-1.93-.09-.12,1.33-1.86.03-2.68-1.65-1.05-6.29.02-8.43-.36,1.37-2.46,4.95-1.26,7.66-1.89,2.13-.5,3.33-2.62,3.56-2.67,1.95-.4,5.61,1.13,5.57-2.3-5.35.57-10.65.63-16.02.76-4.38,1.55-9.82.57-14.5.76-10.64.44-21.39,1.92-32.06,2.29-1.78.06-3.57-.04-5.34,0-2.03.05-4.08,0-6.11,0h-8.4c-2.57.26-5.03.61-7.63.76-.76.05-1.53-.01-2.29,0-1.27,1.36-4.19.75-6.11.76-1.27.01-2.55.04-3.82,0-2.59,1.53-6.73.59-9.92.76-3,.16-6.17.45-9.16.76-.73.08-1.33.44-2.29-.01-.16.77.23,2.77,0,3.06-.74.93-1.21-.25-1.79-1.05-.34-.05-.76-.19-1.26-.48-1.73.3-3.43-.82-4.58-.76-.76.04-1.53-.02-2.29,0-.98.02-2.99.87-5.34.76-.76-.03-1.53.03-2.29,0-.13-1.3,2.47-1.33,3.81-1.52,1.19-.17,2.6.14,3.82,0,1.31-.15,1.76.04,2.29,0,.91-.07,2.19-.68,3.82-.76v-.76l-1.53-1.52c1.94-.68,3.46.5,4.58.76.18.04.47.69.76.76.92.23,2.67-.06,3.82,0,1.52.08,3.06-.03,4.58,0,.94-1.21,3.8-.9,5.34-.76,7.35-.76,14.77-.97,22.13-1.53,3.57-.27,7.09-.89,10.69-.76,1-.1,2.05.08,3.05,0,10.14-.83,21.04-.84,31.29-1.53,1.68-1.21,4.2-.87,6.57-.74.86-.03,1.72-.04,2.59-.03,1.51-.11,3.07.12,4.58,0,6.91-.57,13.99-.88,20.6-3.06l-5.81-1.42c-3.65-.29-7.34-.52-10.97-.86-1.85-.17-3.04-.54-4.58-.76-.67-.22-.66-.47,0-.76,1.17.2,2.68.48,3.82.76,3.5-1.76,8.04-.27,11.79-.8,1.14-.16,1.99-1.29,3.13-1.45,2.89-.42,7.68.33,10.27-1.56.75-2.52-3.78-1.44-6.11-1.53-2.27-.08-4.61.15-6.87,0-1.02-.07-5.19-.39-5.34-1.52,2.03-.04,4.07.02,6.1,0,2.02-.03,4.1-.09,6.11,0,1.23.06,2.66-.16,3.82,0,3.52-.37,7.72-1.66,7.68-5.77-.01-1.09-.81-1.76-.81-1.86-2.02.21-5.33-1.42-6.87-1.53.22-.52.98-.78,2.29-.76,1.15.11,2.94,1.35,4.58.76.01-.38,1.06-1.42.77-2.28-3.28-.81-14.94-.82-16.79-3.07-1.85-2.26,5.71-1.41,7.16-1.6,4.39-.58,6.21-3.2,11.42-1.29.95.35,2.24,3.35,4.99,3l-5.6,40.38ZM331.58,183.55c2.05-2.75,6.31-4.06,8.9-1.26.29.31,1.12,1.95,1.02,2.03l-9.92-.76ZM343.03,185.07c.59-1.95,2.9-1.53,4.58-1.51-.59,1.95-2.9,1.53-4.58,1.51ZM347.61,172.88c-1.02,0-3.04-.04-3.82,0-1.13.06-3.38.64-5.34.76-4.23.26-18,1.9-20.9.08-.91-.57-.34-1.47-.47-1.6-.53-.57-2.21-.7-3.05-.76-1.92-.14-4.87.9-6.88-.38,0-.67,5.75-.39,6.88-.38,2.15.02,5.36-.62,6.87.76,4.11-.11,6.76.14,10.69.76h6.11c1.01,0,2.04.05,3.05,0,1.01-.05,2.04.07,3.05,0,.96-.07,2.05-.64,3.05-.76,1.8-.22,3.55-.49,5.34-.76.25,4.95-2.88,2.29-4.58,2.28ZM375.27,144.85c-.36-.84-.71-1.91-1.7-.96-.41.39-2.27,9.69-2.34,11.04-.16,3.21.73,7.22,1.56,10.32.08.28.56.88.76,1.53.26.81,1.27,1.65.76,3.05-.88-.23-2.04-1.49-2.28-2.29-.09-.28-.05-1.15,0-1.53-1.51-3.17-4.78-6.52-6.14-9.5-1.33-2.91-6.59-19.54-6.77-22.27-.23-3.54.93-3.4,4.15-3.37,1.75.02,9.3.51,10.52.8.76.18,1.11,2.04,1.99,2.76,1.11.91,2.83.77,3.38,1.99,1.17,2.6.18,7.03.6,10.04.56,4,2.27,7.81,2.19,11.92-2.96-3.57-4.82-9.16-6.68-13.53Z"/>
</svg>